<svg xmlns="http://www.w3.org/2000/svg" width="83" height="83" viewBox="0 0 83 83">
  <g id="Grupo_1099806" data-name="Grupo 1099806" transform="translate(-329.813 -2327)">
    <circle id="Elipse_11524" data-name="Elipse 11524" cx="41.5" cy="41.5" r="41.5" transform="translate(329.813 2327)" fill="#1d3fbb"/>
    <g id="vegetales" transform="translate(341.813 2339)">
      <path id="Trazado_873994" data-name="Trazado 873994" d="M57.007,25.319a4.632,4.632,0,0,1,.473,2.874s-.074.278-.2.788l-12.3-2.188-.362-.037.083-.835a4.656,4.656,0,0,1,1.437-2.541,7.3,7.3,0,0,1,4.859-1.892,5.775,5.775,0,0,1,1.066.093,7.161,7.161,0,0,1,4.951,3.737Z" transform="translate(-3.174 -1.491)" fill="#f26a07"/>
      <g id="Grupo_1099796" data-name="Grupo 1099796" transform="translate(3.763 21.04)">
        <path id="Trazado_873995" data-name="Trazado 873995" d="M16.2,49.383c-1.456,1.261-3.533.148-4.664-.983a6.627,6.627,0,0,1-1.817.065,7.086,7.086,0,0,0,2.068,7.575A7.165,7.165,0,0,0,14.4,57.57c-.028-.037-.056-.065-.083-.1-2.133-2.884.1-6.287,1.919-8.039Z" transform="translate(-4.371 -24.489)" fill="#7aa822"/>
        <g id="Grupo_1099794" data-name="Grupo 1099794" transform="translate(0 9.631)">
          <path id="Trazado_873996" data-name="Trazado 873996" d="M7.633,33H16.59l1.085,4.386c-.009,0-.028-.009-.037-.009a4.09,4.09,0,0,0-5-1.595,3.611,3.611,0,0,0-1.762,2.439h-.009a4.448,4.448,0,0,0-4.089.723c-1.317,1.317-1.057,3.765-.111,5.081-.76-.658-2.142-1.836-2.457-2.837-.936-2.921,1.076-6.342,4.006-7.279A3.574,3.574,0,0,1,7.633,33Z" transform="translate(-3.98 -33)" fill="#7aa822"/>
        </g>
        <g id="Grupo_1099795" data-name="Grupo 1099795" transform="translate(3.416)">
          <path id="Trazado_873997" data-name="Trazado 873997" d="M22.772,33l-3.041,5.016a3.087,3.087,0,0,0-1.066-.631L17.58,33Z" transform="translate(-8.386 -23.369)" fill="#7aa822"/>
          <path id="Trazado_873998" data-name="Trazado 873998" d="M26.671,47.177c-1.966-2.2-5.137-1.521-7.288-.5l-.093-.185c1.817-.936,1.474-3.208.77-4.571.491-.918,1-2.1.584-2.911a3.6,3.6,0,0,0-.788-.983v-.009L22.9,33H30.63a5.461,5.461,0,0,0-.3.853c-.612,2.309-1.15,4.636-1.9,6.9a61.936,61.936,0,0,0-1.752,6.416Z" transform="translate(-8.51 -23.369)" fill="#7aa822"/>
          <path id="Trazado_873999" data-name="Trazado 873999" d="M24.684,29.147a6.654,6.654,0,0,1,5.665,2,5.816,5.816,0,0,0-.566,1.094H7.9c-.723-1.641.287-3.236,1.929-4.636-.491-1.984,1.159-3.774,4.636-4.636,2.309-.575,4.191-.445,5.341.287a2.522,2.522,0,0,1,1.15,1.567C23.451,25.392,25.25,26.644,24.684,29.147Z" transform="translate(-7.664 -22.613)" fill="#7aa822"/>
        </g>
      </g>
      <g id="Grupo_1099797" data-name="Grupo 1099797" transform="translate(3.763 32.052)">
        <path id="Trazado_874000" data-name="Trazado 874000" d="M16.2,49.383c-1.456,1.261-3.533.148-4.664-.983a6.627,6.627,0,0,1-1.817.065,7.086,7.086,0,0,0,2.068,7.575A7.165,7.165,0,0,0,14.4,57.57c-.028-.037-.056-.065-.083-.1-2.133-2.884.1-6.287,1.919-8.039Z" transform="translate(-4.371 -35.501)" fill="#607f0a"/>
        <path id="Trazado_874001" data-name="Trazado 874001" d="M10.6,38.366l.25.037a4.772,4.772,0,0,1,.21-.649A36.907,36.907,0,0,1,7.15,34.489,6.066,6.066,0,0,0,4.212,41.3c.315,1,1.7,2.179,2.457,2.837-.946-1.317-1.205-3.765.111-5.081a3.918,3.918,0,0,1,3.82-.686Z" transform="translate(-3.98 -34.489)" fill="#607f0a"/>
        <path id="Trazado_874002" data-name="Trazado 874002" d="M20.124,42.485l-.064.125c.7,1.363,1.048,3.635-.77,4.571l.093.185c2.114-1,5.23-1.669,7.2.4l.167-.167c.28-1.307.621-2.6.992-3.891A22.876,22.876,0,0,1,20.124,42.485Z" transform="translate(-5.094 -35.071)" fill="#607f0a"/>
      </g>
      <path id="Trazado_874003" data-name="Trazado 874003" d="M56.427,32.576H44.03l.538-5.406.362.037,12.3,2.188C57.058,30.081,56.779,31.194,56.427,32.576Z" transform="translate(-3.131 -1.904)" fill="#f26a07"/>
      <path id="Trazado_874004" data-name="Trazado 874004" d="M41.627,32.709H31.52a6.3,6.3,0,0,1,.575-1.113A5.345,5.345,0,0,1,36.536,29H36.6a4.9,4.9,0,0,1,2.893.964,4.816,4.816,0,0,1,.427.334A6.406,6.406,0,0,1,41.627,32.709Z" transform="translate(-2.221 -2.038)" fill="#8ac926"/>
      <path id="Trazado_874005" data-name="Trazado 874005" d="M44,33H56.4c-.566,2.225-1.326,5.146-2.077,8.113a6.468,6.468,0,0,0-2.93-.7h-.037L44.2,39.148c-.213-.714-.408-1.437-.593-2.16Z" transform="translate(-3.101 -2.329)" fill="#f26a07"/>
      <path id="Trazado_874006" data-name="Trazado 874006" d="M45.266,51.109l-.009.009a9.31,9.31,0,0,1-8.966,6.917h-.065a9.256,9.256,0,0,1-4.237-1.029,9.544,9.544,0,0,1-3.245-2.726h-.009a7.6,7.6,0,0,0-1.178-6.741,2.867,2.867,0,0,0-.306-.362l.009-.009a61.936,61.936,0,0,1,1.752-6.416c.751-2.262,1.289-4.59,1.9-6.9a5.461,5.461,0,0,1,.3-.853H41.316a6.585,6.585,0,0,1,.287.853c.278,1.048.547,2.1.816,3.134.185.723.38,1.446.593,2.16.158.538.325,1.076.5,1.6.232.7.733,2.1,1.011,3a6.459,6.459,0,0,0-.816,3.153,6.344,6.344,0,0,0,1.558,4.2ZM40,47.836c0-3.069-2.17-6.491-3.709-6.491s-3.709,3.421-3.709,6.491a3.382,3.382,0,0,0,3.709,3.709A3.382,3.382,0,0,0,40,47.836Z" transform="translate(-1.91 -2.329)" fill="#8ac926"/>
      <path id="Trazado_874007" data-name="Trazado 874007" d="M6.818,44.419c-.946-1.317-1.205-3.765.111-5.081a4.448,4.448,0,0,1,4.089-.723,3.854,3.854,0,0,0,.185,2.559,3.52,3.52,0,0,0,.232,2.485c.417.807,1.678,1.076,2.717,1.205.7,1.372,2.355,2.958,4.173,2.021l.093.185a9.218,9.218,0,0,0-1.586.918A8.456,8.456,0,0,0,16,48.7l-.037-.046c-1.456,1.261-3.533.148-4.664-.983a6.681,6.681,0,0,1-1.827.065,2.056,2.056,0,0,1-1.252-.529,3.984,3.984,0,0,1-1.1-2.42,1.931,1.931,0,0,1-.3-.371Z" transform="translate(-0.366 -2.723)" fill="#8ac926"/>
      <path id="Trazado_874008" data-name="Trazado 874008" d="M39.583,23.374a9.32,9.32,0,0,1-.844,5.758l-.028.037a4.9,4.9,0,0,0-2.893-.964h-.065A5.346,5.346,0,0,0,31.3,30.819a6.654,6.654,0,0,0-5.665-2c.566-2.5-1.233-3.755-3.727-4.321a2.522,2.522,0,0,0-1.15-1.567c2.012-2.216,5.656-4.349,7.594-4.683,3.041-.519,10.32-.176,11.229,5.128Z" transform="translate(-1.438 -1.242)" fill="#ee2d02"/>
      <path id="Trazado_874009" data-name="Trazado 874009" d="M42.42,33h1.493l-.389,3.987c-.269-1.038-.538-2.086-.816-3.134A6.585,6.585,0,0,0,42.42,33Z" transform="translate(-3.014 -2.329)" fill="#9ac2d8"/>
      <path id="Trazado_874010" data-name="Trazado 874010" d="M57.57,33.074,57.561,33H53.3c-.575,2.244-1.326,5.183-2.077,8.123A6.487,6.487,0,0,1,48.289,53.4a1.37,1.37,0,0,1-.195-.009,4.644,4.644,0,0,1-4.562,3.792,4.747,4.747,0,0,1-.807-.074,4.59,4.59,0,0,1-2.058-.927l-.306-.352a9.172,9.172,0,0,1-5.981,2.207h-.065a9.11,9.11,0,0,1-4.191-1.011,9.207,9.207,0,0,1-3.208-2.7l-.1-.028a7.182,7.182,0,0,1-2.633,3.737,7.262,7.262,0,0,1-4.339,1.428A7.612,7.612,0,0,1,13.8,56.45a7.165,7.165,0,0,1-2.615-1.53,7.086,7.086,0,0,1-2.068-7.575,2.082,2.082,0,0,1-1.261-.529,3.984,3.984,0,0,1-1.1-2.42,1.931,1.931,0,0,1-.3-.371c-.76-.658-2.142-1.836-2.457-2.837C3.058,38.267,5.071,34.845,8,33.909A3.574,3.574,0,0,1,7.416,33H1.927l-.009.074A66.923,66.923,0,0,0,1,44.127a16.691,16.691,0,0,0,16.69,16.69H41.8a16.691,16.691,0,0,0,16.69-16.69A66.923,66.923,0,0,0,57.57,33.074Z" transform="translate(0 -2.329)" fill="#9ac2d8"/>
      <path id="Trazado_874011" data-name="Trazado 874011" d="M58.8,44.127a16.691,16.691,0,0,1-16.69,16.69H18A16.589,16.589,0,0,1,5.32,54.957a16.563,16.563,0,0,0,10.83,4.006H40.258a16.691,16.691,0,0,0,16.69-16.69A66.032,66.032,0,0,0,56.3,33h1.576l.009.074A66.923,66.923,0,0,1,58.8,44.127Z" transform="translate(-0.314 -2.329)" fill="#73bde5"/>
      <path id="Trazado_874012" data-name="Trazado 874012" d="M20.472,60.817H17.69A16.718,16.718,0,0,1,1,44.127a66.923,66.923,0,0,1,.918-11.053L1.927,33H4.709l-.009.074a66.923,66.923,0,0,0-.918,11.053,16.718,16.718,0,0,0,16.69,16.69Z" transform="translate(0 -2.329)" fill="#b9deef"/>
      <path id="Trazado_874013" data-name="Trazado 874013" d="M10.272,1A9.272,9.272,0,1,1,1,10.272,9.276,9.276,0,0,1,10.272,1ZM9.753,15.678l5.74-8.039L12.47,5.488,8.937,10.43,6.749,8.789,4.523,11.756Z" transform="translate(0)" fill="#ffca3a"/>
      <path id="Trazado_874014" data-name="Trazado 874014" d="M15.769,7.991,10.03,16.03,4.8,12.108,7.025,9.141l2.188,1.641L12.746,5.84Z" transform="translate(-0.277 -0.352)" fill="#8ac926"/>
      <path id="Trazado_874015" data-name="Trazado 874015" d="M18.417,47.23a9.218,9.218,0,0,0-1.586.918,8.456,8.456,0,0,0-.835.714l-.037-.046c-1.456,1.261-3.533.148-4.664-.983a6.627,6.627,0,0,1-1.817.065,2.082,2.082,0,0,1-1.261-.529,3.984,3.984,0,0,1-1.1-2.42,1.931,1.931,0,0,1-.3-.371,4.62,4.62,0,0,1-.575-3.969A4.154,4.154,0,0,0,6.818,41.8a1.931,1.931,0,0,0,.3.371,3.984,3.984,0,0,0,1.1,2.42,2.082,2.082,0,0,0,1.261.529,6.627,6.627,0,0,0,1.817-.065c.955.955,2.587,1.9,3.95,1.409a2.608,2.608,0,0,0,3.078.584Z" transform="translate(-0.366 -2.883)" fill="#7aa822"/>
      <path id="Trazado_874016" data-name="Trazado 874016" d="M30.606,14.5a.918.918,0,0,1,1.317,1.076l-.556,1.836v.306a14.779,14.779,0,0,0-2.735.167,10.446,10.446,0,0,0-2.652.955l-.093-.482L24.755,16.81a.917.917,0,0,1,.723-1.465.9.9,0,0,1,.158.009.928.928,0,0,0,.983-.538l.51-1.15a.922.922,0,0,1,1.511-.26l.862.909a.909.909,0,0,0,.668.3.923.923,0,0,0,.436-.111Z" transform="translate(-1.715 -0.882)" fill="#8ac926"/>
      <path id="Trazado_874017" data-name="Trazado 874017" d="M57.485,16.122c2.522.445,4.358,1.947,3.913,4.46S59.46,24.95,56.938,24.5l-.046.028A7.161,7.161,0,0,0,51.94,20.8a5.775,5.775,0,0,0-1.066-.093,7.3,7.3,0,0,0-4.859,1.892l-.037-.037c-2.522-.445-3.282-2.689-2.837-5.211s2.689-3.292,5.211-2.847a4.638,4.638,0,0,1,9.133,1.623Z" transform="translate(-3.058 -0.704)" fill="#8ac926"/>
      <path id="Trazado_874018" data-name="Trazado 874018" d="M43.037,19.16c.008,1.942.877,3.519,2.942,3.883l.037.037a7.3,7.3,0,0,1,4.859-1.892,5.775,5.775,0,0,1,1.066.093,7.161,7.161,0,0,1,4.951,3.737l.046-.028c2.522.445,4.015-1.4,4.46-3.922a3.368,3.368,0,0,0-1.778-3.722A20.047,20.047,0,0,1,43.037,19.16Z" transform="translate(-3.059 -1.19)" fill="#7aa822"/>
      <path id="Trazado_874019" data-name="Trazado 874019" d="M57.472,24.918c-.389,1.356-.823,2.69-1.326,3.964l1.969.35c.13-.51.2-.788.2-.788a4.632,4.632,0,0,0-.473-2.874,5.935,5.935,0,0,0-.374-.652Z" transform="translate(-4.013 -1.741)" fill="#e25b00"/>
      <path id="Trazado_874020" data-name="Trazado 874020" d="M45.272,39.039l6.2,1.1h.037a6.357,6.357,0,0,1,2.93.7c.751-2.939,1.5-5.879,2.077-8.123.352-1.382.631-2.494.807-3.18l-1.969-.35C53.406,34.143,50.449,38.181,45.272,39.039Z" transform="translate(-3.222 -2.052)" fill="#e25b00"/>
      <path id="Trazado_874021" data-name="Trazado 874021" d="M44.25,39.63,51.4,40.9a6.469,6.469,0,0,0-5.638,3.338c-.121-.38-.278-.844-.436-1.317-.213-.64-.436-1.28-.575-1.688-.176-.529-.343-1.066-.5-1.6Z" transform="translate(-3.147 -2.811)" fill="#e25b00"/>
      <path id="Trazado_874022" data-name="Trazado 874022" d="M46.436,52.52a6.375,6.375,0,0,0,4.747,2.29A4.644,4.644,0,0,1,46.621,58.6a4.747,4.747,0,0,1-.807-.074,4.59,4.59,0,0,1-2.058-.927l-.306-.352a9.212,9.212,0,0,0,2.986-4.729Z" transform="translate(-3.089 -3.749)" fill="#e25b00"/>
      <g id="Grupo_1099798" data-name="Grupo 1099798" transform="translate(3.763 32.052)">
        <path id="Trazado_874023" data-name="Trazado 874023" d="M16.2,49.383c-1.456,1.261-3.533.148-4.664-.983a6.627,6.627,0,0,1-1.817.065,7.086,7.086,0,0,0,2.068,7.575A7.165,7.165,0,0,0,14.4,57.57c-.028-.037-.056-.065-.083-.1-2.133-2.884.1-6.287,1.919-8.039Z" transform="translate(-4.371 -35.501)" fill="#607f0a"/>
        <path id="Trazado_874024" data-name="Trazado 874024" d="M10.6,38.366l.25.037a4.772,4.772,0,0,1,.21-.649A36.907,36.907,0,0,1,7.15,34.489,6.066,6.066,0,0,0,4.212,41.3c.315,1,1.7,2.179,2.457,2.837-.946-1.317-1.205-3.765.111-5.081a3.918,3.918,0,0,1,3.82-.686Z" transform="translate(-3.98 -34.489)" fill="#607f0a"/>
        <path id="Trazado_874025" data-name="Trazado 874025" d="M20.124,42.485l-.064.125c.7,1.363,1.048,3.635-.77,4.571l.093.185c2.114-1,5.23-1.669,7.2.4l.167-.167c.28-1.307.621-2.6.992-3.891A22.876,22.876,0,0,1,20.124,42.485Z" transform="translate(-5.094 -35.071)" fill="#607f0a"/>
      </g>
      <path id="Trazado_874026" data-name="Trazado 874026" d="M14.725,57.448c-.028-.037-.056-.065-.083-.1-2.133-2.884.1-6.287,1.919-8.039a8.456,8.456,0,0,1,.835-.714,9.218,9.218,0,0,1,1.586-.918c2.114-1,5.23-1.669,7.2.4a3.813,3.813,0,0,1,.389.464A7.577,7.577,0,0,1,27.743,55.3a7.182,7.182,0,0,1-2.633,3.737,7.262,7.262,0,0,1-4.339,1.428,7.612,7.612,0,0,1-6.046-3.013Z" transform="translate(-0.929 -3.327)" fill="#ee2d02"/>
      <path id="Trazado_874027" data-name="Trazado 874027" d="M27.744,55.613A7.182,7.182,0,0,1,25.11,59.35a7.262,7.262,0,0,1-4.339,1.428,7.612,7.612,0,0,1-6.046-3.013c-.028-.037-.056-.065-.083-.1a4.725,4.725,0,0,1-.269-5.044,3.429,3.429,0,0,0,.269.408c.028.037.056.065.083.1a7.612,7.612,0,0,0,6.046,3.013,7.277,7.277,0,0,0,6.945-5.072A7.525,7.525,0,0,1,27.744,55.613Z" transform="translate(-0.93 -3.644)" fill="#c92206"/>
      <g id="Grupo_1099799" data-name="Grupo 1099799" transform="translate(14.956 27.748)">
        <path id="Trazado_874028" data-name="Trazado 874028" d="M19.314,36.507a.913.913,0,0,1-.454.77,1.728,1.728,0,0,0-.343-.13,2.467,2.467,0,0,0-.4-.556,3.746,3.746,0,0,0-.825-.677L16.078,31a.927.927,0,0,1,1.8-.445l1.409,5.7a1.151,1.151,0,0,1,.028.25Z" transform="translate(-16.051 -29.848)" fill="#2a4430"/>
      </g>
      <g id="Grupo_1099800" data-name="Grupo 1099800" transform="translate(17.764 29.113)">
        <path id="Trazado_874029" data-name="Trazado 874029" d="M24.059,32.729,20.73,38.237a1.022,1.022,0,0,1-.315.315,3.4,3.4,0,0,0-1.335-1.168.623.623,0,0,1,.056-.111l.4-.658,2.93-4.849a.932.932,0,1,1,1.595.964Z" transform="translate(-19.08 -31.319)" fill="#2a4430"/>
      </g>
      <g id="Grupo_1099801" data-name="Grupo 1099801" transform="translate(41.353 24.378)">
        <path id="Trazado_874030" data-name="Trazado 874030" d="M57.492,28.417a.543.543,0,0,1-.019.121s-.074.278-.2.788c-.065.25-.139.556-.232.909L44.8,28.046a.718.718,0,0,1-.278-.1L44.6,27.1l.083-.835v-.009a.9.9,0,0,1,.445-.028Z" transform="translate(-44.52 -26.213)" fill="#bf6913"/>
      </g>
      <g id="Grupo_1099802" data-name="Grupo 1099802" transform="translate(40.834 35.859)">
        <path id="Trazado_874031" data-name="Trazado 874031" d="M54.614,40.473c-.093.352-.176.7-.269,1.057a6.357,6.357,0,0,0-2.93-.7h-.037a6.128,6.128,0,0,0-2.476.51l-4.358-.779c-.111-.334-.213-.668-.315-1-.093-.315-.176-.631-.269-.946a.613.613,0,0,1,.26,0l.167.028Z" transform="translate(-43.96 -38.595)" fill="#bf6913"/>
      </g>
      <path id="Trazado_874032" data-name="Trazado 874032" d="M4.223,45a1.577,1.577,0,0,0,0,3.153A1.577,1.577,0,0,0,4.223,45Z" transform="translate(-0.123 -3.202)" fill="#e8f7f9"/>
      <path id="Trazado_874033" data-name="Trazado 874033" d="M5.536,48.767a.928.928,0,0,0,0,1.854A.928.928,0,0,0,5.536,48.767Z" transform="translate(-0.265 -3.476)" fill="#e8f7f9"/>
      <g id="Grupo_1099804" data-name="Grupo 1099804" transform="translate(4.335 3.603)">
        <path id="Trazado_874034" data-name="Trazado 874034" d="M36.777,21.688a.464.464,0,0,0,0,.927A.464.464,0,0,0,36.777,21.688Z" transform="translate(-6.906 -5.109)" fill="#f9e4e1"/>
        <path id="Trazado_874035" data-name="Trazado 874035" d="M48.4,24.688a.464.464,0,0,0,0,.927A.464.464,0,0,0,48.4,24.688Z" transform="translate(-7.752 -5.327)" fill="#f9e4e1"/>
        <g id="Grupo_1099803" data-name="Grupo 1099803">
          <path id="Trazado_874036" data-name="Trazado 874036" d="M6.343,3.923A1.392,1.392,0,0,0,7.408,6.492,1.392,1.392,0,0,0,6.343,3.923Z" transform="translate(-4.663 -3.807)" fill="#f9e4e1"/>
          <path id="Trazado_874037" data-name="Trazado 874037" d="M4.872,6.316a.464.464,0,0,0,.355.856A.464.464,0,0,0,4.872,6.316Z" transform="translate(-4.596 -3.987)" fill="#f9e4e1"/>
        </g>
        <path id="Trazado_874038" data-name="Trazado 874038" d="M24.33,49.061a.6.6,0,0,0,0,1.2A.6.6,0,0,0,24.33,49.061Z" transform="translate(-5.99 -7.101)" fill="#f9e4e1"/>
        <path id="Trazado_874039" data-name="Trazado 874039" d="M50.18,23.375a.928.928,0,0,0,0,1.854A.928.928,0,0,0,50.18,23.375Z" transform="translate(-7.848 -5.231)" fill="#f9e4e1"/>
        <path id="Trazado_874040" data-name="Trazado 874040" d="M35.242,20.125a.928.928,0,0,0,0,1.854A.928.928,0,0,0,35.242,20.125Z" transform="translate(-6.761 -4.995)" fill="#f9e4e1"/>
      </g>
      <path id="Trazado_874041" data-name="Trazado 874041" d="M54.421,41.7a6.487,6.487,0,0,1-2.93,12.276,1.37,1.37,0,0,1-.195-.009A6.507,6.507,0,0,1,45,47.491,6.488,6.488,0,0,1,51.454,41h.037a6.357,6.357,0,0,1,2.93.7Zm-2,3.931a1.854,1.854,0,1,0-1.854,1.854A1.86,1.86,0,0,0,52.418,45.636Z" transform="translate(-3.202 -2.911)" fill="#6a4c93"/>
      <ellipse id="Elipse_11529" data-name="Elipse 11529" cx="1.5" cy="2" rx="1.5" ry="2" transform="translate(46 40.488)" fill="#828282"/>
      <path id="Trazado_874042" data-name="Trazado 874042" d="M55.12,44a.618.618,0,0,0,0,1.236A.618.618,0,0,0,55.12,44Z" transform="translate(-3.895 -3.129)" fill="#efe8f9"/>
      <path id="Trazado_874043" data-name="Trazado 874043" d="M57.986,47.688a6.486,6.486,0,0,1-6.491,6.491,1.37,1.37,0,0,1-.195-.009,6.375,6.375,0,0,1-4.747-2.29,6.293,6.293,0,0,1-1.493-3.394,2.374,2.374,0,0,0,.185.241,6.375,6.375,0,0,0,4.747,2.29,1.369,1.369,0,0,0,.195.009,6.486,6.486,0,0,0,6.491-6.491,6.067,6.067,0,0,0-.056-.825A6.449,6.449,0,0,1,57.986,47.688Z" transform="translate(-3.206 -3.108)" fill="#5c3d99"/>
      <path id="Trazado_874044" data-name="Trazado 874044" d="M43.7,46.617a6.459,6.459,0,0,1,.816-3.153c-.121-.38-.278-.844-.436-1.317-.213-.64-.436-1.28-.575-1.688-.176-.529-.343-1.066-.5-1.6-.51-1.752-.936-3.533-1.409-5.294a6.585,6.585,0,0,0-.287-.853A6.406,6.406,0,0,0,39.6,30.3a4.817,4.817,0,0,0-.427-.334A4.9,4.9,0,0,0,36.284,29h-.065a5.345,5.345,0,0,0-4.441,2.6,6.3,6.3,0,0,0-.575,1.113,5.461,5.461,0,0,0-.3.853c-.612,2.309-1.15,4.636-1.9,6.9a57.013,57.013,0,0,0-1.678,6.157l-.167.167a3.813,3.813,0,0,1,.389.464,7.577,7.577,0,0,1,1.168,6.759l.1.028a9.207,9.207,0,0,0,3.208,2.7,9.11,9.11,0,0,0,4.191,1.011h.065a9.315,9.315,0,0,0,8.966-6.936A6.378,6.378,0,0,1,43.7,46.617Zm-7.418,4.636a3.382,3.382,0,0,1-3.709-3.709c0-3.069,2.17-6.491,3.709-6.491s3.709,3.421,3.709,6.491A3.382,3.382,0,0,1,36.284,51.253Z" transform="translate(-1.904 -2.038)" fill="#8ac926"/>
      <path id="Trazado_874045" data-name="Trazado 874045" d="M45.372,52.407a9.315,9.315,0,0,1-8.966,6.936h-.065a9.11,9.11,0,0,1-4.191-1.011,9.207,9.207,0,0,1-3.208-2.7l-.1-.028a7.5,7.5,0,0,0,.213-3.542,9.253,9.253,0,0,0,7.288,3.57h.065a9.309,9.309,0,0,0,8.03-4.664,6.72,6.72,0,0,0,.936,1.437Z" transform="translate(-2.026 -3.636)" fill="#7aa822"/>
      <path id="Trazado_874046" data-name="Trazado 874046" d="M36.709,42c1.539,0,3.709,3.421,3.709,6.491A3.382,3.382,0,0,1,36.709,52.2,3.382,3.382,0,0,1,33,48.491C33,45.421,35.17,42,36.709,42Z" transform="translate(-2.329 -2.984)" fill="#7d5a34"/>
      <path id="Trazado_874047" data-name="Trazado 874047" d="M40.418,48.883a3.382,3.382,0,0,1-3.709,3.709A3.382,3.382,0,0,1,33,48.883a7.424,7.424,0,0,1,.158-1.493,3.356,3.356,0,0,0,3.551,2.42,3.356,3.356,0,0,0,3.551-2.42A7.424,7.424,0,0,1,40.418,48.883Z" transform="translate(-2.329 -3.376)" fill="#774d23"/>
      <path id="Trazado_874048" data-name="Trazado 874048" d="M36.409,44.719a.928.928,0,0,0,0,1.854A.928.928,0,0,0,36.409,44.719Z" transform="translate(-2.512 -3.182)" fill="#f9dec5"/>
      <path id="Trazado_874049" data-name="Trazado 874049" d="M20.06,39.2c.417.807-.093,1.994-.584,2.911.7,1.363,1.048,3.635-.77,4.571s-3.468-.649-4.173-2.021c-1.038-.13-2.3-.4-2.717-1.205a3.52,3.52,0,0,1-.232-2.485,3.863,3.863,0,0,1-.2-2.485,3.689,3.689,0,0,1,1.79-2.513,4.107,4.107,0,0,1,4.6,1.038,2.467,2.467,0,0,1,.4.556,2.923,2.923,0,0,1,1.094.631,3.541,3.541,0,0,1,.8,1Z" transform="translate(-0.748 -2.52)" fill="#8ac926"/>
      <path id="Trazado_874050" data-name="Trazado 874050" d="M20.032,44.649a2.4,2.4,0,0,1-1.326,2.114c-1.817.936-3.468-.649-4.173-2.021-1.038-.13-2.3-.4-2.717-1.205a3.52,3.52,0,0,1-.232-2.485,3.863,3.863,0,0,1-.2-2.485,4.113,4.113,0,0,1,.927-1.836,3.813,3.813,0,0,0,.2,2.466,3.52,3.52,0,0,0,.232,2.485c.417.807,1.678,1.076,2.717,1.205.7,1.372,2.355,2.958,4.173,2.021A1.967,1.967,0,0,0,20.032,44.649Z" transform="translate(-0.748 -2.6)" fill="#7aa822"/>
      <g id="Grupo_1099805" data-name="Grupo 1099805" transform="translate(1.464 30.208)">
        <path id="Trazado_874051" data-name="Trazado 874051" d="M57.66,33.467a.484.484,0,0,1-.195-.04H1.964a.464.464,0,1,1,0-.927H57.67a.463.463,0,0,1,.457.388.5.5,0,0,1-.375.571A.512.512,0,0,1,57.66,33.467Z" transform="translate(-1.5 -32.5)" fill="#73bde5"/>
      </g>
      <path id="Trazado_874052" data-name="Trazado 874052" d="M39.694,25.825a9.442,9.442,0,0,1-.955,3.533l-.028.037a4.9,4.9,0,0,0-2.893-.964h-.065A5.346,5.346,0,0,0,31.3,31.046a6.654,6.654,0,0,0-5.665-2c.566-2.5-1.233-3.755-3.727-4.321a2.522,2.522,0,0,0-1.15-1.567,15.605,15.605,0,0,1,2.225-1.975c1.845.464,3.523,1.428,3.839,2.893a1.842,1.842,0,0,0,1.539,1.474,7,7,0,0,1,2.9,1.057,1.843,1.843,0,0,0,2.244-.269A5.039,5.039,0,0,1,36.9,24.972h.065a4.818,4.818,0,0,1,2.726.853Z" transform="translate(-1.438 -1.469)" fill="#c92206"/>
    </g>
  </g>
</svg>
