<svg xmlns="http://www.w3.org/2000/svg" xmlns:xlink="http://www.w3.org/1999/xlink" width="254" height="204" viewBox="0 0 254 204">
  <defs>
    <clipPath id="clip-path">
      <rect id="Rectángulo_401526" data-name="Rectángulo 401526" width="254" height="204" rx="12" transform="translate(200.051 1300)" fill="#e8ebf8"/>
    </clipPath>
    <clipPath id="clip-path-2">
      <rect id="Rectángulo_401525" data-name="Rectángulo 401525" width="122.803" height="304.365" fill="none"/>
    </clipPath>
  </defs>
  <g id="Grupo_1100023" data-name="Grupo 1100023" transform="translate(-200.051 -1300)">
    <rect id="Rectángulo_401431" data-name="Rectángulo 401431" width="254" height="185" rx="12" transform="translate(200.051 1319)" fill="#142c82"/>
    <g id="Enmascarar_grupo_1098693" data-name="Enmascarar grupo 1098693" clip-path="url(#clip-path)">
      <g id="Grupo_1099810" data-name="Grupo 1099810" transform="translate(243.649 1304.52)">
        <g id="Grupo_1099809" data-name="Grupo 1099809" clip-path="url(#clip-path-2)">
          <path id="Trazado_874078" data-name="Trazado 874078" d="M55.195,279.736c-.533,2.595-1.377,6.662-2.372,11.438-3.247,15.529-8.15,38.428-9.448,41.541-1.95,4.672-7.458,12.138-11.8,15.545l-.247.2c-4.369,3.311-12.965,2.515-13.364,1.456-.358-.955,5.134-50.853,7.458-70.688.143-1.258.279-2.4.4-3.4a78.36,78.36,0,0,0,10.531,2.2c.191.032.382.056.589.087a173.575,173.575,0,0,0,18.251,1.624" transform="translate(-3.541 -54.403)" fill="#fee7d1"/>
          <path id="Trazado_874079" data-name="Trazado 874079" d="M123.435,349.523c-.8.8-3.709,1.321-5.81,1.321-1.592-.008-5.373-1.385-8.023-3.033a10.111,10.111,0,0,1-2.062-1.6c-2.134-2.245-13.221-20.91-16.007-27.524-1.989-4.752-5.15-16.046-7.943-27.532-.931-3.836-1.83-7.689-2.627-11.327a130.647,130.647,0,0,0,18.331-1.8c.2-.032.4-.064.588-.1a76.392,76.392,0,0,0,8.819-2.07c.351,1.639.756,3.59,1.226,5.794,4.577,21.706,14.1,67.265,13.507,67.871" transform="translate(-15.969 -54.409)" fill="#fee7d1"/>
          <path id="Trazado_874080" data-name="Trazado 874080" d="M57.031,279.736c-.533,2.595-1.377,6.662-2.372,11.438-4.473-3.526-12.807-8.381-27.4-11.947.143-1.258.279-2.4.4-3.4a78.36,78.36,0,0,0,10.531,2.2c.191.032.382.056.589.087a173.575,173.575,0,0,0,18.251,1.624" transform="translate(-5.377 -54.403)" fill="#f4d4ba"/>
          <path id="Trazado_874081" data-name="Trazado 874081" d="M109.928,281.652a51.518,51.518,0,0,0-26.338,9.5c-.931-3.836-1.831-7.689-2.627-11.327a130.634,130.634,0,0,0,18.33-1.8c.2-.032.4-.064.589-.1a76.392,76.392,0,0,0,8.819-2.07c.35,1.639.756,3.59,1.226,5.794" transform="translate(-15.969 -54.409)" fill="#f4d4ba"/>
          <path id="Trazado_874082" data-name="Trazado 874082" d="M115.315,174.913a28.679,28.679,0,0,0-12.44-7.148c-7.761-2.117-16.4,2.118-16.4,2.118l-2.747-.12c1.6-8.1,3.375-16.747,3.446-18.147.112-2.221-7.148-13.579-9.488-17.169v-.016c-.438-.677-.7-1.075-.7-1.075s-.287.144-.836.374a50.633,50.633,0,0,1-19.1,3.59,35.729,35.729,0,0,1-10.666-1.377c-.2-.056-.382-.12-.566-.183a14.562,14.562,0,0,1-3.907-1.943,6.392,6.392,0,0,0-.653-.462,5.214,5.214,0,0,0-.819,1.353c-2.277,4.338-8.446,17.646-8.446,17.646.661,2.969,2.38,12.186,2.38,14.263a25.312,25.312,0,0,1-.3,2.587C25.3,172.453,4.71,180,4.5,179.235c-.263-.971,2.118-15.975,2.118-15.975s-.177-4.585,2.117-12.082,4.584-15.354,5.643-17.208,2.475-6.527,10.769-11.47c4.011-2.387,8.58-4.792,12.934-7.02.524-.279,1.05-.541,1.568-.8,1.648-.844,3.239-1.648,4.743-2.412,2.238-1.13,4.276-2.172,5.987-3.088.779,2.061,2.92,3.519,5.524,4.362.2.063.405.127.613.183a18.783,18.783,0,0,0,4.275.661c4.5.183,7.5,0,9.79-2.555a7.284,7.284,0,0,0,.716-.979c.3.168.716.39,1.217.669.208.1.422.223.653.351.168.088.342.183.526.287.732.4,1.575.859,2.507,1.369.533.287,1.091.6,1.679.915,8.764,4.8,22.669,12.481,24.643,13.977,2.913,2.2,5.643,6.526,8.207,16.588s4.585,29.912,4.585,29.912" transform="translate(-0.884 -21.533)" fill="#fee7d1"/>
          <path id="Trazado_874083" data-name="Trazado 874083" d="M82.323,111.515c-1.783,2.738-5.874,6.065-15.147,4.951-7.355-.883-11.088-2.635-12.974-4.2,2.237-1.13,4.274-2.173,5.985-3.088.78,2.061,2.921,3.518,5.524,4.362.2.063.406.127.613.183a18.821,18.821,0,0,0,4.274.661c4.5.183,7.5,0,9.791-2.555a7.336,7.336,0,0,0,.716-.979c.3.167.716.39,1.218.669" transform="translate(-10.69 -21.533)" fill="#f4d4ba"/>
          <path id="Trazado_874084" data-name="Trazado 874084" d="M107.824,155.063c-2.181,11.427-.858,27.658-.858,27.658l-8.831-1.074,5.924-20.506Z" transform="translate(-19.356 -30.584)" fill="#f4d4ba"/>
          <path id="Trazado_874085" data-name="Trazado 874085" d="M33.082,148.417c1.235,4.587,2.293,22.336,2.293,22.336l5.643.748s-3.437-14.118-5.138-18.151-2.8-4.933-2.8-4.933" transform="translate(-6.525 -29.273)" fill="#f4d4ba"/>
          <path id="Trazado_874086" data-name="Trazado 874086" d="M83.553,112.813c-3.335,5.183-8.684,4.943-12.64,4.76l-.541-.024a20.333,20.333,0,0,1-3.144-.421c-2.109-.407-3.176-.613-4.441,1.512-1.52,2.562-4.633,12.082-6.487,17.772-.024.063-.04.128-.064.191-.477,1.472-.891,2.722-1.186,3.6a.3.3,0,0,1-.279.2.4.4,0,0,1-.1-.016.3.3,0,0,1-.191-.382c.295-.868.7-2.118,1.186-3.582.024-.063.04-.128.064-.191,1.982-6.081,4.983-15.281,6.543-17.893,1.082-1.83,2.181-2.157,3.519-2.045a8.466,8.466,0,0,0-.032-2.094c.2.065.406.128.613.183a7.943,7.943,0,0,1,.008,1.99q.466.072.955.167a18.761,18.761,0,0,0,3.057.414l.549.024c4,.183,8.938.405,12.082-4.45q.25.131.525.287" transform="translate(-10.743 -22.194)" fill="#f4c29d"/>
          <path id="Trazado_874087" data-name="Trazado 874087" d="M50.423,137.047a.787.787,0,0,1-.685.892.5.5,0,0,1-.1.007.8.8,0,0,1-.788-.692c-.048-.335-.1-.74-.16-1.194-.1-.7-.222-1.528-.35-2.452-.74-5.086-1.791-12.345-2-16.779.526-.279,1.051-.541,1.569-.8.1,4.243,1.273,12.3,2,17.352.1.645.183,1.25.255,1.791.111.748.2,1.385.263,1.878" transform="translate(-9.14 -22.884)" fill="#ef3218"/>
          <path id="Trazado_874088" data-name="Trazado 874088" d="M95.267,135.5v.016c-.024.31-.04.486-.04.5a.8.8,0,0,1-.8.725.215.215,0,0,1-.071-.008.8.8,0,0,1-.717-.868c0-.024.04-.4.088-1.066a131.673,131.673,0,0,0,.056-20.21c.533.287,1.09.6,1.679.915a137.152,137.152,0,0,1-.2,19.994" transform="translate(-18.469 -22.601)" fill="#ef3218"/>
          <path id="Trazado_874089" data-name="Trazado 874089" d="M38.749,164.433a.3.3,0,0,1-.275-.182l-2.779-6.584c-.042-.182-2.615-12.645-10.929-21.651a.3.3,0,1,1,.438-.405c8.43,9.131,11.033,21.755,11.059,21.881l2.762,6.527a.3.3,0,0,1-.275.414" transform="translate(-4.869 -26.728)" fill="#f4c29d"/>
          <path id="Trazado_874090" data-name="Trazado 874090" d="M104.448,163.077a.263.263,0,0,1-.061-.006.3.3,0,0,1-.232-.352l1.059-5.09a.308.308,0,0,1,.031-.083c.071-.128,7.185-12.928,15.945-20.638a.3.3,0,0,1,.394.449c-8.445,7.431-15.357,19.654-15.8,20.438l-1.049,5.045a.3.3,0,0,1-.292.238" transform="translate(-20.542 -26.988)" fill="#f4c29d"/>
          <path id="Trazado_874091" data-name="Trazado 874091" d="M101.961,247.156c-.135.215-1.632.915-4.418,1.767q-1.169.359-2.65.74A117.579,117.579,0,0,1,69.8,252.895c-1.91.063-3.9.1-5.977.079-2.563-.008-5.015-.071-7.362-.167-12.72-.5-22.12-2.045-27.349-3.359-.764-.183-1.44-.374-2.021-.55-1.7-.517-2.635-.955-2.7-1.218-.263-1.058,7.545-37.712,9-46.053.366-2.109.867-4.879,1.393-7.88.254-1.393.509-2.842.764-4.29.039-.191.071-.39.1-.581.414-2.324.82-4.649,1.195-6.782.47-2.754.875-5.2,1.138-6.949a25.333,25.333,0,0,0,.3-2.587c0-1.942-1.5-10.124-2.237-13.6-.055-.246-.1-.47-.143-.661,0,0,8.867-19.135,9.265-19s3.836,3.964,15.791,3.964A48.624,48.624,0,0,0,80.909,139.3s7.7,11.66,9.71,16.531a4.878,4.878,0,0,1,.478,1.728c-.071,1.4-1.846,10.045-3.446,18.147-1.043,5.318-2.014,10.411-2.38,13.062-.031.239-.055.462-.071.661a4.868,4.868,0,0,0-.056,1.138c.4,1.9,17.209,55.931,16.819,56.592" transform="translate(-4.811 -27.474)" fill="#ff4824"/>
          <path id="Trazado_874092" data-name="Trazado 874092" d="M58.973,194.2c-4.672,5.77-15.3,8.183-21.626,9.129.254-1.393.509-2.841.763-4.29.04-.191.072-.39.1-.58.414-2.325.82-4.649,1.195-6.782l9.233-3.8Z" transform="translate(-7.366 -37.055)" fill="#ef3218"/>
          <path id="Trazado_874093" data-name="Trazado 874093" d="M39.877,195.3c-1.584,9.567-6.877,22.406-9.392,35.38a104.615,104.615,0,0,0-1.369,23.6c-.764-.183-1.441-.374-2.022-.55-1.7-.517-2.634-.954-2.7-1.217-.263-1.059,7.546-37.712,9-46.054.366-2.109.868-4.879,1.393-7.88.255-1.393.51-2.842.764-4.29.04-.191.071-.39.1-.581.414-2.324.82-4.648,1.194-6.782.47-2.753.876-5.2,1.138-6.949a25.421,25.421,0,0,0,.3-2.587c0-1.942-1.5-10.124-2.237-13.6,4.664,11.907,5.341,22.4,3.82,31.512" transform="translate(-4.81 -32.304)" fill="#ef3218"/>
          <path id="Trazado_874094" data-name="Trazado 874094" d="M115.829,251.217c-.135.215-1.632.915-4.418,1.767q-1.169.359-2.65.74c-1.035-9.368-4.4-35.085-8.437-46.053-4.768-12.966-7.315-13.157-4.362-24.524,2.722-10.442,4.362-15.067,8.525-23.258a4.878,4.878,0,0,1,.478,1.728c-.071,1.4-1.846,10.045-3.446,18.147-1.043,5.318-2.014,10.411-2.38,13.062-.031.239-.055.462-.071.661a4.868,4.868,0,0,0-.056,1.138c.4,1.9,17.209,55.931,16.819,56.592" transform="translate(-18.678 -31.536)" fill="#ef3218"/>
          <path id="Trazado_874095" data-name="Trazado 874095" d="M88.013,200.919c-.032.239-.055.462-.071.661-6.1,2.189-14.479,3.041-22.86,3.041-10.419,0-20.822-1.313-26.784-3.009.04-.191.071-.39.1-.581,10.706,3.072,36.128,4.919,49.612-.112" transform="translate(-7.554 -39.628)" fill="#ef3218"/>
          <path id="Trazado_874096" data-name="Trazado 874096" d="M100.55,9.034,91.643,47.073l-.144.613L88.626,59.975a7.106,7.106,0,0,0-.342-1.44c-.621-1.417-4.768-5.3-13.763-6.36a26.442,26.442,0,0,0-7,.071c-5.014.724-8.2,2.762-8.883,3.637-.238-1.449-.637-5.691-1.083-11.1-.015-.207-.031-.422-.047-.629C56.334,29.824,54.846,7.951,54.846,7c0-.771,2.714-3.2,8.032-4.982.016-.008.024-.008.039-.016.183-.056.374-.12.557-.175A39.883,39.883,0,0,1,72.35.16l.6-.048A50.344,50.344,0,0,1,78.136.032q1.3.048,2.531.167c.2.016.4.032.589.063a35.972,35.972,0,0,1,7.036,1.457c.191.055.382.12.572.183a32.346,32.346,0,0,1,5.883,2.627c.191.112.374.215.549.327a22.338,22.338,0,0,1,5.253,4.178" transform="translate(-10.817 0)" fill="#fee7d1"/>
          <path id="Trazado_874097" data-name="Trazado 874097" d="M14.425,367.711C11.646,369.3,1.853,373.4,0,376.446c0,0,19.189.264,24.219,0a60.688,60.688,0,0,0,3.823-10.391c-.083.065-.168.139-.25.2-4.368,3.308-12.969,2.514-13.367,1.455" transform="translate(0 -72.198)" fill="#ff4824"/>
          <path id="Trazado_874098" data-name="Trazado 874098" d="M145.4,376.451,130.061,367.2c-.794.794-3.706,1.324-5.8,1.317-1.6-.006-5.377-1.382-8.03-3.031a58.814,58.814,0,0,0-1.65,10.964Z" transform="translate(-22.598 -72.086)" fill="#ff4824"/>
          <path id="Trazado_874099" data-name="Trazado 874099" d="M89.119,80.6a8.436,8.436,0,0,0-.868,1.114s-.295-.222-.788-.6c-.335-.255-.764-.589-1.242-.979-2.189-1.751-5.54-4.633-6.965-6.805-.446-.677-.9-1.394-1.345-2.1-1.728-2.794-3.248-5.484-3.248-5.484A23.659,23.659,0,0,1,71.5,70.35a24.453,24.453,0,0,1-4.068,3.773,32.536,32.536,0,0,1-6.368,3.622c-.438.19-.852.358-1.226.5a21.986,21.986,0,0,1-2.2.732,3.887,3.887,0,0,0-.677-.963c-.23-4.138,1.265-8.317,2.086-9.36.971-1.233,6.885-4.768,15.887-3.709.239.024.47.055.7.087.326.048.637.1.947.144.867.143,1.679.318,2.444.509q.418.1.812.215c5.635,1.584,8.366,4.274,8.859,5.4a7.117,7.117,0,0,1,.342,1.441,26.521,26.521,0,0,1,.079,7.856" transform="translate(-11.23 -12.771)" fill="#ff4824"/>
          <path id="Trazado_874100" data-name="Trazado 874100" d="M90.606,80.015c-.9-.6-1.892.109-2.577.835a7.794,7.794,0,0,0-.864,1.106s-6.794-5.029-9-8.382-4.588-7.588-4.588-7.588a25.188,25.188,0,0,1-7.235,8.382,31.778,31.778,0,0,1-9.794,4.853,4,4,0,0,0-.673-.963c-1.235-1.3-3.158-1.352-4.179,1.492-1.235,3.441,1.853,8.206,4.852,8.735,0,0,1.853,8.911,3.088,12.176s5.912,5.029,10.411,5.205,7.5,0,9.794-2.558a7.32,7.32,0,0,0,.714-.983C82.758,98.814,85.4,90.6,85.4,90.6s2.206.97,4.589-1.324,2.205-8.205.617-9.264" transform="translate(-10.141 -13.015)" fill="#ffa581"/>
          <path id="Trazado_874101" data-name="Trazado 874101" d="M7.372,184.864c2.47-3.177,9.815-9.331,12.462-9.154,1.861.124,9.88-.4,15.236.037a35.143,35.143,0,0,0-8.024-4.735c-4.235-1.588-11.47-1.677-16.5,1.5s-6,6.355-7.059,10.5a17.377,17.377,0,0,0,.424,10.241h0c-.207-2.77,1.347-5.675,3.458-8.388" transform="translate(-0.578 -33.517)" fill="#f4c29d"/>
          <path id="Trazado_874102" data-name="Trazado 874102" d="M138.723,197.422c-.265-3.882,0-7.235-4.676-12.087s-11.646-8.117-16.675-7.588a18.076,18.076,0,0,0-10.764,5.647,17.009,17.009,0,0,0,4.5.706c3.087.177,9.793-.177,15.263,2.471s9.529,9.528,9.088,13.763c-.37,3.55-.619,6.913-5.938,7.908h0a11.986,11.986,0,0,0,5.584-2.086c2.823-1.941,3.882-4.853,3.617-8.735" transform="translate(-21.027 -35.047)" fill="#f4c29d"/>
          <path id="Trazado_874103" data-name="Trazado 874103" d="M131.3,198.65c-.367,3.55-.614,6.909-5.939,7.912a18.6,18.6,0,0,1-2.1.254c-.494.024-1.02.04-1.577.04a35.579,35.579,0,0,1-19.507-5.938c-.4-.255-.773-.518-1.138-.772-4.585-3.263-5.644-4.935-5.644-4.935s-2.116,1.146-6.351-1.767-3.446-9.09-3.446-9.09.971-7.323,2.737-11.024,2.652-4.768,3.972-3.884c.964.645-.031,5.11-.652,7.5-.215.836-.382,1.417-.4,1.5.056-.056.271-.279.605-.589l.007-.008c1.466-1.377,5.11-4.481,6.441-2.667.939,1.3-.422,2.945-.669,3.24.279-.207,1.91-1.369,2.872-.327,1,1.083-.588,2.635-.772,2.81a1.812,1.812,0,0,1,2.541.51,2.225,2.225,0,0,1,.175.3s.126.047.389.119a20.086,20.086,0,0,0,4.107.581c2.348.144,6.8-.031,11.2,1.043a21.174,21.174,0,0,1,4.068,1.433c5.468,2.643,9.527,9.527,9.083,13.762" transform="translate(-16.872 -33.363)" fill="#ffa581"/>
          <path id="Trazado_874104" data-name="Trazado 874104" d="M66.456,188.67c-.271-.466-.513-.8-.513-.8a7.394,7.394,0,0,0,.513.8" transform="translate(-13.006 -37.055)" fill="#c63c1c"/>
          <path id="Trazado_874105" data-name="Trazado 874105" d="M56.131,184.91c-.254,1.011-1.313,1.552-1.862.8a7.014,7.014,0,0,0-.478-.732,5.613,5.613,0,0,0,.478.732c.493.86,1.082,2.165.454,2.73a1.782,1.782,0,0,1-1.895.04,7.9,7.9,0,0,0-1.019-.565,6.162,6.162,0,0,0,1.019.565c.74.486,1.512,1.226.828,1.9a3.326,3.326,0,0,1-1.233.86,1.881,1.881,0,0,0-.43.024.6.6,0,0,0,.43-.024c.891.04,1.782.661.8,1.823-1.146,1.361-3.534,2.611-8.207,2.348s-5.205-3.088-5.205-3.088-.175.112-.533.3c-.152.079-.327.175-.542.286a48.865,48.865,0,0,1-6.693,2.762c-5.206,1.767-10.053,4.418-15.967,4.33a26.5,26.5,0,0,1-6.026-.708c-2.928-.741-5.022-2.07-5.643-4.06a6.087,6.087,0,0,1-.255-1.409c-.214-2.762,1.345-5.676,3.454-8.382,2.364-3.048,6.44-9.058,12.059-9.87.238-.039.478-.063.724-.079,1.862-.12,9.559.4,14.916.828,2.261.183,4,.335,4.505.382,0,0,1.146-1.321,2.555-2.642s4.433-2.388,8.667,1.584,5.509,7.689,5.094,9.265" transform="translate(-0.816 -34.094)" fill="#ffa581"/>
          <path id="Trazado_874106" data-name="Trazado 874106" d="M62.962,79.76a4.99,4.99,0,0,1,5.952-.978.313.313,0,0,1-.111.58,21.763,21.763,0,0,0-5.467.862.309.309,0,0,1-.374-.465" transform="translate(-12.405 -15.427)" fill="#ed3118"/>
          <path id="Trazado_874107" data-name="Trazado 874107" d="M80.659,78.486a5.913,5.913,0,0,1,7.37,1.413.307.307,0,0,1-.069.428.314.314,0,0,1-.318.027,12.033,12.033,0,0,0-3.317-.909c-1.068-.111-2.46-.185-3.527-.379a.318.318,0,0,1-.14-.58" transform="translate(-15.881 -15.338)" fill="#ed3118"/>
          <path id="Trazado_874108" data-name="Trazado 874108" d="M92.057,81.181c-.335-.254-.764-.589-1.242-.979-1.942-3.335-6.439-10.721-10.586-15.1.327.048.637.1.947.144,4.72,5.221,9.718,13.865,10.881,15.935" transform="translate(-15.824 -12.84)" fill="#ff6b5c"/>
          <path id="Trazado_874109" data-name="Trazado 874109" d="M93.277,79.32a.154.154,0,0,1-.063.008.3.3,0,0,1-.287-.231c-.016-.047-1.21-5.062-8.414-12.9a.282.282,0,0,1-.063-.279q.418.1.812.215c7.051,7.776,8.2,12.623,8.246,12.839a.293.293,0,0,1-.231.35" transform="translate(-16.654 -13.001)" fill="#ff6b5c"/>
          <path id="Trazado_874110" data-name="Trazado 874110" d="M71.781,68.522a90.933,90.933,0,0,1-10.013,9.87c-.438.191-.852.358-1.226.5a.3.3,0,0,1,.088-.342,87.638,87.638,0,0,0,10.7-10.411.3.3,0,0,1,.421-.032.285.285,0,0,1,.032.414" transform="translate(-11.937 -13.419)" fill="#ff6b5c"/>
          <path id="Trazado_874111" data-name="Trazado 874111" d="M58.452,78.89a.3.3,0,0,1-.094-.015.3.3,0,0,1-.189-.377c.083-.247,2.1-6.109,9.574-11.4a.3.3,0,0,1,.345.487c-7.313,5.177-9.333,11.041-9.352,11.1a.3.3,0,0,1-.283.2" transform="translate(-11.47 -13.223)" fill="#ff6b5c"/>
          <path id="Trazado_874112" data-name="Trazado 874112" d="M56.454,88.41a.3.3,0,0,1-.291-.234,13.339,13.339,0,0,0-1.639-3.934.3.3,0,0,1,.494-.336,13.742,13.742,0,0,1,1.729,4.139.3.3,0,0,1-.292.364" transform="translate(-10.744 -16.524)" fill="#ff8661"/>
          <path id="Trazado_874113" data-name="Trazado 874113" d="M95.3,92.005A.352.352,0,0,1,95.24,92,.3.3,0,0,1,95,91.65a9,9,0,0,1,2.209-4.332.3.3,0,0,1,.4.44,8.562,8.562,0,0,0-2.026,4.006.3.3,0,0,1-.292.242" transform="translate(-18.737 -17.207)" fill="#ff8661"/>
          <path id="Trazado_874114" data-name="Trazado 874114" d="M70.239,92.984a.3.3,0,0,1-.291-.37c.087-.352,2.136-8.655,3.194-10.971a.3.3,0,1,1,.543.248A103.274,103.274,0,0,0,70.638,92.32a6.954,6.954,0,0,0,3.173-1.378.3.3,0,0,1,.4.443,8.006,8.006,0,0,1-3.938,1.6.22.22,0,0,1-.032,0" transform="translate(-13.795 -16.068)" fill="#ff8661"/>
          <path id="Trazado_874115" data-name="Trazado 874115" d="M72.855,99.992a5.753,5.753,0,0,1-2.775-.743.3.3,0,0,1,.318-.5,4.553,4.553,0,0,0,5.14-.311.3.3,0,0,1,.372.466,4.8,4.8,0,0,1-3.055,1.093" transform="translate(-13.795 -19.401)" fill="#f2513b"/>
          <path id="Trazado_874116" data-name="Trazado 874116" d="M102.744,190.129c-1.8,1.759-4.067,3.08-5.859,3.08A2.583,2.583,0,0,1,95,192.485a1.389,1.389,0,0,1-.454-1.29,1.652,1.652,0,0,1,.128-.358,3.12,3.12,0,0,1-1.814.183.966.966,0,0,1-.613-.58c-.311-.8.406-1.807,1.289-2.675a4.6,4.6,0,0,1-2.428.51.9.9,0,0,1-.565-.4c-.39-.661.335-1.655,1.3-2.578a3.8,3.8,0,0,1-1.735.238,1.624,1.624,0,0,1-1.13-.685,1.651,1.651,0,0,1-.287-1.361c.311-1.561,2.5-3.049,2.945-3.335.168-.35.391-.812.637-1.3-.215.836-.382,1.417-.4,1.5.055-.055.271-.279.605-.588-.112.238-.231.485-.351.724a.253.253,0,0,1-.1.119c-.024.016-2.468,1.553-2.754,2.994a1.1,1.1,0,0,0,.191.907,1.072,1.072,0,0,0,.74.438c1.2.175,3.048-.923,3.916-1.5.191-.135.358-.246.486-.334a.294.294,0,0,1,.413.071.3.3,0,0,1-.063.414c-.032.016-.215.159-.509.358-1.959,1.4-3.694,3.1-3.383,3.621a.266.266,0,0,0,.191.128c.987.246,3.717-1.266,4.688-1.862a.3.3,0,0,1,.326.5c-1.528,1.012-3.82,2.953-3.462,3.885a.377.377,0,0,0,.246.23,4.751,4.751,0,0,0,2.627-.668,7.688,7.688,0,0,1,1.545-.82.292.292,0,0,1,.382.144.316.316,0,0,1-.112.39c-.143.079-.756.446-1.512.812a1.9,1.9,0,0,0-.844,1,.775.775,0,0,0,.295.74c1.441,1.449,4.625-.135,6.9-2.347,1.489-1.457,1.791-3.177,1.345-3.773-.246-.335-.677-.191-.995-.016a.3.3,0,0,1-.359-.056.313.313,0,0,1-.047-.358,5.542,5.542,0,0,0,.621-2.181,2.114,2.114,0,0,1,.175.3s.128.048.39.12a6.637,6.637,0,0,1-.366,1.4,1.107,1.107,0,0,1,1.067.429c.653.892.246,2.937-1.417,4.553" transform="translate(-17.484 -35.277)" fill="#ff8661"/>
          <path id="Trazado_874117" data-name="Trazado 874117" d="M47.645,194.838c-.151.079-.326.175-.541.287-.295-.939-1.138-4.418.071-10.793a.3.3,0,0,1,.589.112c-1.138,5.985-.414,9.392-.12,10.4" transform="translate(-9.18 -36.308)" fill="#ff8661"/>
          <path id="Trazado_874118" data-name="Trazado 874118" d="M61.245,176.088c1.125-3.309,3.706-3.309,5.162-.6s1.853,8.073.661,8.6-5.823-8.007-5.823-8.007" transform="translate(-12.08 -34.225)" fill="#ffa581"/>
          <path id="Trazado_874119" data-name="Trazado 874119" d="M65.284,186.239a1.2,1.2,0,0,1-1.083-.689l-2.625-5.624a1.194,1.194,0,0,1,2.163-1.011l2.626,5.624a1.194,1.194,0,0,1-1.081,1.7" transform="translate(-12.123 -35.152)" fill="#017d5c"/>
          <path id="Trazado_874120" data-name="Trazado 874120" d="M49.527,256.907a.3.3,0,0,1-.276-.185c-.033-.079-3.307-8.192-7.413-27.754a.3.3,0,1,1,.584-.123c4.091,19.5,7.349,27.572,7.381,27.651a.3.3,0,0,1-.163.389.283.283,0,0,1-.113.022" transform="translate(-8.251 -45.089)" fill="#ef3218"/>
          <path id="Trazado_874121" data-name="Trazado 874121" d="M83.236,262.774a.256.256,0,0,1-.06-.006.3.3,0,0,1-.232-.352c.02-.1,2.071-10.022,5.448-20.851a.3.3,0,1,1,.569.177c-3.368,10.8-5.413,20.694-5.433,20.793a.3.3,0,0,1-.292.238" transform="translate(-16.358 -47.604)" fill="#ef3218"/>
          <path id="Trazado_874122" data-name="Trazado 874122" d="M60.347,162.242a.3.3,0,0,1-.063-.59,79.087,79.087,0,0,0,21.745-9.134.3.3,0,1,1,.311.509,79.713,79.713,0,0,1-21.929,9.209.34.34,0,0,1-.063.006" transform="translate(-11.844 -30.073)" fill="#ef3218"/>
          <path id="Trazado_874123" data-name="Trazado 874123" d="M66.8,87.2c0,.731-.375,1.324-.838,1.324s-.838-.593-.838-1.324.375-1.324.838-1.324.838.593.838,1.324" transform="translate(-12.844 -16.938)" fill="#270407"/>
          <path id="Trazado_874124" data-name="Trazado 874124" d="M84.35,88.805c-.193.7-.711,1.178-1.158,1.055s-.651-.792-.458-1.5.711-1.178,1.158-1.056.653.793.459,1.5" transform="translate(-16.304 -17.216)" fill="#270407"/>
          <path id="Trazado_874125" data-name="Trazado 874125" d="M64.818,94.006a2.585,2.585,0,1,1-3-1.121,2.3,2.3,0,0,1,3,1.121" transform="translate(-11.825 -18.29)" fill="#ff8661"/>
          <path id="Trazado_874126" data-name="Trazado 874126" d="M90.041,95.8a2.585,2.585,0,1,1-1.677-2.729A2.3,2.3,0,0,1,90.041,95.8" transform="translate(-16.809 -18.319)" fill="#ff8661"/>
          <path id="Trazado_874127" data-name="Trazado 874127" d="M10.053,199.96c-2.929-.74-5.022-2.07-5.643-4.06a6.128,6.128,0,0,1-.254-1.409c-.215-2.762,1.345-5.675,3.454-8.381,2.364-3.049,6.44-9.058,12.059-9.87-8.875,7.625-9.894,17.877-9.616,23.719" transform="translate(-0.816 -34.761)" fill="#ff9570"/>
          <path id="Trazado_874128" data-name="Trazado 874128" d="M139.315,202.164c-.367,3.55-.614,6.909-5.939,7.912a18.593,18.593,0,0,1-2.1.254c2.459-6.16,2.332-16.388-5.11-23.361a21.173,21.173,0,0,1,4.068,1.433c5.468,2.643,9.527,9.527,9.082,13.762" transform="translate(-24.884 -36.877)" fill="#ff9570"/>
          <path id="Trazado_874129" data-name="Trazado 874129" d="M67.518,52.739c-5.014.724-8.2,2.762-8.883,3.637-.239-1.448-.637-5.691-1.083-11.1-.016-.207-.031-.422-.047-.629-1.17-14.327-2.659-36.2-2.659-37.146,0-.772,2.714-3.2,8.031-4.983.016-.008.024-.008.04-.016a163.445,163.445,0,0,0,4.6,50.24" transform="translate(-10.817 -0.493)" fill="#f4d4ba"/>
          <path id="Trazado_874130" data-name="Trazado 874130" d="M38.141,278.651c-4.345,22.477-13.435,67.322-13.531,67.806a.306.306,0,0,1-.295.239c-.015,0-.039-.008-.055-.008a.292.292,0,0,1-.23-.35c.1-.478,9.169-45.29,13.523-67.775.191.032.382.055.589.087" transform="translate(-4.738 -54.942)" fill="#f4c29d"/>
          <path id="Trazado_874131" data-name="Trazado 874131" d="M122.979,347.9c-.024,0-.048.008-.071.008a.3.3,0,0,1-.295-.223c-.12-.478-11.94-44.875-18.816-69.144.2-.032.4-.064.589-.1,6.885,24.284,18.68,68.619,18.808,69.1a.307.307,0,0,1-.215.366" transform="translate(-20.472 -54.917)" fill="#f4c29d"/>
          <path id="Trazado_874132" data-name="Trazado 874132" d="M88.364,44.76A31.626,31.626,0,0,1,92.3,47.1l-.144.613A32.876,32.876,0,0,0,75.9,41.871c-9.066-.74-15.243,1.639-17.694,2.937-.016-.206-.032-.421-.048-.629a25.57,25.57,0,0,1,5.373-1.966V2.05c.2-.064.4-.136.6-.192V42.07a34.807,34.807,0,0,1,6.249-.868L73,.186l.6-.047L70.973,41.17a42.612,42.612,0,0,1,4.975.1c.327.032.645.079.963.112L81.32.227c.2.016.4.032.589.063l-4.4,41.167a32.984,32.984,0,0,1,4.131.788l7.307-40.5c.191.055.382.12.572.183l-7.3,40.458a32.994,32.994,0,0,1,5.587,2.1L95.4,4.557c.191.112.374.214.549.327Z" transform="translate(-11.471 -0.027)" fill="#f4c29d"/>
          <path id="Trazado_874133" data-name="Trazado 874133" d="M47.727,214.088c1.522-2.768,6.027-3.369,8.356-2.5a10.706,10.706,0,0,1,5.378-4.035c3.339-.929,7.375,1.553,7.375,1.553s1.076-3.958,4-4.763a10.849,10.849,0,0,1,5.527,0s-.7-3.347,1.994-5.131a14.785,14.785,0,0,1,3.806-2.05s4.148,14.028-12.505,20.513-23.932-3.584-23.932-3.584" transform="translate(-9.413 -38.886)" fill="#fee7d1"/>
          <path id="Trazado_874134" data-name="Trazado 874134" d="M46.158,213.324a.2.2,0,0,1-.2-.194c0-.088-.214-8.938-.54-15.332a.2.2,0,0,1,.189-.21.2.2,0,0,1,.209.189c.328,6.4.539,15.254.541,15.342a.2.2,0,0,1-.194.2Z" transform="translate(-8.958 -38.971)" fill="#0eafaf"/>
          <path id="Trazado_874135" data-name="Trazado 874135" d="M52.581,216.511a.2.2,0,0,1-.2-.2c0-.19-.271-19.087-.839-22.8a.2.2,0,0,1,.393-.061c.572,3.743.832,22.078.844,22.856a.2.2,0,0,1-.2.2Z" transform="translate(-10.166 -38.122)" fill="#0eafaf"/>
          <path id="Trazado_874136" data-name="Trazado 874136" d="M60.806,218.393a.2.2,0,0,1-.2-.189c-.011-.23-1.131-22.935-1.588-28.471a.2.2,0,0,1,.4-.033c.458,5.543,1.577,28.255,1.589,28.483a.2.2,0,0,1-.189.21Z" transform="translate(-11.641 -37.379)" fill="#0eafaf"/>
          <path id="Trazado_874137" data-name="Trazado 874137" d="M68.473,217.842a.2.2,0,0,1-.2-.185c-.018-.248-1.793-24.995-1.939-30.731a.2.2,0,0,1,.193-.2.193.193,0,0,1,.2.193c.147,5.727,1.921,30.465,1.939,30.714a.2.2,0,0,1-.185.213h-.014" transform="translate(-13.083 -36.828)" fill="#0eafaf"/>
          <path id="Trazado_874138" data-name="Trazado 874138" d="M75.256,215.978a.2.2,0,0,1-.2-.193c-.007-.235-.724-23.576-.789-30.708a.2.2,0,0,1,.2-.2.217.217,0,0,1,.2.2c.065,7.128.782,30.463.789,30.7a.2.2,0,0,1-.193.206Z" transform="translate(-14.648 -36.464)" fill="#0eafaf"/>
          <path id="Trazado_874139" data-name="Trazado 874139" d="M81.6,214.06h-.009a.2.2,0,0,1-.19-.207c.01-.22.917-22.027,0-28.749a.2.2,0,0,1,.17-.225.207.207,0,0,1,.223.17c.92,6.757.011,28.6,0,28.821a.2.2,0,0,1-.2.19" transform="translate(-16.054 -36.464)" fill="#0eafaf"/>
          <path id="Trazado_874140" data-name="Trazado 874140" d="M87.931,210.156h0a.2.2,0,0,1-.2-.2c0-.2.269-20.218-.489-24.846a.2.2,0,0,1,.164-.229.2.2,0,0,1,.229.165c.763,4.662.5,24.714.495,24.916a.2.2,0,0,1-.2.2" transform="translate(-17.207 -36.464)" fill="#0eafaf"/>
          <path id="Trazado_874141" data-name="Trazado 874141" d="M59.717,221.554a.2.2,0,0,1-.122-.042c-.153-.12-15.309-11.934-19.63-15.622a.2.2,0,0,1,.258-.3c4.314,3.681,19.463,15.491,19.616,15.61a.2.2,0,0,1-.122.356" transform="translate(-7.869 -40.539)" fill="#0eafaf"/>
          <path id="Trazado_874142" data-name="Trazado 874142" d="M66.686,219.75a.2.2,0,0,1-.128-.047c-.816-.682-20.015-16.762-22.824-20.073a.2.2,0,0,1,.3-.258c2.787,3.287,22.576,19.859,22.776,20.026a.2.2,0,0,1-.128.352" transform="translate(-8.617 -39.309)" fill="#0eafaf"/>
          <path id="Trazado_874143" data-name="Trazado 874143" d="M73.394,216.771a.2.2,0,0,1-.133-.051c-7.2-6.491-23.967-21.61-24.1-21.808a.2.2,0,0,1,.32-.236c.394.416,15.891,14.4,24.047,21.749a.2.2,0,0,1-.133.347" transform="translate(-9.69 -38.382)" fill="#0eafaf"/>
          <path id="Trazado_874144" data-name="Trazado 874144" d="M80.246,212.827a.2.2,0,0,1-.134-.052L56.364,191.111a.2.2,0,1,1,.268-.294L80.38,212.481a.2.2,0,0,1-.134.346" transform="translate(-11.104 -37.625)" fill="#0eafaf"/>
          <path id="Trazado_874145" data-name="Trazado 874145" d="M85.514,207.52a.194.194,0,0,1-.132-.051l-21.278-19a.2.2,0,0,1,.266-.3l21.277,19a.2.2,0,0,1-.132.348" transform="translate(-12.63 -37.104)" fill="#0eafaf"/>
          <path id="Trazado_874146" data-name="Trazado 874146" d="M88.679,202.752a.2.2,0,0,1-.14-.057L71.69,186.126a.2.2,0,0,1,.279-.285l16.85,16.57a.2.2,0,0,1-.14.341" transform="translate(-14.128 -36.643)" fill="#0eafaf"/>
          <path id="Trazado_874147" data-name="Trazado 874147" d="M90.754,196.4a.2.2,0,0,1-.138-.056L79.067,185.219a.2.2,0,1,1,.276-.286l11.549,11.123a.2.2,0,0,1-.138.342" transform="translate(-15.583 -36.464)" fill="#0eafaf"/>
          <path id="Trazado_874148" data-name="Trazado 874148" d="M60.109,218.989c-14.218,0-20.53-13.889-20.6-14.054a.8.8,0,0,1,1.456-.643c.328.742,8.25,18.084,26.97,11.72,6.572-2.236,10.942-5.909,12.99-10.922a20.17,20.17,0,0,0-.111-14.509.8.8,0,1,1,1.422-.717,21.616,21.616,0,0,1,.163,15.829c-2.23,5.456-6.925,9.436-13.952,11.825a25.822,25.822,0,0,1-8.335,1.471" transform="translate(-7.779 -37.361)" fill="#017d5c"/>
          <path id="Trazado_874149" data-name="Trazado 874149" d="M78.65,195.271a3.134,3.134,0,0,1-.265-.305c-.048-.056-.08-.088-.136-.145v-.04c0-.257,0-.506-.008-.755-.088.1-.193.209-.3.313q-.518.542-1.132,1.084c-.2.177-.409.353-.618.53-.1.088-.2.169-.305.249-.626.514-1.3,1.011-2.015,1.5-.136.1-.273.185-.409.273-.4.273-.811.538-1.236.787-.12.08-.233.153-.353.225-.971.578-2,1.148-3.075,1.678.433-.008.875-.024,1.309-.048.313-.008.626-.024.931-.04h.04c.048,0,.088-.008.136-.008h.04c.193-.008.4-.024.594-.04s.4-.024.594-.04h.016c.225-.128.442-.257.658-.4.112-.064.225-.128.329-.2.008,0,.016-.008.024-.016l.385-.241a34.728,34.728,0,0,0,3.171-2.3c.1-.072.2-.161.305-.249.185-.153.361-.305.538-.458.136-.12.273-.241.4-.369.128-.112.257-.241.385-.369.008-.2,0-.409-.008-.61M68.126,201.26c-.008-.08-.008-.161-.016-.249-.128.064-.265.128-.393.185a.656.656,0,0,1-.153.072c-.305.153-.61.289-.923.433l1.124,1.02c-.016-.482-.032-.963-.04-1.453.136-.008.265-.008.4-.008m10.524-5.989a3.134,3.134,0,0,1-.265-.305c-.048-.056-.08-.088-.136-.145v-.04c0-.257,0-.506-.008-.755-.088.1-.193.209-.3.313q-.518.542-1.132,1.084c-.2.177-.409.353-.618.53-.1.088-.2.169-.305.249-.626.514-1.3,1.011-2.015,1.5-.136.1-.273.185-.409.273-.4.273-.811.538-1.236.787-.12.08-.233.153-.353.225-.971.578-2,1.148-3.075,1.678.433-.008.875-.024,1.309-.048.313-.008.626-.024.931-.04h.04c.048,0,.088-.008.136-.008h.04c.193-.008.4-.024.594-.04s.4-.024.594-.04h.016c.225-.128.442-.257.658-.4.112-.064.225-.128.329-.2.008,0,.016-.008.024-.016l.385-.241a34.728,34.728,0,0,0,3.171-2.3c.1-.072.2-.161.305-.249.185-.153.361-.305.538-.458.136-.12.273-.241.4-.369.128-.112.257-.241.385-.369.008-.2,0-.409-.008-.61M68.126,201.26c-.008-.08-.008-.161-.016-.249-.128.064-.265.128-.393.185a.656.656,0,0,1-.153.072c-.305.153-.61.289-.923.433l1.124,1.02c-.016-.482-.032-.963-.04-1.453.136-.008.265-.008.4-.008m10.524-5.989a3.134,3.134,0,0,1-.265-.305c-.048-.056-.08-.088-.136-.145v-.04c0-.257,0-.506-.008-.755-.088.1-.193.209-.3.313q-.518.542-1.132,1.084c-.2.177-.409.353-.618.53-.1.088-.2.169-.305.249-.626.514-1.3,1.011-2.015,1.5-.136.1-.273.185-.409.273-.4.273-.811.538-1.236.787-.12.08-.233.153-.353.225-.971.578-2,1.148-3.075,1.678.433-.008.875-.024,1.309-.048.313-.008.626-.024.931-.04h.04c.048,0,.088-.008.136-.008h.04c.193-.008.4-.024.594-.04s.4-.024.594-.04h.016c.225-.128.442-.257.658-.4.112-.064.225-.128.329-.2.008,0,.016-.008.024-.016l.385-.241a34.728,34.728,0,0,0,3.171-2.3c.1-.072.2-.161.305-.249.185-.153.361-.305.538-.458.136-.12.273-.241.4-.369.128-.112.257-.241.385-.369.008-.2,0-.409-.008-.61M68.126,201.26c-.008-.08-.008-.161-.016-.249-.128.064-.265.128-.393.185a.656.656,0,0,1-.153.072c-.305.153-.61.289-.923.433l1.124,1.02c-.016-.482-.032-.963-.04-1.453.136-.008.265-.008.4-.008m10.524-5.989a3.134,3.134,0,0,1-.265-.305c-.048-.056-.08-.088-.136-.145v-.04c0-.257,0-.506-.008-.755-.088.1-.193.209-.3.313q-.518.542-1.132,1.084c-.2.177-.409.353-.618.53-.1.088-.2.169-.305.249-.626.514-1.3,1.011-2.015,1.5-.136.1-.273.185-.409.273-.4.273-.811.538-1.236.787-.12.08-.233.153-.353.225-.971.578-2,1.148-3.075,1.678.433-.008.875-.024,1.309-.048.313-.008.626-.024.931-.04h.04c.048,0,.088-.008.136-.008h.04c.193-.008.4-.024.594-.04s.4-.024.594-.04h.016c.225-.128.442-.257.658-.4.112-.064.225-.128.329-.2.008,0,.016-.008.024-.016l.385-.241a34.728,34.728,0,0,0,3.171-2.3c.1-.072.2-.161.305-.249.185-.153.361-.305.538-.458.136-.12.273-.241.4-.369.128-.112.257-.241.385-.369.008-.2,0-.409-.008-.61m-10.54,5.74c-.128.064-.265.128-.393.185a.656.656,0,0,1-.153.072c-.305.153-.61.289-.923.433l1.124,1.02c-.016-.482-.032-.963-.04-1.453.136-.008.265-.008.4-.008-.008-.08-.008-.161-.016-.249m14.145-12.05v-.008a2.655,2.655,0,0,0-.032-.265,4.367,4.367,0,0,0-.209-.787,3.544,3.544,0,0,0-.193-.433,3.634,3.634,0,0,0-.329-.53,2.8,2.8,0,0,0-.313-.393,4.535,4.535,0,0,0-.6-.57h-.008a5.981,5.981,0,0,0-.987-.642,6.563,6.563,0,0,0-.674-.313H78.9a10.278,10.278,0,0,0-1.983-.594,18.731,18.731,0,0,0-3.749-.377,38.954,38.954,0,0,0-9.946,1.365h-.008c-.072.016-.136.032-.217.056-.329.08-.666.177-1,.273a.52.52,0,0,0-.1.032c-.731.2-1.461.425-2.2.674s-1.469.5-2.2.771c-1.718.642-3.356,1.349-4.9,2.1a43.7,43.7,0,0,0-6.711,3.974c-.193.128-.377.273-.554.409a26.361,26.361,0,0,0-2.031,1.694c-.514.474-.979.947-1.4,1.413a15.118,15.118,0,0,0-1.164,1.453c-.12.177-.241.353-.337.522a6.884,6.884,0,0,0-1.212,3.564,3.792,3.792,0,0,0,.225,1.373.591.591,0,0,0,.032.112l.024.048a.073.073,0,0,0,.024.056c.016.032.04.072.064.128s.056.12.1.2c.032.064.072.136.112.217,0,.016.016.032.024.048a4.7,4.7,0,0,0,1.5,1.5,7.845,7.845,0,0,0,1.766.851,10.9,10.9,0,0,0,1.589.434,3.352,3.352,0,0,0,.409.072,15.893,15.893,0,0,0,2.143.241,6.372,6.372,0,0,0,.682.032c.241.016.49.016.739.016.393,0,.795-.008,1.2-.032.128,0,.265-.008.4-.016a36.07,36.07,0,0,0,4.206-.49h.008c.169-.024.337-.056.506-.088.409-.072.819-.153,1.236-.241l.329-.072h.008c.016-.008.04-.008.056-.016,1.477-.329,3.01-.739,4.576-1.236.145-.04.289-.088.442-.136l.506-.169c.128-.048.265-.088.393-.136l.417-.145,1.06-.385c1.22-.458,2.416-.947,3.564-1.469.08-.04.161-.072.241-.112.056-.024.1-.048.153-.064.088-.04.169-.08.249-.112,1.108-.522,2.167-1.06,3.179-1.622.377-.209.731-.425,1.092-.634a.008.008,0,0,1,.008-.008h.016c.225-.128.442-.257.658-.4.112-.064.225-.128.329-.2.008,0,.016-.008.024-.016l.385-.241a34.728,34.728,0,0,0,3.171-2.3c.1-.072.2-.161.305-.249.185-.153.361-.305.538-.458.136-.12.273-.241.4-.369.128-.112.257-.241.385-.369.1-.088.2-.193.3-.289a16.838,16.838,0,0,0,1.469-1.67c.088-.112.161-.217.233-.321a9.971,9.971,0,0,0,.931-1.541,5.83,5.83,0,0,0,.682-2.786,2.045,2.045,0,0,0-.016-.313m-2.762,3.524c-.072.1-.144.217-.233.321a10.164,10.164,0,0,1-.634.795c-.12.136-.249.281-.385.425-.088.1-.193.209-.3.313q-.518.542-1.132,1.084c-.2.177-.409.353-.618.53-.1.088-.2.169-.305.249-.626.514-1.3,1.011-2.015,1.5-.136.1-.273.185-.409.273-.4.273-.811.538-1.236.787-.12.08-.233.153-.353.225-.971.578-2,1.148-3.075,1.678h-.048c-.225.12-.409.233-.642.345-.128.064-.265.128-.393.185a.656.656,0,0,1-.153.072c-.305.153-.61.289-.923.433-.128.056-.265.112-.4.177-.923.4-1.87.787-2.834,1.148-.345.128-.69.257-1.036.377-.136.048-.265.1-.393.128-.594.217-1.172.4-1.75.578-.153.048-.305.1-.45.136-1.132.345-2.232.634-3.291.875-.136.032-.273.064-.4.088q-1.4.313-2.7.506c-.177.024-.353.056-.53.072-.939.136-1.83.225-2.681.273-.136.008-.273.016-.4.016a20.72,20.72,0,0,1-4.1-.169c-.241-.032-.466-.072-.682-.12l-.136-.024h-.008c-.08-.016-.169-.04-.249-.056a6.558,6.558,0,0,1-2.882-1.333,2.838,2.838,0,0,1-.578-.674.061.061,0,0,1-.016-.032,1.24,1.24,0,0,1-.136-.273.809.809,0,0,1-.056-.12c-.008-.016-.008-.024-.016-.04a3.1,3.1,0,0,1-.145-.787,3.423,3.423,0,0,1,.016-.4c0-.032.008-.072.008-.1a6.41,6.41,0,0,1,1.236-2.8c.112-.169.241-.337.385-.514.177-.233.377-.474.586-.714.169-.185.337-.369.53-.554.088-.1.185-.193.281-.289.144-.145.3-.289.45-.425.12-.12.249-.241.385-.353a26.606,26.606,0,0,1,2.1-1.686c.433-.313.883-.626,1.357-.931.112-.08.225-.153.337-.225.265-.169.53-.337.811-.514.12-.072.249-.153.377-.225a46.4,46.4,0,0,1,4.158-2.2c.128-.064.265-.128.393-.185a.136.136,0,0,1,.04-.016h.008c.321-.153.642-.3.971-.442.128-.056.265-.112.393-.169.795-.337,1.614-.666,2.464-.987.554-.209,1.1-.4,1.654-.594l.433-.144c.3-.1.594-.193.883-.281h.008l.008-.008h.008c.12-.04.249-.08.369-.112.546-.169,1.092-.321,1.63-.466.979-.265,1.943-.5,2.89-.69.153-.032.313-.064.466-.088h.008c.329-.064.642-.128.955-.177l.4-.072a34.454,34.454,0,0,1,4.078-.417c.185-.008.377-.016.554-.016s.353-.008.53-.008h.225c.136,0,.273.008.4.016a16.559,16.559,0,0,1,3.1.337,8.716,8.716,0,0,1,1.284.361,1.381,1.381,0,0,1,.169.056c.08.032.161.064.233.1a3.642,3.642,0,0,1,2.184,1.959,2.785,2.785,0,0,1,.153.69v.008a5.333,5.333,0,0,1-1.18,3.323M68.126,201.26c-.008-.08-.008-.161-.016-.249-.128.064-.265.128-.393.185a.656.656,0,0,1-.153.072c-.305.153-.61.289-.923.433l1.124,1.02c-.016-.482-.032-.963-.04-1.453.136-.008.265-.008.4-.008m10.524-5.989a3.134,3.134,0,0,1-.265-.305c-.048-.056-.08-.088-.136-.145v-.04c0-.257,0-.506-.008-.755-.088.1-.193.209-.3.313q-.518.542-1.132,1.084c-.2.177-.409.353-.618.53-.1.088-.2.169-.305.249-.626.514-1.3,1.011-2.015,1.5-.136.1-.273.185-.409.273-.4.273-.811.538-1.236.787-.12.08-.233.153-.353.225-.971.578-2,1.148-3.075,1.678.433-.008.875-.024,1.309-.048.313-.008.626-.024.931-.04h.04c.048,0,.088-.008.136-.008h.04c.193-.008.4-.024.594-.04s.4-.024.594-.04h.016c.225-.128.442-.257.658-.4.112-.064.225-.128.329-.2.008,0,.016-.008.024-.016l.385-.241a34.728,34.728,0,0,0,3.171-2.3c.1-.072.2-.161.305-.249.185-.153.361-.305.538-.458.136-.12.273-.241.4-.369.128-.112.257-.241.385-.369.008-.2,0-.409-.008-.61M68.126,201.26c-.008-.08-.008-.161-.016-.249-.128.064-.265.128-.393.185a.656.656,0,0,1-.153.072c-.305.153-.61.289-.923.433l1.124,1.02c-.016-.482-.032-.963-.04-1.453.136-.008.265-.008.4-.008m10.524-5.989a3.134,3.134,0,0,1-.265-.305c-.048-.056-.08-.088-.136-.145v-.04c0-.257,0-.506-.008-.755-.088.1-.193.209-.3.313q-.518.542-1.132,1.084c-.2.177-.409.353-.618.53-.1.088-.2.169-.305.249-.626.514-1.3,1.011-2.015,1.5-.136.1-.273.185-.409.273-.4.273-.811.538-1.236.787-.12.08-.233.153-.353.225-.971.578-2,1.148-3.075,1.678.433-.008.875-.024,1.309-.048.313-.008.626-.024.931-.04h.04c.048,0,.088-.008.136-.008h.04c.193-.008.4-.024.594-.04s.4-.024.594-.04h.016c.225-.128.442-.257.658-.4.112-.064.225-.128.329-.2.008,0,.016-.008.024-.016l.385-.241a34.728,34.728,0,0,0,3.171-2.3c.1-.072.2-.161.305-.249.185-.153.361-.305.538-.458.136-.12.273-.241.4-.369.128-.112.257-.241.385-.369.008-.2,0-.409-.008-.61M68.126,201.26c-.008-.08-.008-.161-.016-.249-.128.064-.265.128-.393.185a.656.656,0,0,1-.153.072c-.305.153-.61.289-.923.433l1.124,1.02c-.016-.482-.032-.963-.04-1.453.136-.008.265-.008.4-.008m10.524-5.989a3.134,3.134,0,0,1-.265-.305c-.048-.056-.08-.088-.136-.145v-.04c0-.257,0-.506-.008-.755-.088.1-.193.209-.3.313q-.518.542-1.132,1.084c-.2.177-.409.353-.618.53-.1.088-.2.169-.305.249-.626.514-1.3,1.011-2.015,1.5-.136.1-.273.185-.409.273-.4.273-.811.538-1.236.787-.12.08-.233.153-.353.225-.971.578-2,1.148-3.075,1.678.433-.008.875-.024,1.309-.048.313-.008.626-.024.931-.04h.04c.048,0,.088-.008.136-.008h.04c.193-.008.4-.024.594-.04s.4-.024.594-.04h.016c.225-.128.442-.257.658-.4.112-.064.225-.128.329-.2.008,0,.016-.008.024-.016l.385-.241a34.728,34.728,0,0,0,3.171-2.3c.1-.072.2-.161.305-.249.185-.153.361-.305.538-.458.136-.12.273-.241.4-.369.128-.112.257-.241.385-.369.008-.2,0-.409-.008-.61" transform="translate(-7.727 -36.3)" fill="#017d5c"/>
          <path id="Trazado_874150" data-name="Trazado 874150" d="M92.5,227.777a.523.523,0,1,1-.523-.523.523.523,0,0,1,.523.523" transform="translate(-18.037 -44.822)" fill="#fee7d1"/>
          <path id="Trazado_874151" data-name="Trazado 874151" d="M76.02,244.9a.362.362,0,1,1-.362-.362.361.361,0,0,1,.362.362" transform="translate(-14.851 -48.23)" fill="#fee7d1"/>
          <path id="Trazado_874152" data-name="Trazado 874152" d="M62.219,228.85a.362.362,0,1,1-.362-.362.362.362,0,0,1,.362.362" transform="translate(-12.129 -45.066)" fill="#fee7d1"/>
          <path id="Trazado_874153" data-name="Trazado 874153" d="M64.637,202.515a.794.794,0,1,1-.794-.794.794.794,0,0,1,.794.794" transform="translate(-12.435 -39.786)" fill="#fee7d1"/>
          <path id="Trazado_874154" data-name="Trazado 874154" d="M65.145,195.741a.41.41,0,1,1-.41-.409.41.41,0,0,1,.41.409" transform="translate(-12.687 -38.526)" fill="#fee7d1"/>
          <path id="Trazado_874155" data-name="Trazado 874155" d="M70.739,198.33a.6.6,0,1,1-.6-.6.6.6,0,0,1,.6.6" transform="translate(-13.714 -38.999)" fill="#fee7d1"/>
          <path id="Trazado_874156" data-name="Trazado 874156" d="M72.66,192.029a.1.1,0,1,1-.1-.1.1.1,0,0,1,.1.1" transform="translate(-14.292 -37.855)" fill="#fee7d1"/>
          <path id="Trazado_874157" data-name="Trazado 874157" d="M78.1,196.623a.457.457,0,1,1-.457-.457.457.457,0,0,1,.457.457" transform="translate(-15.224 -38.691)" fill="#fee7d1"/>
          <path id="Trazado_874158" data-name="Trazado 874158" d="M77.162,201.958a.375.375,0,1,1-.375-.375.375.375,0,0,1,.375.375" transform="translate(-15.071 -39.759)" fill="#fee7d1"/>
          <path id="Trazado_874159" data-name="Trazado 874159" d="M49.892,226.145a.375.375,0,1,1-.375-.375.375.375,0,0,1,.375.375" transform="translate(-9.692 -44.53)" fill="#fee7d1"/>
          <path id="Trazado_874160" data-name="Trazado 874160" d="M85.824,223.842a.375.375,0,1,1-.375-.375.375.375,0,0,1,.375.375" transform="translate(-16.779 -44.075)" fill="#fee7d1"/>
          <path id="Trazado_874161" data-name="Trazado 874161" d="M73.126,209.278a.553.553,0,1,1-.553-.553.554.554,0,0,1,.553.553" transform="translate(-14.205 -41.168)" fill="#fee7d1"/>
          <path id="Trazado_874162" data-name="Trazado 874162" d="M85.049,195.669a.7.7,0,1,1-.7-.7.7.7,0,0,1,.7.7" transform="translate(-16.496 -38.454)" fill="#fee7d1"/>
          <path id="Trazado_874163" data-name="Trazado 874163" d="M80.144,232.857a.705.705,0,1,1-.706-.7.705.705,0,0,1,.706.7" transform="translate(-15.529 -45.788)" fill="#fee7d1"/>
          <path id="Trazado_874164" data-name="Trazado 874164" d="M63.993,242.3a1.253,1.253,0,1,1-1.252-1.252,1.253,1.253,0,0,1,1.252,1.252" transform="translate(-12.128 -47.543)" fill="#fee7d1"/>
          <path id="Trazado_874165" data-name="Trazado 874165" d="M65.145,206.82a.41.41,0,1,1-.41-.409.41.41,0,0,1,.41.409" transform="translate(-12.687 -40.711)" fill="#fee7d1"/>
          <path id="Trazado_874166" data-name="Trazado 874166" d="M90.768,218.623a.41.41,0,1,1-.409-.409.41.41,0,0,1,.409.409" transform="translate(-17.741 -43.039)" fill="#fee7d1"/>
          <path id="Trazado_874167" data-name="Trazado 874167" d="M54.239,203.592a.857.857,0,1,1-.857-.857.857.857,0,0,1,.857.857" transform="translate(-10.36 -39.986)" fill="#fee7d1"/>
          <path id="Trazado_874168" data-name="Trazado 874168" d="M49.42,208.63a.387.387,0,1,1-.388-.387.388.388,0,0,1,.388.387" transform="translate(-9.594 -41.073)" fill="#fee7d1"/>
          <path id="Trazado_874169" data-name="Trazado 874169" d="M70.939,235.665a.387.387,0,1,1-.387-.387.387.387,0,0,1,.387.387" transform="translate(-13.839 -46.405)" fill="#fee7d1"/>
          <path id="Trazado_874170" data-name="Trazado 874170" d="M54.045,209.955a.6.6,0,1,1-.6-.6.6.6,0,0,1,.6.6" transform="translate(-10.423 -41.292)" fill="#fee7d1"/>
          <path id="Trazado_874171" data-name="Trazado 874171" d="M71.688,227.791a.464.464,0,1,1-.463-.463.463.463,0,0,1,.463.463" transform="translate(-13.956 -44.837)" fill="#fee7d1"/>
          <path id="Trazado_874172" data-name="Trazado 874172" d="M50.426,236.877a.464.464,0,1,1-.463-.463.463.463,0,0,1,.463.463" transform="translate(-9.763 -46.629)" fill="#fee7d1"/>
          <path id="Trazado_874173" data-name="Trazado 874173" d="M61.756,208.63a.387.387,0,1,1-.387-.387.387.387,0,0,1,.387.387" transform="translate(-12.028 -41.073)" fill="#fee7d1"/>
          <path id="Trazado_874174" data-name="Trazado 874174" d="M48.524,214.321a.6.6,0,1,1-.6-.6.6.6,0,0,1,.6.6" transform="translate(-9.334 -42.153)" fill="#fee7d1"/>
          <path id="Trazado_874175" data-name="Trazado 874175" d="M72.227,202.323a.79.79,0,1,1-.79-.79.79.79,0,0,1,.79.79" transform="translate(-13.934 -39.749)" fill="#fee7d1"/>
          <path id="Trazado_874176" data-name="Trazado 874176" d="M64.021,130.789a.562.562,0,1,1-.563-.563.563.563,0,0,1,.563.563" transform="translate(-12.405 -25.685)" fill="#270407"/>
          <path id="Trazado_874177" data-name="Trazado 874177" d="M60.473,141.629a.562.562,0,1,1-.563-.563.563.563,0,0,1,.563.563" transform="translate(-11.705 -27.823)" fill="#270407"/>
          <path id="Trazado_874178" data-name="Trazado 874178" d="M104.6,205.557c-.4-.254-.772-.518-1.138-.772-4.585-3.263-5.643-4.935-5.643-4.935a23.248,23.248,0,0,0,6.71-7.179c-1.019,1.878-3.71,7.84.071,12.886" transform="translate(-19.293 -38.001)" fill="#ff9570"/>
        </g>
      </g>
    </g>
    <g id="Grupo_1100022" data-name="Grupo 1100022">
      <circle id="Elipse_11525" data-name="Elipse 11525" cx="36" cy="36" r="36" transform="translate(340.051 1337)" fill="#e2dacc"/>
      <g id="Grupo_1100021" data-name="Grupo 1100021" transform="translate(-2318.09 11530.588)">
        <g id="nutricion-saludable" transform="translate(2671.14 -10180.588)">
          <path id="Trazado_875392" data-name="Trazado 875392" d="M2926.61,566.221h-2.217a.6.6,0,0,0-.6.6v5.917a.583.583,0,0,1-.072.282l3.555,2.649v-9.608a.743.743,0,0,0-.082-.34A.589.589,0,0,1,2926.61,566.221Z" transform="translate(-2885.915 -565.046)" fill="#a0f2f4"/>
          <path id="Trazado_875393" data-name="Trazado 875393" d="M2873.808,542.218a.754.754,0,0,0-.444.44A1.8,1.8,0,0,1,2873.808,542.218Z" transform="translate(-2836.342 -541.905)" fill="#a0f2f4"/>
          <path id="Trazado_875394" data-name="Trazado 875394" d="M2871.153,546.694v-5.917a.6.6,0,0,1,.6-.6h2.216a.589.589,0,0,0,.582-.5.751.751,0,0,0-.669-.411H2871a.747.747,0,0,0-.258.046,1.8,1.8,0,0,0-.444.44.754.754,0,0,0-.048.265v6.341l.83.618A.589.589,0,0,0,2871.153,546.694Z" transform="translate(-2833.277 -538.998)" fill="#fff"/>
          <path id="Trazado_875395" data-name="Trazado 875395" d="M875.3,633.279l-.155-.116a.883.883,0,0,1-1.4.6l-19.894-14.827-20.06,15.025v1.358h2.021a1.448,1.448,0,0,1,1.446,1.446v6.93a.883.883,0,0,1-1.069.864v7.795a3.4,3.4,0,0,1,.735-.062v-6.195h0a.439.439,0,0,1,.066-.232h0l3.538-5.726v-1.618a1.351,1.351,0,0,1,1.35-1.35h.9a4.036,4.036,0,0,0,.929-.845c.38-.412.7-.806.7-.81l.008-.01a4.785,4.785,0,0,0,1.165-3.111,1.21,1.21,0,0,1,1.074-1.194l2.825-.34a39.557,39.557,0,0,1,9.441,0l2.825.34a1.225,1.225,0,0,1,.769.4,1.2,1.2,0,0,1,.305.8,5,5,0,0,0,4.313,4.855,1.2,1.2,0,0,1,1.018,1.3,34.794,34.794,0,0,1-1.347,6.572,25.29,25.29,0,0,1-6.246,10.414,34,34,0,0,1-5.076,4.2l-.03.019a2.774,2.774,0,0,1-1.4.374,3.218,3.218,0,0,1-.678-.075,5.1,5.1,0,0,1-1.218-.454v3.356a1.263,1.263,0,0,1-.059.384h18.565a.451.451,0,0,0,.407-.484V637.482a1.031,1.031,0,0,1,.071-.376v-.233h.127a1.037,1.037,0,0,1,.84-.429h3.107a.154.154,0,0,0,.154-.154V633.4A.155.155,0,0,0,875.3,633.279Z" transform="translate(-828.416 -617.429)" fill="#a0f2f4"/>
          <path id="Trazado_875396" data-name="Trazado 875396" d="M2117.36,3196.6a1.951,1.951,0,0,0,1.289-.222l.112-.078c-.084.036-.167.072-.252.106A2.608,2.608,0,0,1,2117.36,3196.6Z" transform="translate(-2092.068 -3154.806)" fill="#a0f2f4"/>
          <path id="Trazado_875397" data-name="Trazado 875397" d="M1575.1,1521.677l.145.075a4.6,4.6,0,0,0,1.407.539,2.611,2.611,0,0,0,1.148-.194l.253-.105c7.483-5.173,11.124-11.3,12.163-20.466a.314.314,0,0,0-.284-.331,6.182,6.182,0,0,1-3.6-1.957,5.737,5.737,0,0,1-1.068-1.724,5.552,5.552,0,0,1-.34-1.312.734.734,0,0,1-.266.017l-2.825-.34a38.4,38.4,0,0,0-9.148,0l-2.224.338-.023,0c-.027,0-.037.016-.037.023,0,1.415-1.231,2.812-2.129,3.832l-.145.165h1.974a1.351,1.351,0,0,1,1.35,1.35v1.618l3.459,5.6a.441.441,0,0,1,.188.361Zm2.855-3.021a23.116,23.116,0,0,0,9.243-15.437,8.611,8.611,0,0,1-4.859-5.866.442.442,0,1,1,.861-.2,7.74,7.74,0,0,0,4.657,5.387.442.442,0,0,1,.27.479,25.807,25.807,0,0,1-3.16,9.2,25.036,25.036,0,0,1-6.472,7.138.442.442,0,1,1-.54-.7Z" transform="translate(-1551.357 -1480.497)" fill="#8eed8e"/>
          <g id="Grupo_1100020" data-name="Grupo 1100020" transform="translate(4.064 0)">
            <path id="Trazado_875398" data-name="Trazado 875398" d="M1557.221,2414.734h5.872a.384.384,0,0,0,.384-.383v-16.424h-6.256Z" transform="translate(-1544.684 -2368.819)" fill="#fff"/>
            <path id="Trazado_875399" data-name="Trazado 875399" d="M1089.553,2403.836a3.717,3.717,0,0,1,1.835,1.244,4.205,4.205,0,0,1,.714,1.35,5.764,5.764,0,0,1,.258,1.762,10.177,10.177,0,0,1-.255,2.238,8.843,8.843,0,0,1-.807,2.2,6.032,6.032,0,0,1-1.794,2.106h6.374v-16.808h-6.325Z" transform="translate(-1084.225 -2368.819)" fill="#fff"/>
            <path id="Trazado_875400" data-name="Trazado 875400" d="M1502.823,1427.983c0-.007.01-.02.037-.023l.023,0,2.224-.338a38.4,38.4,0,0,1,9.148,0l2.825.34a.74.74,0,0,0,.266-.017,5.571,5.571,0,0,1-.049-.733.327.327,0,0,0-.3-.324l-2.825-.339a38.669,38.669,0,0,0-9.23,0l-2.825.339a.323.323,0,0,0-.3.316,5.579,5.579,0,0,1-.366,1.994,5.733,5.733,0,0,1-1.007,1.688c-.045.055-.4.488-.81.929l-.158.166h1.065l.145-.165C1501.593,1430.795,1502.823,1429.4,1502.823,1427.983Z" transform="translate(-1487.843 -1412.239)" fill="#fff"/>
            <path id="Trazado_875401" data-name="Trazado 875401" d="M754.028,548.281v-6.93a1.447,1.447,0,0,0-1.446-1.446h-2.021v-1.358l20.059-15.025,19.894,14.827a.884.884,0,0,0,1.4-.6l-5.2-3.873,0,0-5.266-3.924,0,0L770.9,522.088a.348.348,0,0,0-.421,0l-21.171,15.779a.155.155,0,0,0-.062.124v2.887a.154.154,0,0,0,.154.154h2.518a1.039,1.039,0,0,1,1.038,1.038v7.075a.884.884,0,0,0,1.069-.864Z" transform="translate(-749.25 -522.017)" fill="#fff"/>
          </g>
          <path id="Trazado_875402" data-name="Trazado 875402" d="M562.587,2848.032a3.465,3.465,0,0,0-1.725-3.332.589.589,0,0,1-.675.449,2.316,2.316,0,0,0-1.41.418,3.263,3.263,0,0,1-1.512.505,4.657,4.657,0,0,1-1.425-.306,3.458,3.458,0,0,0-1.644-.267c-1.152.2-1.918.808-1.918,3.13a8.031,8.031,0,0,0,1.48,4.789.588.588,0,0,1,.105.509,4.014,4.014,0,0,0,1.373.588,1.647,1.647,0,0,0,1.225-.133l.26-.138a.445.445,0,0,1,.413,0l.259.137h0a1.647,1.647,0,0,0,1.225.133C561.346,2853.912,562.587,2850.731,562.587,2848.032Zm-3.044,4.375a.442.442,0,0,1-.343-.72,6.15,6.15,0,0,0,1.1-3.655c0-.323-.049-1.385-.686-1.5a.442.442,0,1,1,.151-.87,1.565,1.565,0,0,1,1.222,1.114,3.771,3.771,0,0,1,.2,1.252,6.972,6.972,0,0,1-1.3,4.212A.441.441,0,0,1,559.543,2852.407Z" transform="translate(-551.272 -2808.66)" fill="#ff7d79"/>
          <path id="Trazado_875403" data-name="Trazado 875403" d="M1115.225,2052.265h5.624l-2.812-4.55Z" transform="translate(-1105.483 -2024.041)" fill="#fff"/>
          <path id="Trazado_875404" data-name="Trazado 875404" d="M1353.579,2022.026h-6.059l3.058,4.949h6.059Z" transform="translate(-1334.173 -1998.751)" fill="#fff"/>
          <path id="Trazado_875405" data-name="Trazado 875405" d="M1331.141,1851.635a.467.467,0,0,0-.466-.466h-5.281a.467.467,0,0,0-.466.466v1.3h6.214Z" transform="translate(-1311.931 -1830.545)" fill="#fff"/>
          <path id="Trazado_875406" data-name="Trazado 875406" d="M489.852,2834.576a8.03,8.03,0,0,1-1.48-4.789c0-2.322.767-2.931,1.918-3.13a3.452,3.452,0,0,1,1.644.266,4.658,4.658,0,0,0,1.425.306,3.265,3.265,0,0,0,1.512-.505,2.312,2.312,0,0,1,1.41-.418.589.589,0,0,0,.675-.449,3.068,3.068,0,0,0-.839-.269,3.612,3.612,0,0,0-1.715.272,4.568,4.568,0,0,1-1.375.3h-.006a4.549,4.549,0,0,1-1.378-.3,3.619,3.619,0,0,0-1.715-.272c-1.605.278-2.564,1.624-2.564,3.6,0,2.2.821,4.709,2.593,5.9A.588.588,0,0,0,489.852,2834.576Z" transform="translate(-487.364 -2789.817)" fill="#fff"/>
          <path id="Trazado_875407" data-name="Trazado 875407" d="M2190.7,1596.119a.441.441,0,0,0,.27-.092,25.033,25.033,0,0,0,6.471-7.138,25.8,25.8,0,0,0,3.16-9.2.441.441,0,0,0-.269-.479,7.74,7.74,0,0,1-4.656-5.387.442.442,0,0,0-.861.2,8.611,8.611,0,0,0,4.859,5.866,23.116,23.116,0,0,1-9.243,15.437.442.442,0,0,0,.27.792Z" transform="translate(-2163.84 -1557.168)" fill="#2f7b2f"/>
        </g>
      </g>
    </g>
  </g>
</svg>
