<svg id="Grupo_1099625" data-name="Grupo 1099625" xmlns="http://www.w3.org/2000/svg" width="89" height="89" viewBox="0 0 89 89">
  <g id="Grupo_1098742" data-name="Grupo 1098742">
    <g id="Rectángulo_400898" data-name="Rectángulo 400898" fill="#1d3fbb" stroke="#fff" stroke-width="3" opacity="0.859">
      <rect width="89" height="89" rx="44.5" stroke="none"/>
      <rect x="1.5" y="1.5" width="86" height="86" rx="43" fill="none"/>
    </g>
    <rect id="Rectángulo_400907" data-name="Rectángulo 400907" width="89" height="89" rx="44.5" transform="translate(0)" fill="#3b7770"/>
  </g>
  <g id="panadero" transform="translate(-7 -7)">
    <path id="Trazado_875570" data-name="Trazado 875570" d="M279.593,48h-3.8a4.583,4.583,0,0,0-3.241,1.342L272,49.9l.556.556A4.583,4.583,0,0,0,275.8,51.8h3.8Z" transform="translate(-218.576 -21.153)" fill="#ffb401"/>
    <path id="Trazado_875571" data-name="Trazado 875571" d="M347.932,108.2h-1.9V64.542A6.652,6.652,0,0,0,339.39,57.9H328V56h11.39a8.552,8.552,0,0,1,8.542,8.542Z" transform="translate(-267.932 -28.203)" fill="#f78e00"/>
    <path id="Trazado_875572" data-name="Trazado 875572" d="M232.542,440l1.9,1.9v3.8H224V440Z" transform="translate(-176.271 -366.644)" fill="#ffceb6"/>
    <path id="Trazado_875573" data-name="Trazado 875573" d="M113.085,25.9,104.542,24,96,25.9v6.644h17.085Z" transform="translate(-63.458 0)" fill="#e0edff"/>
    <path id="Trazado_875574" data-name="Trazado 875574" d="M82.737,112.136l-2.524-1.577a7.593,7.593,0,0,1-3.179-8.84L78.94,96H96.025l1.906,5.718a7.593,7.593,0,0,1-3.179,8.84l-2.523,1.577Z" transform="translate(-46.398 -63.458)" fill="#b1712c"/>
    <path id="Trazado_875575" data-name="Trazado 875575" d="M129.406,196.454,128,200.671l4.746,3.8,4.746-3.8-1.406-4.217Z" transform="translate(-91.661 -151.993)" fill="#ffbfa1"/>
    <path id="Trazado_875576" data-name="Trazado 875576" d="M49.627,250.034l8.542-3.8-3.245-8.924a3.8,3.8,0,0,0-2.026-2.172L45.831,232l-2.847.949-1.9,2.847-1.9-2.847L36.339,232l-7.132,3.17a3.8,3.8,0,0,0-1.983,2.059L24,245.288l8.542,5.695v11.39H49.627Z" transform="translate(0 -183.322)" fill="#e0edff"/>
    <path id="Trazado_875577" data-name="Trazado 875577" d="M144.59,309.636l-5.191-7.787a2.816,2.816,0,0,1,1.084-4.08h0a2.816,2.816,0,0,1,3.911,1.571l3.677,10.3Z" transform="translate(-101.291 -241.026)" fill="#e3a15b"/>
    <path id="Trazado_875578" data-name="Trazado 875578" d="M246.644,367.566l-1.092-4.366L240,365.668v1.9Z" transform="translate(-190.373 -298.956)" fill="#ffceb6"/>
    <rect id="Rectángulo_401613" data-name="Rectángulo 401613" width="14.602" height="38.938" rx="7.301" transform="translate(60.852 39.992)" fill="#f5b97d"/>
    <path id="Trazado_875579" data-name="Trazado 875579" d="M360,228.746l1.189-1.981A5.7,5.7,0,0,1,366.072,224h2.471l-.466,1.166a5.7,5.7,0,0,1-5.288,3.58Z" transform="translate(-296.136 -176.271)" fill="#e6a565"/>
    <path id="Trazado_875580" data-name="Trazado 875580" d="M360,300.746l1.189-1.981A5.7,5.7,0,0,1,366.072,296h2.471l-.466,1.166a5.7,5.7,0,0,1-5.288,3.58Z" transform="translate(-296.136 -239.729)" fill="#e6a565"/>
    <path id="Trazado_875581" data-name="Trazado 875581" d="M360,372.746l1.189-1.981A5.7,5.7,0,0,1,366.072,368h2.471l-.466,1.166a5.7,5.7,0,0,1-5.288,3.58Z" transform="translate(-296.136 -303.186)" fill="#e6a565"/>
    <g id="Grupo_1100058" data-name="Grupo 1100058" transform="translate(56.544 24)">
      <path id="Trazado_875582" data-name="Trazado 875582" d="M304,68.746V67.241A3.241,3.241,0,0,1,307.241,64h1.505v1.505a3.241,3.241,0,0,1-3.241,3.241Z" transform="translate(-303.324 -59.254)" fill="#ffc431"/>
      <path id="Trazado_875583" data-name="Trazado 875583" d="M344,68.746V67.241A3.241,3.241,0,0,1,347.241,64h1.505v1.505a3.241,3.241,0,0,1-3.241,3.241Z" transform="translate(-338.578 -59.254)" fill="#ffc431"/>
      <path id="Trazado_875584" data-name="Trazado 875584" d="M384,68.746V67.241A3.241,3.241,0,0,1,387.241,64h1.505v1.505a3.241,3.241,0,0,1-3.241,3.241Z" transform="translate(-373.832 -59.254)" fill="#ffc431"/>
      <path id="Trazado_875585" data-name="Trazado 875585" d="M304,24v1.505a3.241,3.241,0,0,0,3.241,3.241h1.505V27.241A3.241,3.241,0,0,0,305.505,24Z" transform="translate(-303.324 -24)" fill="#ffc431"/>
      <path id="Trazado_875586" data-name="Trazado 875586" d="M344,24v1.505a3.241,3.241,0,0,0,3.241,3.241h1.505V27.241A3.241,3.241,0,0,0,345.505,24Z" transform="translate(-338.578 -24)" fill="#ffc431"/>
      <path id="Trazado_875587" data-name="Trazado 875587" d="M384,24v1.505a3.241,3.241,0,0,0,3.241,3.241h1.505V27.241A3.241,3.241,0,0,0,385.505,24Z" transform="translate(-373.832 -24)" fill="#ffc431"/>
      <path id="Trazado_875588" data-name="Trazado 875588" d="M0,0H2.685V1.9H0Z" transform="translate(0 14.519) rotate(-45)" fill="#ffc431"/>
    </g>
    <path id="Trazado_875589" data-name="Trazado 875589" d="M0,0H1.9V2.122H0Z" transform="translate(62.476 37.203) rotate(-63.435)" fill="#f78e00"/>
    <path id="Trazado_875590" data-name="Trazado 875590" d="M0,0H3.422V1.9H0Z" transform="matrix(0.832, -0.555, 0.555, 0.832, 69.984, 36.483)" fill="#ffc431"/>
    <path id="Trazado_875591" data-name="Trazado 875591" d="M0,0H1.9V2.122H0Z" transform="translate(74.379 38.666) rotate(-26.565)" fill="#ffb401"/>
    <path id="Trazado_875592" data-name="Trazado 875592" d="M0,0H1.9V2.685H0Z" transform="translate(54.645 42.707) rotate(-45)" fill="#ffb401"/>
    <path id="Trazado_875593" data-name="Trazado 875593" d="M0,0H2.122V1.9H0Z" transform="translate(52.98 46.878) rotate(-26.565)" fill="#ffc431"/>
    <path id="Trazado_875594" data-name="Trazado 875594" d="M0,0H1.9V2.122H0Z" transform="translate(52.987 35.301) rotate(-63.435)" fill="#ffb401"/>
    <path id="Trazado_875595" data-name="Trazado 875595" d="M32,349.333v7.91l4.746,1.9,6.644-3.8h6.644v-1.9a4.985,4.985,0,0,0-3.91-3.341l-2.734-.456L36.746,352.5Z" transform="translate(-7.051 -286.734)" fill="#ffceb6"/>
    <path id="Trazado_875596" data-name="Trazado 875596" d="M128,400h20.881v1.9a8.542,8.542,0,0,1-8.542,8.542h-3.8A8.542,8.542,0,0,1,128,401.9Z" transform="translate(-91.661 -331.39)" fill="#8098ab"/>
    <path id="Trazado_875597" data-name="Trazado 875597" d="M121.492,96a8.748,8.748,0,0,0,3.447,4.512l.35.233v2.847a6.644,6.644,0,0,1-6.644,6.644h0A6.644,6.644,0,0,1,112,103.593v-2.847l.35-.233A8.748,8.748,0,0,0,115.8,96Z" transform="translate(-77.559 -63.458)" fill="#ffceb6"/>
    <ellipse id="Elipse_11535" data-name="Elipse 11535" cx="1.043" cy="0.695" rx="1.043" ry="0.695" transform="translate(37.211 36.516)" fill="#a36522"/>
    <ellipse id="Elipse_11536" data-name="Elipse 11536" cx="1.043" cy="0.695" rx="1.043" ry="0.695" transform="translate(42.774 36.516)" fill="#a36522"/>
    <path id="Trazado_875598" data-name="Trazado 875598" d="M152.949,155.8H152v-1.9h.949a.95.95,0,0,0,.949-.949V152h1.9v.949a2.851,2.851,0,0,1-2.847,2.847Z" transform="translate(-112.814 -112.814)" fill="#c78869"/>
  </g>
</svg>
