<svg xmlns="http://www.w3.org/2000/svg" width="89" height="89" viewBox="0 0 89 89">
  <g id="Grupo_1099601" data-name="Grupo 1099601" transform="translate(-1251.396 -413.337)">
    <g id="Grupo_1098742" data-name="Grupo 1098742" transform="translate(48.076 24.595)">
      <g id="Rectángulo_400898" data-name="Rectángulo 400898" transform="translate(1203.32 388.742)" fill="#fff" stroke="#fff" stroke-width="3" opacity="0.859">
        <rect width="89" height="89" rx="44.5" stroke="none"/>
        <rect x="1.5" y="1.5" width="86" height="86" rx="43" fill="none"/>
      </g>
      <path id="Trazado_873661" data-name="Trazado 873661" d="M44.5,0A44.5,44.5,0,1,1,0,44.5,44.5,44.5,0,0,1,44.5,0Z" transform="translate(1203.32 388.742)" fill="#e2dacc"/>
    </g>
    <g id="natural" transform="translate(1252.078 428.337)">
      <path id="Trazado_873982" data-name="Trazado 873982" d="M152.523,96.307c-2.089-1.207-9.936,1.675-13.893,8.528a19.266,19.266,0,0,0-2.5,9.167l7.4,1.649L151.183,114c.316-.449.62-.913.9-1.4,3.958-6.853,2.528-15.087.439-16.295Z" transform="translate(-106.169 -85.103)" fill="#95d6a4" fill-rule="evenodd"/>
      <path id="Trazado_873983" data-name="Trazado 873983" d="M247.5,96.317a4.348,4.348,0,0,0-2.934-.045,3.985,3.985,0,0,1,1.5,2.282,17.372,17.372,0,0,1,.194,8.7,18.613,18.613,0,0,1-2.05,5.358c-.281.488-.584.952-.9,1.4h2.847c.316-.449.62-.913.9-1.4C251.017,105.759,249.587,97.524,247.5,96.317Z" transform="translate(-201.145 -85.112)" fill="#78c2a4" fill-rule="evenodd"/>
      <path id="Trazado_873984" data-name="Trazado 873984" d="M42.487,96.307c2.089-1.207,9.933,1.675,13.89,8.528a19.237,19.237,0,0,1,2.5,9.167L51.4,115.055,43.827,114c-.32-.449-.62-.913-.9-1.4C38.968,105.749,40.4,97.514,42.487,96.307Z" transform="translate(-21.359 -85.103)" fill="#95d6a4" fill-rule="evenodd"/>
      <path id="Trazado_873985" data-name="Trazado 873985" d="M59.312,96.275c2.211-1.081,9.9,1.811,13.8,8.573a19.237,19.237,0,0,1,2.5,9.167H72.769a19.233,19.233,0,0,0-2.5-9.167,18.714,18.714,0,0,0-10.956-8.573Z" transform="translate(-38.097 -85.115)" fill="#78c2a4" fill-rule="evenodd"/>
      <path id="Trazado_873986" data-name="Trazado 873986" d="M75.485,134.8a.852.852,0,1,1,1.482-.843l1.536,2.7.762-1.588a.85.85,0,0,1,1.533.733l-1.269,2.65c1.5,2.634,3.46,6.056,5.013,8.774l-.946.213-1.017-.213L80.337,143.3H76.608a.855.855,0,1,1,0-1.711h2.753Z" transform="translate(-52.33 -118.325)" fill="#64aa91"/>
      <g id="Grupo_1099791" data-name="Grupo 1099791" transform="translate(16.319 0)">
        <path id="Trazado_873987" data-name="Trazado 873987" d="M70.841,251.421a27.265,27.265,0,0,1-13.16,22.4c-.733.442-.817.5-.817,1.385v1.117a3.561,3.561,0,0,1-3.551,3.551H33.852a3.561,3.561,0,0,1-3.551-3.551v-1.117c-.007-.83-.116-.962-.817-1.385a27.272,27.272,0,0,1-13.16-22.409c-.029-.855.032-.949.894-.943H51.99l5.152-.426,4.984.426h7.818C70.822,250.472,70.867,250.549,70.841,251.421Z" transform="translate(-16.319 -221.572)" fill="#80b4fb" fill-rule="evenodd"/>
        <path id="Trazado_873988" data-name="Trazado 873988" d="M336.566,254.737a27.265,27.265,0,0,1-13.16,22.4c-.733.442-.817.5-.817,1.385v1.117a3.561,3.561,0,0,1-3.551,3.551h-2.847a3.561,3.561,0,0,0,3.551-3.551v-1.117c0-.884.084-.943.817-1.385a27.265,27.265,0,0,0,13.16-22.4c.026-.872-.019-.949-.9-.949h2.847c.878,0,.923.077.9.949Z" transform="translate(-282.043 -224.888)" fill="#61a2f9" fill-rule="evenodd"/>
        <path id="Trazado_873989" data-name="Trazado 873989" d="M74.251,300.249a27.141,27.141,0,0,1-5.3,11.537H26.028a27.179,27.179,0,0,1-5.3-11.537Z" transform="translate(-20.229 -266.059)" fill="#cbe2ff" fill-rule="evenodd"/>
        <path id="Trazado_873990" data-name="Trazado 873990" d="M427.373,300.249a27.141,27.141,0,0,1-5.3,11.537h-2.844a27.179,27.179,0,0,0,5.3-11.537Z" transform="translate(-373.351 -266.059)" fill="#9dc6fb" fill-rule="evenodd"/>
        <path id="Trazado_873991" data-name="Trazado 873991" d="M97.478,332.252a2.124,2.124,0,1,1-2.124,2.124A2.124,2.124,0,0,1,97.478,332.252Zm9.106,0a2.124,2.124,0,1,1-2.124,2.124A2.127,2.127,0,0,1,106.584,332.252Zm-27.318,0a2.124,2.124,0,1,1-2.124,2.124A2.124,2.124,0,0,1,79.266,332.252Zm36.424,0a2.124,2.124,0,1,1-2.124,2.124A2.126,2.126,0,0,1,115.69,332.252Zm-27.318,0a2.124,2.124,0,1,1-2.124,2.124A2.124,2.124,0,0,1,88.372,332.252Z" transform="translate(-70.216 -294.417)" fill="#80b4fb" fill-rule="evenodd"/>
        <path id="Trazado_873992" data-name="Trazado 873992" d="M335.805,9.965a127.447,127.447,0,0,0-5.7,16.879q-.276,1.036-.536,2.056h10.136a126.063,126.063,0,0,0,3.38-16.989c.087-.778.258-.878,1.01-.694a2.828,2.828,0,0,0,3.4-2.008l.891-3.322a2.83,2.83,0,0,0-2-3.457L337.68.1a2.823,2.823,0,0,0-3.454,1.995l-.891,3.322a2.829,2.829,0,0,0,1.94,3.441C336.073,9.084,336.138,9.19,335.805,9.965Z" transform="translate(-293.901 0)" fill="#dddaeb" fill-rule="evenodd"/>
        <path id="Trazado_873993" data-name="Trazado 873993" d="M393.578,43.191h2.847A126.063,126.063,0,0,0,399.8,26.2c.087-.778.258-.878,1.01-.694a2.828,2.828,0,0,0,3.4-2.008l.891-3.322a2.831,2.831,0,0,0-2-3.457l-2.224-.594a2.958,2.958,0,0,1,1.372,3.309l-.891,3.431a2.825,2.825,0,0,1-3.4,2.072c-.752-.194-.923-.09-1.01.713A133.741,133.741,0,0,1,393.578,43.191Z" transform="translate(-350.618 -14.291)" fill="#d2cee7" fill-rule="evenodd"/>
      </g>
    </g>
  </g>
</svg>
