<svg id="Grupo_1099622" data-name="Grupo 1099622" xmlns="http://www.w3.org/2000/svg" width="89" height="89" viewBox="0 0 89 89">
  <g id="Grupo_1098742" data-name="Grupo 1098742">
    <g id="Rect치ngulo_400898" data-name="Rect치ngulo 400898" fill="#1d3fbb" stroke="#fff" stroke-width="3" opacity="0.859">
      <rect width="89" height="89" rx="44.5" stroke="none"/>
      <rect x="1.5" y="1.5" width="86" height="86" rx="43" fill="none"/>
    </g>
    <rect id="Rect치ngulo_400907" data-name="Rect치ngulo 400907" width="89" height="89" rx="44.5" transform="translate(0)" fill="#3b7770"/>
  </g>
  <g id="utensilio-de-cocina" transform="translate(12.001 12)">
    <path id="Trazado_875599" data-name="Trazado 875599" d="M60.3,5.975,50.671,1.324A3.255,3.255,0,0,0,46,4.255V26H62V8.676a3,3,0,0,0-1.7-2.7Z" fill="#ffe675"/>
    <path id="Trazado_875600" data-name="Trazado 875600" d="M62,26V9.014L49.8,3.125A1.271,1.271,0,0,0,49.255,3,1.256,1.256,0,0,0,48,4.255V26Z" fill="#fcd841"/>
    <path id="Trazado_875601" data-name="Trazado 875601" d="M22,14a10,10,0,1,0-12,9.8V34.294a7,7,0,1,0,4,0V23.8A10,10,0,0,0,22,14Z" fill="#bbc2cc"/>
    <path id="Trazado_875602" data-name="Trazado 875602" d="M12,25.8V36.294A6.994,6.994,0,0,0,8.154,46.846,7,7,0,1,0,14,34.294V23.8A9.985,9.985,0,0,0,19.992,8.008,9.988,9.988,0,0,0,6.014,22,9.948,9.948,0,0,0,10,23.8a2,2,0,0,1,2,2Z" fill="#a7aebb"/>
    <circle id="Elipse_11537" data-name="Elipse 11537" cx="6" cy="6" r="6" transform="translate(6 8)" fill="#697488"/>
    <path id="Trazado_875603" data-name="Trazado 875603" d="M8,16a5.962,5.962,0,0,0,.881,3.118,5.991,5.991,0,0,0,8.238-8.236A5.991,5.991,0,0,0,8,16Z" fill="#7e8799"/>
    <circle id="Elipse_11538" data-name="Elipse 11538" cx="3" cy="3" r="3" transform="translate(9 38)" fill="#7e8799"/>
    <path id="Trazado_875604" data-name="Trazado 875604" d="M33.78,28.375a1.035,1.035,0,0,0-1.561,0C31.762,28.946,21,42.462,21,51c0,9.585,6.2,13,12,13s12-3.415,12-13C45,42.462,34.238,28.946,33.78,28.375ZM33,61.767c-.382-.731-1.2-3.183-1.2-10.767A132.094,132.094,0,0,1,33,36.171,132.1,132.1,0,0,1,34.2,51C34.2,58.584,33.382,61.036,33,61.767Zm-2.307-.516C28.618,59.759,27.4,56.109,27.4,51c0-4.242,1.828-10.049,3.546-14.569A130.047,130.047,0,0,0,29.8,51C29.8,56.262,30.181,59.387,30.693,61.251Zm4.615,0c.511-1.864.893-4.99.893-10.251a129.992,129.992,0,0,0-1.147-14.571C36.771,40.95,38.6,46.757,38.6,51c0,5.108-1.217,8.758-3.292,10.251ZM23,51c0-4.016,2.8-9.489,5.551-13.895C26.945,41.54,25.4,46.874,25.4,51c0,4.631.86,7.611,2.017,9.539C24.59,58.775,23,55.48,23,51Zm15.587,9.536C39.743,58.609,40.6,55.627,40.6,51c0-4.134-1.55-9.472-3.159-13.91C40.191,41.5,43,46.977,43,51c0,4.477-1.588,7.771-4.413,9.536Z" fill="#a7aebb"/>
    <path id="Trazado_875605" data-name="Trazado 875605" d="M33,1a3,3,0,0,0-3,3V27h6V4A3,3,0,0,0,33,1Z" fill="#f27758"/>
    <path id="Trazado_875606" data-name="Trazado 875606" d="M36,4a2.966,2.966,0,0,0-.14-.86A2.966,2.966,0,0,0,35,3a3,3,0,0,0-3,3V27h4Z" fill="#f05e3c"/>
    <path id="Trazado_875607" data-name="Trazado 875607" d="M29,27h8v5H29Z" fill="#f27758"/>
    <path id="Trazado_875608" data-name="Trazado 875608" d="M31,29h6v3H31Z" fill="#f05e3c"/>
    <path id="Trazado_875609" data-name="Trazado 875609" d="M31,36.5H75.5a2.5,2.5,0,0,1,0,5H31a1,1,0,0,1-1-1v-3A1,1,0,0,1,31,36.5Z" transform="translate(93 -15) rotate(90)" fill="#fff0aa"/>
    <path id="Trazado_875610" data-name="Trazado 875610" d="M56.5,59.788V17h-3V62.5a2.5,2.5,0,0,0,.046.454,1.938,1.938,0,0,0,1.776-.5A3.5,3.5,0,0,0,56.5,59.788Z" fill="#ffe675"/>
  </g>
</svg>
