<svg id="Grupo_1099626" data-name="Grupo 1099626" xmlns="http://www.w3.org/2000/svg" width="89" height="89" viewBox="0 0 89 89">
  <g id="Grupo_1098742" data-name="Grupo 1098742">
    <g id="Rect치ngulo_400898" data-name="Rect치ngulo 400898" fill="#1d3fbb" stroke="#fff" stroke-width="3" opacity="0.859">
      <rect width="89" height="89" rx="44.5" stroke="none"/>
      <rect x="1.5" y="1.5" width="86" height="86" rx="43" fill="none"/>
    </g>
    <rect id="Rect치ngulo_400907" data-name="Rect치ngulo 400907" width="89" height="89" rx="44.5" transform="translate(0)" fill="#3b7770"/>
  </g>
  <g id="panaderia" transform="translate(15.5 15.5)">
    <path id="Trazado_875611" data-name="Trazado 875611" d="M6.516,46.774v4.6H1V10H6.516Z" transform="translate(0 -0.726)" fill="#d8e0eb"/>
    <path id="Trazado_875612" data-name="Trazado 875612" d="M6.516,59.6H45.129v2.758H1V55H6.516Z" transform="translate(0 -4.355)" fill="#d8e0eb"/>
    <ellipse id="Elipse_11539" data-name="Elipse 11539" cx="3" cy="2.5" rx="3" ry="2.5" transform="translate(48.5 32.5)" fill="#fff"/>
    <path id="Trazado_875613" data-name="Trazado 875613" d="M58,1V9.274H1V1Z" fill="#e6ecf4"/>
    <circle id="Elipse_11540" data-name="Elipse 11540" cx="3" cy="3" r="3" transform="translate(48.5 17.5)" fill="#fff"/>
    <path id="Trazado_875614" data-name="Trazado 875614" d="M52,46h7.355v3.677H52Z" transform="translate(-4.113 -3.629)" fill="#66a9ff"/>
    <path id="Trazado_875615" data-name="Trazado 875615" d="M51.758,43.1v3.677h7.355V43.1Zm3.677-10.113a2.754,2.754,0,1,0,1.951.807,2.758,2.758,0,0,0-1.951-.807Zm0-14.7a2.758,2.758,0,1,0,2.758,2.758,2.758,2.758,0,0,0-2.758-2.758ZM61.871,10V51.371H49V10Z" transform="translate(-3.871 -0.726)" fill="#d8e0eb"/>
    <g id="Grupo_1100059" data-name="Grupo 1100059" transform="translate(6.516 9.274)">
      <path id="Trazado_875616" data-name="Trazado 875616" d="M9.758,28.274v.919H7V20H45.613v9.194H42.855v-.919a4.617,4.617,0,0,0-1.342-3.255,4.3,4.3,0,0,0-.791-.625,4.6,4.6,0,0,0-7.061,3.88v.919H30.9v-.919a4.617,4.617,0,0,0-1.342-3.254,4.427,4.427,0,0,0-.763-.607,4.531,4.531,0,0,0-2.491-.735,4.6,4.6,0,0,0-4.6,4.6v.919H18.952v-.919a4.617,4.617,0,0,0-1.342-3.255,4.491,4.491,0,0,0-1.315-.91,4.592,4.592,0,0,0-6.537,4.165Z" transform="translate(-7 -10.806)" fill="#636a74"/>
      <path id="Trazado_875617" data-name="Trazado 875617" d="M9.758,58.274v.919H7V50H45.613v9.194H42.855v-.919a4.617,4.617,0,0,0-1.342-3.255,4.3,4.3,0,0,0-.791-.625,4.6,4.6,0,0,0-7.061,3.88v.919H30.9v-.919a4.617,4.617,0,0,0-1.342-3.255,4.427,4.427,0,0,0-.763-.607,4.531,4.531,0,0,0-2.491-.735,4.6,4.6,0,0,0-4.6,4.6v.919H18.952v-.919a4.617,4.617,0,0,0-1.342-3.255,4.491,4.491,0,0,0-1.315-.91,4.592,4.592,0,0,0-6.537,4.165Z" transform="translate(-7 -13.226)" fill="#636a74"/>
      <path id="Trazado_875618" data-name="Trazado 875618" d="M9.758,48.274v.919H7V40H45.613v9.194H42.855v-.919a4.617,4.617,0,0,0-1.342-3.254,4.3,4.3,0,0,0-.791-.625,4.6,4.6,0,0,0-7.061,3.88v.919H30.9v-.919a4.617,4.617,0,0,0-1.342-3.254,4.427,4.427,0,0,0-.763-.607,4.531,4.531,0,0,0-2.491-.735,4.6,4.6,0,0,0-4.6,4.6v.919H18.952v-.919a4.617,4.617,0,0,0-1.342-3.254,4.491,4.491,0,0,0-1.315-.91,4.592,4.592,0,0,0-6.537,4.165Z" transform="translate(-7 -12.419)" fill="#636a74"/>
      <path id="Trazado_875619" data-name="Trazado 875619" d="M9.758,18.274v.919H7V10H45.613v9.194H42.855v-.919a4.617,4.617,0,0,0-1.342-3.255,4.3,4.3,0,0,0-.791-.625,4.6,4.6,0,0,0-7.061,3.88v.919H30.9v-.919a4.617,4.617,0,0,0-1.342-3.255,4.427,4.427,0,0,0-.763-.607,4.531,4.531,0,0,0-2.491-.735,4.6,4.6,0,0,0-4.6,4.6v.919H18.952v-.919a4.617,4.617,0,0,0-1.342-3.255,4.491,4.491,0,0,0-1.315-.91,4.592,4.592,0,0,0-6.537,4.165Z" transform="translate(-7 -10)" fill="#636a74"/>
      <path id="Trazado_875620" data-name="Trazado 875620" d="M9.758,38.274v.919H7V30H45.613v9.194H42.855v-.919a4.617,4.617,0,0,0-1.342-3.255,4.3,4.3,0,0,0-.791-.625,4.6,4.6,0,0,0-7.061,3.88v.919H30.9v-.919a4.617,4.617,0,0,0-1.342-3.255,4.427,4.427,0,0,0-.763-.607,4.531,4.531,0,0,0-2.491-.735,4.6,4.6,0,0,0-4.6,4.6v.919H18.952v-.919a4.617,4.617,0,0,0-1.342-3.255,4.491,4.491,0,0,0-1.315-.91,4.592,4.592,0,0,0-6.537,4.165Z" transform="translate(-7 -11.613)" fill="#636a74"/>
    </g>
    <path id="Trazado_875621" data-name="Trazado 875621" d="M61.871,55v7.355H49V55Z" transform="translate(-3.871 -4.355)" fill="#cad1e1"/>
    <g id="Grupo_1100060" data-name="Grupo 1100060" transform="translate(9.274 12.952)">
      <path id="Trazado_875622" data-name="Trazado 875622" d="M45.194,19.516H36V18.6a4.6,4.6,0,0,1,7.061-3.88,4.3,4.3,0,0,1,.791.625A4.617,4.617,0,0,1,45.194,18.6Z" transform="translate(-12.097 -14)" fill="#ffcfa0"/>
      <path id="Trazado_875623" data-name="Trazado 875623" d="M45.194,39.516H36V38.6a4.6,4.6,0,0,1,7.061-3.88,4.3,4.3,0,0,1,.791.625A4.617,4.617,0,0,1,45.194,38.6Z" transform="translate(-12.097 -15.613)" fill="#ffcfa0"/>
      <path id="Trazado_875624" data-name="Trazado 875624" d="M45.194,49.516H36V48.6a4.6,4.6,0,0,1,7.061-3.88,4.3,4.3,0,0,1,.791.625A4.617,4.617,0,0,1,45.194,48.6Z" transform="translate(-12.097 -16.419)" fill="#ffcfa0"/>
      <path id="Trazado_875625" data-name="Trazado 875625" d="M45.194,29.516H36V28.6a4.6,4.6,0,0,1,7.061-3.88,4.3,4.3,0,0,1,.791.625A4.617,4.617,0,0,1,45.194,28.6Z" transform="translate(-12.097 -14.806)" fill="#ffcfa0"/>
      <path id="Trazado_875626" data-name="Trazado 875626" d="M30.088,14.735a4.427,4.427,0,0,1,.763.607A4.617,4.617,0,0,1,32.194,18.6v.919H23V18.6A4.6,4.6,0,0,1,27.6,14a4.531,4.531,0,0,1,2.491.735Z" transform="translate(-11.048 -14)" fill="#ffcfa0"/>
      <path id="Trazado_875627" data-name="Trazado 875627" d="M16.537,14.432a4.491,4.491,0,0,1,1.315.91A4.617,4.617,0,0,1,19.194,18.6v.919H10V18.6a4.592,4.592,0,0,1,6.537-4.165Z" transform="translate(-10 -14)" fill="#ffcfa0"/>
      <path id="Trazado_875628" data-name="Trazado 875628" d="M16.537,24.432a4.491,4.491,0,0,1,1.315.91A4.617,4.617,0,0,1,19.194,28.6v.919H10V28.6a4.592,4.592,0,0,1,6.537-4.165Z" transform="translate(-10 -14.806)" fill="#ffcfa0"/>
      <path id="Trazado_875629" data-name="Trazado 875629" d="M16.537,34.432a4.491,4.491,0,0,1,1.315.91A4.617,4.617,0,0,1,19.194,38.6v.919H10V38.6a4.592,4.592,0,0,1,6.537-4.165Z" transform="translate(-10 -15.613)" fill="#ffcfa0"/>
      <path id="Trazado_875630" data-name="Trazado 875630" d="M30.088,44.735a4.427,4.427,0,0,1,.763.607A4.617,4.617,0,0,1,32.194,48.6v.919H23V48.6A4.6,4.6,0,0,1,27.6,44a4.531,4.531,0,0,1,2.491.735Z" transform="translate(-11.048 -16.419)" fill="#ffcfa0"/>
      <path id="Trazado_875631" data-name="Trazado 875631" d="M30.088,24.735a4.427,4.427,0,0,1,.763.607A4.617,4.617,0,0,1,32.194,28.6v.919H23V28.6A4.6,4.6,0,0,1,27.6,24,4.531,4.531,0,0,1,30.088,24.735Z" transform="translate(-11.048 -14.806)" fill="#ffcfa0"/>
      <path id="Trazado_875632" data-name="Trazado 875632" d="M16.537,54.432a4.491,4.491,0,0,1,1.315.91A4.617,4.617,0,0,1,19.194,58.6v.919H10V58.6a4.592,4.592,0,0,1,6.537-4.165Z" transform="translate(-10 -17.226)" fill="#ffcfa0"/>
      <path id="Trazado_875633" data-name="Trazado 875633" d="M45.194,59.516H36V58.6a4.6,4.6,0,0,1,7.061-3.88,4.3,4.3,0,0,1,.791.625A4.617,4.617,0,0,1,45.194,58.6Z" transform="translate(-12.097 -17.226)" fill="#ffcfa0"/>
      <path id="Trazado_875634" data-name="Trazado 875634" d="M30.088,34.735a4.427,4.427,0,0,1,.763.607A4.617,4.617,0,0,1,32.194,38.6v.919H23V38.6A4.6,4.6,0,0,1,27.6,34,4.531,4.531,0,0,1,30.088,34.735Z" transform="translate(-11.048 -15.613)" fill="#ffcfa0"/>
      <path id="Trazado_875635" data-name="Trazado 875635" d="M16.537,44.432a4.491,4.491,0,0,1,1.315.91A4.617,4.617,0,0,1,19.194,48.6v.919H10V48.6a4.592,4.592,0,0,1,6.537-4.165Z" transform="translate(-10 -16.419)" fill="#ffcfa0"/>
      <path id="Trazado_875636" data-name="Trazado 875636" d="M30.088,54.735a4.427,4.427,0,0,1,.763.607A4.617,4.617,0,0,1,32.194,58.6v.919H23V58.6A4.6,4.6,0,0,1,27.6,54a4.531,4.531,0,0,1,2.491.735Z" transform="translate(-11.048 -17.226)" fill="#ffcfa0"/>
    </g>
    <path id="Trazado_875637" data-name="Trazado 875637" d="M1,55H6.516v7.355H1Z" transform="translate(0 -4.355)" fill="#cad1e1"/>
    <path id="Trazado_875638" data-name="Trazado 875638" d="M55.919,35.6A.919.919,0,0,1,55,34.676V31.918a.919.919,0,1,1,1.839,0v2.758a.919.919,0,0,1-.919.919Z" transform="translate(-4.355 -2.419)" fill="#636a74"/>
    <path id="Trazado_875639" data-name="Trazado 875639" d="M51.938,29.838A.919.919,0,0,1,51.93,28h.009a.919.919,0,0,1,0,1.839Z" transform="translate(-4.033 -2.177)" fill="#cad1e1"/>
    <path id="Trazado_875640" data-name="Trazado 875640" d="M55.938,29.838A.919.919,0,0,1,55.93,28h.009a.919.919,0,1,1,0,1.839Z" transform="translate(-4.356 -2.177)" fill="#cad1e1"/>
    <path id="Trazado_875641" data-name="Trazado 875641" d="M59.938,29.838A.919.919,0,1,1,59.93,28h.009a.919.919,0,1,1,0,1.839Z" transform="translate(-4.679 -2.177)" fill="#cad1e1"/>
    <path id="Trazado_875642" data-name="Trazado 875642" d="M59.291,50.516H51.936a.919.919,0,0,1-.919-.919V45.919A.919.919,0,0,1,51.936,45h7.355a.919.919,0,0,1,.919.919V49.6a.919.919,0,0,1-.919.919Zm-6.435-1.839h5.516V46.839H52.856Z" transform="translate(-4.034 -3.548)" fill="#66a9ff"/>
    <path id="Trazado_875643" data-name="Trazado 875643" d="M55.919,19.611A.919.919,0,0,1,55,18.692V15.934a.919.919,0,1,1,1.839,0v2.758a.919.919,0,0,1-.919.919Z" transform="translate(-4.355 -1.13)" fill="#636a74"/>
    <path id="Trazado_875644" data-name="Trazado 875644" d="M51.938,13.853a.919.919,0,0,1-.009-1.839h.009a.919.919,0,0,1,0,1.839Z" transform="translate(-4.033 -0.888)" fill="#cad1e1"/>
    <path id="Trazado_875645" data-name="Trazado 875645" d="M55.938,13.853a.919.919,0,0,1-.009-1.839h.009a.919.919,0,1,1,0,1.839Z" transform="translate(-4.356 -0.888)" fill="#cad1e1"/>
    <path id="Trazado_875646" data-name="Trazado 875646" d="M59.938,13.853a.919.919,0,1,1-.009-1.839h.009a.919.919,0,1,1,0,1.839Z" transform="translate(-4.679 -0.888)" fill="#cad1e1"/>
    <path id="Trazado_875647" data-name="Trazado 875647" d="M7,19H45.613v1.839H7Z" transform="translate(-0.484 -1.452)" fill="#7a8089"/>
    <path id="Trazado_875648" data-name="Trazado 875648" d="M13.92,16.758a.912.912,0,0,0,.579-.206l2.472-2.01c-.066-.034-.125-.079-.193-.109A4.575,4.575,0,0,0,14.839,14c-.045,0-.087.012-.131.013l-1.368,1.113a.919.919,0,0,0,.581,1.632Z" transform="translate(-0.968 -1.048)" fill="#f9be86"/>
    <path id="Trazado_875649" data-name="Trazado 875649" d="M27.92,16.763a.914.914,0,0,0,.578-.206l2.077-1.686c-.058-.04-.1-.093-.164-.131a4.5,4.5,0,0,0-1.76-.674L27.34,15.13a.919.919,0,0,0,.58,1.633Z" transform="translate(-2.097 -1.054)" fill="#f9be86"/>
    <path id="Trazado_875650" data-name="Trazado 875650" d="M40.86,16.763a.92.92,0,0,0,.578-.2l2.116-1.714c-.059-.04-.115-.085-.175-.122a4.58,4.58,0,0,0-1.776-.664L40.28,15.129a.919.919,0,0,0,.58,1.634Z" transform="translate(-3.14 -1.053)" fill="#f9be86"/>
    <path id="Trazado_875651" data-name="Trazado 875651" d="M7,29H45.613v1.839H7Z" transform="translate(-0.484 -2.258)" fill="#7a8089"/>
    <path id="Trazado_875652" data-name="Trazado 875652" d="M13.92,26.758a.912.912,0,0,0,.579-.206l2.472-2.01c-.066-.034-.125-.079-.193-.109A4.575,4.575,0,0,0,14.839,24c-.045,0-.087.012-.131.013l-1.368,1.113a.919.919,0,0,0,.581,1.632Z" transform="translate(-0.968 -1.855)" fill="#f9be86"/>
    <path id="Trazado_875653" data-name="Trazado 875653" d="M27.92,26.763a.914.914,0,0,0,.578-.206l2.077-1.686c-.058-.04-.1-.093-.164-.131a4.5,4.5,0,0,0-1.76-.674L27.34,25.13a.919.919,0,0,0,.58,1.633Z" transform="translate(-2.097 -1.86)" fill="#f9be86"/>
    <path id="Trazado_875654" data-name="Trazado 875654" d="M40.86,26.763a.92.92,0,0,0,.578-.2l2.116-1.714c-.059-.04-.115-.085-.175-.122a4.58,4.58,0,0,0-1.776-.664L40.28,25.129a.919.919,0,0,0,.58,1.634Z" transform="translate(-3.14 -1.859)" fill="#f9be86"/>
    <path id="Trazado_875655" data-name="Trazado 875655" d="M7,39H45.613v1.839H7Z" transform="translate(-0.484 -3.065)" fill="#7a8089"/>
    <path id="Trazado_875656" data-name="Trazado 875656" d="M13.92,36.758a.912.912,0,0,0,.579-.206l2.472-2.01c-.066-.034-.125-.079-.193-.109A4.575,4.575,0,0,0,14.839,34c-.045,0-.087.012-.131.013l-1.368,1.113a.919.919,0,0,0,.581,1.632Z" transform="translate(-0.968 -2.661)" fill="#f9be86"/>
    <path id="Trazado_875657" data-name="Trazado 875657" d="M27.92,36.763a.914.914,0,0,0,.578-.206l2.077-1.686c-.058-.04-.1-.093-.164-.131a4.5,4.5,0,0,0-1.76-.674L27.34,35.13a.919.919,0,0,0,.58,1.633Z" transform="translate(-2.097 -2.667)" fill="#f9be86"/>
    <path id="Trazado_875658" data-name="Trazado 875658" d="M40.86,36.763a.92.92,0,0,0,.578-.2l2.116-1.714c-.059-.04-.115-.085-.175-.122a4.58,4.58,0,0,0-1.776-.664L40.28,35.129a.919.919,0,0,0,.58,1.634Z" transform="translate(-3.14 -2.666)" fill="#f9be86"/>
    <path id="Trazado_875659" data-name="Trazado 875659" d="M7,49H45.613v1.839H7Z" transform="translate(-0.484 -3.871)" fill="#7a8089"/>
    <path id="Trazado_875660" data-name="Trazado 875660" d="M13.92,46.758a.912.912,0,0,0,.579-.206l2.472-2.01c-.066-.034-.125-.079-.193-.109A4.575,4.575,0,0,0,14.839,44c-.045,0-.087.012-.131.013l-1.368,1.113a.919.919,0,0,0,.581,1.632Z" transform="translate(-0.968 -3.468)" fill="#f9be86"/>
    <path id="Trazado_875661" data-name="Trazado 875661" d="M27.92,46.763a.914.914,0,0,0,.578-.206l2.077-1.686c-.058-.04-.1-.093-.164-.131a4.5,4.5,0,0,0-1.76-.674L27.34,45.13a.919.919,0,0,0,.58,1.633Z" transform="translate(-2.097 -3.473)" fill="#f9be86"/>
    <path id="Trazado_875662" data-name="Trazado 875662" d="M40.86,46.763a.92.92,0,0,0,.578-.2l2.116-1.714c-.059-.04-.115-.085-.175-.122a4.58,4.58,0,0,0-1.776-.664L40.28,45.129a.919.919,0,0,0,.58,1.634Z" transform="translate(-3.14 -3.472)" fill="#f9be86"/>
    <path id="Trazado_875663" data-name="Trazado 875663" d="M7,59H45.613v1.839H7Z" transform="translate(-0.484 -4.677)" fill="#7a8089"/>
    <path id="Trazado_875664" data-name="Trazado 875664" d="M13.92,56.758a.912.912,0,0,0,.579-.206l2.472-2.01c-.066-.034-.125-.079-.193-.109A4.575,4.575,0,0,0,14.839,54c-.045,0-.087.012-.131.013l-1.368,1.113a.919.919,0,0,0,.581,1.632Z" transform="translate(-0.968 -4.274)" fill="#f9be86"/>
    <path id="Trazado_875665" data-name="Trazado 875665" d="M27.92,56.763a.914.914,0,0,0,.578-.206l2.077-1.686c-.058-.04-.1-.093-.164-.131a4.5,4.5,0,0,0-1.76-.674L27.34,55.13a.919.919,0,0,0,.58,1.633Z" transform="translate(-2.097 -4.28)" fill="#f9be86"/>
    <path id="Trazado_875666" data-name="Trazado 875666" d="M40.86,56.763a.92.92,0,0,0,.578-.2l2.116-1.714c-.059-.04-.115-.085-.175-.122a4.58,4.58,0,0,0-1.776-.664L40.28,55.129a.919.919,0,0,0,.58,1.634Z" transform="translate(-3.14 -4.279)" fill="#f9be86"/>
    <path id="Trazado_875667" data-name="Trazado 875667" d="M23.79,6.839H10.919a.919.919,0,1,1,0-1.839H23.79a.919.919,0,1,1,0,1.839Z" transform="translate(-0.726 -0.323)" fill="#cad1e1"/>
    <path id="Trazado_875668" data-name="Trazado 875668" d="M44.71,6.839H30.919a.919.919,0,0,1,0-1.839H44.71a.919.919,0,0,1,0,1.839Z" transform="translate(-2.339 -0.323)" fill="#cad1e1"/>
    <path id="Trazado_875669" data-name="Trazado 875669" d="M55.677,41.354a3.677,3.677,0,1,1,3.677-3.677A3.677,3.677,0,0,1,55.677,41.354Zm0-5.516a1.839,1.839,0,1,0,1.839,1.839A1.839,1.839,0,0,0,55.677,35.838Z" transform="translate(-4.113 -2.661)" fill="#fff"/>
    <path id="Trazado_875670" data-name="Trazado 875670" d="M55.677,25.369a3.677,3.677,0,1,1,3.677-3.677A3.677,3.677,0,0,1,55.677,25.369Zm0-5.516a1.839,1.839,0,1,0,1.839,1.839A1.839,1.839,0,0,0,55.677,19.853Z" transform="translate(-4.113 -1.372)" fill="#fff"/>
  </g>
</svg>
