<svg xmlns="http://www.w3.org/2000/svg" xmlns:xlink="http://www.w3.org/1999/xlink" width="261.949" height="272.106" viewBox="0 0 261.949 272.106">
  <defs>
    <clipPath id="clip-path">
      <rect id="Rectángulo_401668" data-name="Rectángulo 401668" width="261.949" height="272" transform="translate(318.051 3082)" fill="#e2dacc"/>
    </clipPath>
    <clipPath id="clip-path-2">
      <rect id="Rectángulo_401667" data-name="Rectángulo 401667" width="291.971" height="272" fill="none"/>
    </clipPath>
    <clipPath id="clip-path-4">
      <path id="Trazado_875686" data-name="Trazado 875686" d="M280.6,139.664a118.35,118.35,0,1,1-118.35-118.35A118.35,118.35,0,0,1,280.6,139.664" transform="translate(-43.903 -21.314)" fill="none"/>
    </clipPath>
    <clipPath id="clip-path-5">
      <rect id="Rectángulo_401615" data-name="Rectángulo 401615" width="287.412" height="149.593" fill="none"/>
    </clipPath>
    <clipPath id="clip-path-6">
      <rect id="Rectángulo_401657" data-name="Rectángulo 401657" width="273.592" height="105.287" fill="none"/>
    </clipPath>
    <clipPath id="clip-path-7">
      <path id="Trazado_875697" data-name="Trazado 875697" d="M273.382,376.074a118.351,118.351,0,0,1-171.99,0Z" transform="translate(-101.392 -376.074)" fill="none"/>
    </clipPath>
    <clipPath id="clip-path-9">
      <rect id="Rectángulo_401661" data-name="Rectángulo 401661" width="10.004" height="12.716" fill="none"/>
    </clipPath>
    <clipPath id="clip-path-10">
      <rect id="Rectángulo_401662" data-name="Rectángulo 401662" width="8.106" height="8.106" fill="none"/>
    </clipPath>
    <clipPath id="clip-path-12">
      <rect id="Rectángulo_401664" data-name="Rectángulo 401664" width="9.51" height="12.943" fill="none"/>
    </clipPath>
  </defs>
  <g id="Grupo_1100090" data-name="Grupo 1100090" transform="translate(-318.051 -3081.894)">
    <path id="Rectángulo_401463" data-name="Rectángulo 401463" d="M112,0h37.949a112,112,0,0,1,112,112V272a0,0,0,0,1,0,0H0a0,0,0,0,1,0,0V112A112,112,0,0,1,112,0Z" transform="translate(318.051 3081.894)" fill="#e2dacc"/>
    <g id="Enmascarar_grupo_1098698" data-name="Enmascarar grupo 1098698" clip-path="url(#clip-path)">
      <g id="Grupo_1100089" data-name="Grupo 1100089" transform="translate(298.711 3082)">
        <g id="Grupo_1100088" data-name="Grupo 1100088" clip-path="url(#clip-path-2)">
          <g id="Grupo_1100063" data-name="Grupo 1100063">
            <g id="Grupo_1100062" data-name="Grupo 1100062" clip-path="url(#clip-path-2)">
              <path id="Trazado_875672" data-name="Trazado 875672" d="M43.9,139.663A118.35,118.35,0,1,0,162.252,21.313,118.35,118.35,0,0,0,43.9,139.663" transform="translate(-13.341 -9.318)" fill="#fff"/>
            </g>
          </g>
          <g id="Grupo_1100071" data-name="Grupo 1100071" transform="translate(30.562 11.996)">
            <g id="Grupo_1100070" data-name="Grupo 1100070" clip-path="url(#clip-path-4)">
              <g id="Grupo_1100066" data-name="Grupo 1100066" transform="translate(-30.562 -11.996)" opacity="0.5">
                <g id="Grupo_1100065" data-name="Grupo 1100065">
                  <g id="Grupo_1100064" data-name="Grupo 1100064" clip-path="url(#clip-path-5)">
                    <line id="Línea_581" data-name="Línea 581" y2="149.593" transform="translate(259.47 0)" fill="none" stroke="#b1d0c1" stroke-miterlimit="10" stroke-width="1.5"/>
                    <line id="Línea_582" data-name="Línea 582" y2="149.593" transform="translate(235.328 0)" fill="none" stroke="#b1d0c1" stroke-miterlimit="10" stroke-width="1.5"/>
                    <line id="Línea_583" data-name="Línea 583" y2="149.593" transform="translate(211.186 0)" fill="none" stroke="#b1d0c1" stroke-miterlimit="10" stroke-width="1.5"/>
                    <line id="Línea_584" data-name="Línea 584" y2="149.593" transform="translate(187.043 0)" fill="none" stroke="#b1d0c1" stroke-miterlimit="10" stroke-width="1.5"/>
                    <line id="Línea_585" data-name="Línea 585" y2="149.593" transform="translate(162.901 0)" fill="none" stroke="#b1d0c1" stroke-miterlimit="10" stroke-width="1.5"/>
                    <line id="Línea_586" data-name="Línea 586" y2="149.593" transform="translate(138.759 0)" fill="none" stroke="#b1d0c1" stroke-miterlimit="10" stroke-width="1.5"/>
                    <line id="Línea_587" data-name="Línea 587" y2="149.593" transform="translate(114.617 0)" fill="none" stroke="#b1d0c1" stroke-miterlimit="10" stroke-width="1.5"/>
                    <line id="Línea_588" data-name="Línea 588" y2="149.593" transform="translate(90.475 0)" fill="none" stroke="#b1d0c1" stroke-miterlimit="10" stroke-width="1.5"/>
                    <line id="Línea_589" data-name="Línea 589" y2="149.593" transform="translate(66.332 0)" fill="none" stroke="#b1d0c1" stroke-miterlimit="10" stroke-width="1.5"/>
                    <line id="Línea_590" data-name="Línea 590" y2="149.593" transform="translate(42.19 0)" fill="none" stroke="#b1d0c1" stroke-miterlimit="10" stroke-width="1.5"/>
                    <line id="Línea_591" data-name="Línea 591" x1="287.411" transform="translate(0 95.98)" fill="none" stroke="#b1d0c1" stroke-miterlimit="10" stroke-width="1.5"/>
                    <line id="Línea_592" data-name="Línea 592" x1="287.411" transform="translate(0 75.371)" fill="none" stroke="#b1d0c1" stroke-miterlimit="10" stroke-width="1.5"/>
                    <line id="Línea_593" data-name="Línea 593" x1="287.411" transform="translate(0 54.762)" fill="none" stroke="#b1d0c1" stroke-miterlimit="10" stroke-width="1.5"/>
                    <line id="Línea_594" data-name="Línea 594" x1="287.411" transform="translate(0 34.152)" fill="none" stroke="#b1d0c1" stroke-miterlimit="10" stroke-width="1.5"/>
                  </g>
                </g>
              </g>
              <rect id="Rectángulo_401616" data-name="Rectángulo 401616" width="289.706" height="113.056" transform="translate(-28.298 99.252)" fill="#b1d0c1"/>
              <g id="Grupo_1100069" data-name="Grupo 1100069" transform="translate(-19.948 103.091)" opacity="0.3" style="mix-blend-mode: multiply;isolation: isolate">
                <g id="Grupo_1100068" data-name="Grupo 1100068">
                  <g id="Grupo_1100067" data-name="Grupo 1100067" clip-path="url(#clip-path-6)">
                    <rect id="Rectángulo_401617" data-name="Rectángulo 401617" width="23.775" height="23.775" transform="translate(249.817)" fill="#b1d0c1"/>
                    <rect id="Rectángulo_401618" data-name="Rectángulo 401618" width="23.775" height="23.775" transform="translate(249.817 27.171)" fill="#b1d0c1"/>
                    <rect id="Rectángulo_401619" data-name="Rectángulo 401619" width="23.775" height="23.775" transform="translate(249.817 54.342)" fill="#b1d0c1"/>
                    <rect id="Rectángulo_401620" data-name="Rectángulo 401620" width="23.775" height="23.775" transform="translate(249.817 81.513)" fill="#b1d0c1"/>
                    <rect id="Rectángulo_401621" data-name="Rectángulo 401621" width="23.775" height="23.775" transform="translate(222.06)" fill="#b1d0c1"/>
                    <rect id="Rectángulo_401622" data-name="Rectángulo 401622" width="23.775" height="23.775" transform="translate(222.06 27.171)" fill="#b1d0c1"/>
                    <rect id="Rectángulo_401623" data-name="Rectángulo 401623" width="23.775" height="23.775" transform="translate(222.06 54.342)" fill="#b1d0c1"/>
                    <rect id="Rectángulo_401624" data-name="Rectángulo 401624" width="23.775" height="23.775" transform="translate(222.06 81.513)" fill="#b1d0c1"/>
                    <rect id="Rectángulo_401625" data-name="Rectángulo 401625" width="23.775" height="23.775" transform="translate(194.303)" fill="#b1d0c1"/>
                    <rect id="Rectángulo_401626" data-name="Rectángulo 401626" width="23.775" height="23.775" transform="translate(194.303 27.171)" fill="#b1d0c1"/>
                    <rect id="Rectángulo_401627" data-name="Rectángulo 401627" width="23.775" height="23.775" transform="translate(194.303 54.342)" fill="#b1d0c1"/>
                    <rect id="Rectángulo_401628" data-name="Rectángulo 401628" width="23.775" height="23.775" transform="translate(194.303 81.513)" fill="#b1d0c1"/>
                    <rect id="Rectángulo_401629" data-name="Rectángulo 401629" width="23.775" height="23.775" transform="translate(166.545)" fill="#b1d0c1"/>
                    <rect id="Rectángulo_401630" data-name="Rectángulo 401630" width="23.775" height="23.775" transform="translate(166.545 27.171)" fill="#b1d0c1"/>
                    <rect id="Rectángulo_401631" data-name="Rectángulo 401631" width="23.775" height="23.775" transform="translate(166.545 54.342)" fill="#b1d0c1"/>
                    <rect id="Rectángulo_401632" data-name="Rectángulo 401632" width="23.775" height="23.775" transform="translate(166.545 81.513)" fill="#b1d0c1"/>
                    <rect id="Rectángulo_401633" data-name="Rectángulo 401633" width="23.775" height="23.775" transform="translate(138.788)" fill="#b1d0c1"/>
                    <rect id="Rectángulo_401634" data-name="Rectángulo 401634" width="23.775" height="23.775" transform="translate(138.788 27.171)" fill="#b1d0c1"/>
                    <rect id="Rectángulo_401635" data-name="Rectángulo 401635" width="23.775" height="23.775" transform="translate(138.788 54.342)" fill="#b1d0c1"/>
                    <rect id="Rectángulo_401636" data-name="Rectángulo 401636" width="23.775" height="23.775" transform="translate(138.788 81.513)" fill="#b1d0c1"/>
                    <rect id="Rectángulo_401637" data-name="Rectángulo 401637" width="23.775" height="23.775" transform="translate(111.03)" fill="#b1d0c1"/>
                    <rect id="Rectángulo_401638" data-name="Rectángulo 401638" width="23.775" height="23.775" transform="translate(111.03 27.171)" fill="#b1d0c1"/>
                    <rect id="Rectángulo_401639" data-name="Rectángulo 401639" width="23.775" height="23.775" transform="translate(111.03 54.342)" fill="#b1d0c1"/>
                    <rect id="Rectángulo_401640" data-name="Rectángulo 401640" width="23.775" height="23.775" transform="translate(111.03 81.513)" fill="#b1d0c1"/>
                    <rect id="Rectángulo_401641" data-name="Rectángulo 401641" width="23.775" height="23.775" transform="translate(83.272)" fill="#b1d0c1"/>
                    <rect id="Rectángulo_401642" data-name="Rectángulo 401642" width="23.775" height="23.775" transform="translate(83.272 27.171)" fill="#b1d0c1"/>
                    <rect id="Rectángulo_401643" data-name="Rectángulo 401643" width="23.775" height="23.775" transform="translate(83.272 54.342)" fill="#b1d0c1"/>
                    <rect id="Rectángulo_401644" data-name="Rectángulo 401644" width="23.775" height="23.775" transform="translate(83.272 81.513)" fill="#b1d0c1"/>
                    <rect id="Rectángulo_401645" data-name="Rectángulo 401645" width="23.775" height="23.775" transform="translate(55.515)" fill="#b1d0c1"/>
                    <rect id="Rectángulo_401646" data-name="Rectángulo 401646" width="23.775" height="23.775" transform="translate(55.515 27.171)" fill="#b1d0c1"/>
                    <rect id="Rectángulo_401647" data-name="Rectángulo 401647" width="23.775" height="23.775" transform="translate(55.515 54.342)" fill="#b1d0c1"/>
                    <rect id="Rectángulo_401648" data-name="Rectángulo 401648" width="23.775" height="23.775" transform="translate(55.515 81.513)" fill="#b1d0c1"/>
                    <rect id="Rectángulo_401649" data-name="Rectángulo 401649" width="23.775" height="23.775" transform="translate(27.758)" fill="#b1d0c1"/>
                    <rect id="Rectángulo_401650" data-name="Rectángulo 401650" width="23.775" height="23.775" transform="translate(27.758 27.171)" fill="#b1d0c1"/>
                    <rect id="Rectángulo_401651" data-name="Rectángulo 401651" width="23.775" height="23.775" transform="translate(27.758 54.342)" fill="#b1d0c1"/>
                    <rect id="Rectángulo_401652" data-name="Rectángulo 401652" width="23.775" height="23.775" transform="translate(27.758 81.513)" fill="#b1d0c1"/>
                    <rect id="Rectángulo_401653" data-name="Rectángulo 401653" width="23.775" height="23.775" transform="translate(0)" fill="#b1d0c1"/>
                    <rect id="Rectángulo_401654" data-name="Rectángulo 401654" width="23.775" height="23.775" transform="translate(0 27.171)" fill="#b1d0c1"/>
                    <rect id="Rectángulo_401655" data-name="Rectángulo 401655" width="23.775" height="23.775" transform="translate(0 54.342)" fill="#b1d0c1"/>
                    <rect id="Rectángulo_401656" data-name="Rectángulo 401656" width="23.775" height="23.775" transform="translate(0 81.513)" fill="#b1d0c1"/>
                  </g>
                </g>
              </g>
              <path id="Trazado_875673" data-name="Trazado 875673" d="M15.585,236.757H120.106V63.1a13.16,13.16,0,0,0-13.16-13.161h-78.2A13.16,13.16,0,0,0,15.585,63.1Z" transform="translate(132.531 -33.829)" fill="#435863"/>
              <rect id="Rectángulo_401658" data-name="Rectángulo 401658" width="111.129" height="3.604" transform="translate(145.76 87.562)" fill="#5c8884"/>
              <path id="Trazado_875674" data-name="Trazado 875674" d="M183.507,131.692h0a1.5,1.5,0,0,1-1.5-1.5V88.742a1.5,1.5,0,1,1,3,0V130.19a1.5,1.5,0,0,1-1.5,1.5" transform="translate(-26.034 -50.136)" fill="#5c8884"/>
              <path id="Trazado_875675" data-name="Trazado 875675" d="M183.507,290.347h0a1.5,1.5,0,0,1-1.5-1.5V200.636a1.5,1.5,0,1,1,3,0v88.209a1.5,1.5,0,0,1-1.5,1.5" transform="translate(-26.034 -99.055)" fill="#5c8884"/>
              <path id="Trazado_875676" data-name="Trazado 875676" d="M398.264,192.57c2.531-5.678,5.818-11.265,10.893-14.855,1.905-1.348,4.673-2.326,6.427-.786a4.554,4.554,0,0,1,1.241,2.148c1.187,3.912-.274,8.1-1.947,11.834-4.049,9.026-9.428,17.383-14.028,26.14a84.226,84.226,0,0,0-9,26.083c-1.9-5.88-1.449-13.505-1.089-19.6a89.766,89.766,0,0,1,3.486-20.02,87.607,87.607,0,0,1,4.023-10.939" transform="translate(-375.588 -89.005)" fill="#6ea485"/>
              <path id="Trazado_875677" data-name="Trazado 875677" d="M420.88,267.3a102.2,102.2,0,0,1,2.143-20.581,95.975,95.975,0,0,1,2.674-9.985q1.618-4.918,3.69-9.7a59.672,59.672,0,0,0-4.518,9.412,68.078,68.078,0,0,0-2.947,10.044A64.451,64.451,0,0,0,420.88,267.3" transform="translate(-404.619 -111.251)" fill="#283438"/>
              <path id="Trazado_875678" data-name="Trazado 875678" d="M387.153,223.769c3.458-3.866,7.495-7.468,12.442-9.027,1.858-.585,4.306-.657,5.307,1.014a3.8,3.8,0,0,1,.439,2.023c-.054,3.411-2.283,6.369-4.564,8.907-5.518,6.139-11.923,11.409-17.81,17.195a70.267,70.267,0,0,0-13.8,18.43c-.012-5.157,2.291-11.1,4.132-15.854a74.946,74.946,0,0,1,7.873-15.02,73.1,73.1,0,0,1,5.985-7.667" transform="translate(-351.7 -105.714)" fill="#52966d"/>
              <path id="Trazado_875679" data-name="Trazado 875679" d="M404.058,279.094a82.824,82.824,0,0,1,17.026-29.829,55.207,55.207,0,0,0-17.026,29.829" transform="translate(-387.082 -120.972)" fill="#283438"/>
              <path id="Trazado_875680" data-name="Trazado 875680" d="M453.051,225.533c-1.922-3.806-4.359-7.524-7.954-9.816-1.35-.86-3.278-1.439-4.428-.326a3.123,3.123,0,0,0-.779,1.512c-.684,2.719.456,5.543,1.726,8.042,3.072,6.049,7.034,11.6,10.476,17.443a57.782,57.782,0,0,1,7.032,17.57c1.107-4.091.545-9.3.1-13.465a61.537,61.537,0,0,0-3.05-13.6,60.054,60.054,0,0,0-3.118-7.361" transform="translate(-445.817 -105.895)" fill="#52966d"/>
              <path id="Trazado_875681" data-name="Trazado 875681" d="M447.7,276.182a45.372,45.372,0,0,0-7.161-27.305,68.082,68.082,0,0,1,7.161,27.305" transform="translate(-434.336 -120.803)" fill="#283438"/>
              <path id="Trazado_875682" data-name="Trazado 875682" d="M455.616,250.581c-2.921-2.1-6.193-3.933-9.777-4.248-1.345-.118-3.013.2-3.44,1.482a2.629,2.629,0,0,0,.006,1.435c.548,2.3,2.5,3.97,4.425,5.346,4.656,3.33,9.781,5.938,14.634,8.972a48.757,48.757,0,0,1,12.108,10.409c-.765-3.493-3.215-7.172-5.173-10.114a51.967,51.967,0,0,0-7.581-8.989,50.686,50.686,0,0,0-5.2-4.294" transform="translate(-461.093 -119.681)" fill="#6ea485"/>
              <path id="Trazado_875683" data-name="Trazado 875683" d="M457.307,283.471q-.307-.689-.633-1.371l-.69-1.345-.759-1.308-.8-1.283a38.931,38.931,0,0,0-8.111-8.948l-1.2-.925-1.228-.883-1.271-.818q-.647-.391-1.3-.763.6.462,1.2.9l1.179.933,1.163.948,1.13.985a56.648,56.648,0,0,1,8.025,8.85l.869,1.221.831,1.249.813,1.265q.381.647.782,1.288" transform="translate(-444.271 -128.213)" fill="#283438"/>
              <path id="Trazado_875684" data-name="Trazado 875684" d="M435.143,342.957h-29.85l-4.5-45.319h38.847Z" transform="translate(-403.804 -142.121)" fill="#e5bc54"/>
              <rect id="Rectángulo_401659" data-name="Rectángulo 401659" width="42.729" height="6.858" transform="translate(-4.95 151.121)" fill="#4f676f"/>
              <path id="Trazado_875685" data-name="Trazado 875685" d="M410.834,314.776c-.516,2.664-.92,5.34-1.287,8.02s-.68,5.365-.975,8.053c-.274,2.69-.534,5.381-.729,8.079s-.364,5.4-.415,8.112c.517-2.664.922-5.34,1.288-8.02s.68-5.365.974-8.053c.273-2.69.533-5.381.727-8.079s.364-5.4.416-8.112" transform="translate(-378.729 -149.613)" fill="#283438"/>
              <rect id="Rectángulo_401660" data-name="Rectángulo 401660" width="219.268" height="52.817" transform="translate(11.938 199.662)" fill="#c5783c"/>
            </g>
          </g>
          <g id="Grupo_1100073" data-name="Grupo 1100073" transform="translate(62.917 211.657)">
            <g id="Grupo_1100072" data-name="Grupo 1100072" clip-path="url(#clip-path-7)">
              <path id="Trazado_875687" data-name="Trazado 875687" d="M330.628,402.846a26.123,26.123,0,0,1,12.247-12.559c8.156-3.961,17.683-3.384,26.6-5.007a54.719,54.719,0,0,0,40.728-34.227" transform="translate(-367.232 -365.135)" fill="none" stroke="#edd296" stroke-miterlimit="10" stroke-width="1.128"/>
              <path id="Trazado_875688" data-name="Trazado 875688" d="M265.184,403.931c7.771-8.355,19.546-11.7,30.882-12.993s22.9-.929,34.008-3.555a54.027,54.027,0,0,0,19.047-8.419c11.7-8.373,18.784-21.583,25.47-34.318" transform="translate(-294.785 -362.334)" fill="none" stroke="#edd296" stroke-miterlimit="10" stroke-width="1.128"/>
              <path id="Trazado_875689" data-name="Trazado 875689" d="M218.212,423.994A61.3,61.3,0,0,1,251.867,403.7c10.625-2.3,21.677-1.72,32.4-3.5a75.913,75.913,0,0,0,56.883-45.586" transform="translate(-234.909 -366.694)" fill="none" stroke="#edd296" stroke-miterlimit="10" stroke-width="1.128"/>
              <path id="Trazado_875690" data-name="Trazado 875690" d="M32.5,442.284a71.727,71.727,0,0,1,38.8-13.5c8.77-.372,17.658.871,26.278-.786,15.694-3.018,28.17-15.123,43.431-19.87a49.091,49.091,0,0,1,35.6,2.673c9.245,4.482,16.814,11.757,25.512,17.226s19.652,9.115,29.2,5.317" transform="translate(-20.556 -389.147)" fill="none" stroke="#edd296" stroke-miterlimit="10" stroke-width="1.128"/>
              <path id="Trazado_875691" data-name="Trazado 875691" d="M77.059,456.1a53.371,53.371,0,0,1,29.232-12.434c6.678-.654,13.454-.038,20.092-1.018,20.64-3.047,37.567-21.034,58.431-20.931,9.6.047,18.856,4.08,26.617,9.738s14.215,12.891,20.5,20.156" transform="translate(-46.242 -396.028)" fill="none" stroke="#edd296" stroke-miterlimit="10" stroke-width="1.128"/>
              <path id="Trazado_875692" data-name="Trazado 875692" d="M97.371,460.542a48.591,48.591,0,0,1,72.874,6.775" transform="translate(4.008 -407.16)" fill="none" stroke="#edd296" stroke-miterlimit="10" stroke-width="1.128"/>
              <path id="Trazado_875693" data-name="Trazado 875693" d="M135.156,395.831c-9.456,2.559-19.444-1.514-27.721-6.754s-15.9-11.8-25.144-15.046c-11.378-4-23.989-2.521-35.612.7-3.969,1.1-8.052,2.409-12.125,1.793s-8.1-3.894-7.946-8.01a11.834,11.834,0,0,1,1.252-4.283,102.206,102.206,0,0,1,10.377-18.081" transform="translate(78.924 -362.991)" fill="none" stroke="#edd296" stroke-miterlimit="10" stroke-width="1.128"/>
              <path id="Trazado_875694" data-name="Trazado 875694" d="M108.073,392.012c-9.739-6.2-22.972-1.556-33.81-5.527-7.442-2.727-12.865-9.181-19.784-13.047-11.049-6.173-24.667-5.181-36.671-9.192" transform="translate(110.958 -370.903)" fill="none" stroke="#edd296" stroke-miterlimit="10" stroke-width="1.128"/>
              <path id="Trazado_875695" data-name="Trazado 875695" d="M362.15,387.452a65.8,65.8,0,0,0,50.44-21.988" transform="translate(-387.357 -371.435)" fill="none" stroke="#edd296" stroke-miterlimit="10" stroke-width="1.128"/>
              <path id="Trazado_875696" data-name="Trazado 875696" d="M398.344,383.475a66.894,66.894,0,0,0,34.871-13.637" transform="translate(-428.352 -373.348)" fill="none" stroke="#edd296" stroke-miterlimit="10" stroke-width="1.128"/>
            </g>
          </g>
          <g id="Grupo_1100087" data-name="Grupo 1100087">
            <g id="Grupo_1100086" data-name="Grupo 1100086" clip-path="url(#clip-path-2)">
              <ellipse id="Elipse_11541" data-name="Elipse 11541" cx="124.93" cy="124.93" rx="124.93" ry="124.93" transform="translate(23.981 5.415)" fill="none" stroke="#283438" stroke-miterlimit="10" stroke-width="2" stroke-dasharray="4.008 4.008"/>
              <path id="Trazado_875698" data-name="Trazado 875698" d="M77.117,288.911c2.086-1.62,4.693-6.073,7.475-6.478s13.91-1.242,14.161-.362c.126.44-.63,1.833-1.835,2.749a9.469,9.469,0,0,1-2.863,1.354h29.7s-2.014,3.517-7.551,4.3-36.075,6.057-36.075,6.057" transform="translate(124.815 -123.15)" fill="#efbbb8"/>
              <path id="Trazado_875699" data-name="Trazado 875699" d="M112.126,291.669a12.968,12.968,0,0,0-4.143-.931,17.641,17.641,0,0,0-4.268.308,28.717,28.717,0,0,0-4.111,1.141,12.57,12.57,0,0,1-1.974.518,6.609,6.609,0,0,1-1.984-.01c-1.341-.176-2.677-.649-4.09-.927a19.553,19.553,0,0,0-4.279-.4,12.9,12.9,0,0,0-4.222.795,9.782,9.782,0,0,0-3.52,2.368,10.433,10.433,0,0,1,3.656-1.977,13.579,13.579,0,0,1,4.09-.527,20.927,20.927,0,0,1,4.108.526c1.348.285,2.685.77,4.142.98a7.444,7.444,0,0,0,2.228-.012,12.149,12.149,0,0,0,2.1-.577,33.137,33.137,0,0,1,3.99-1.253,16.409,16.409,0,0,1,8.275-.019" transform="translate(135.083 -127.098)" fill="#283438"/>
              <path id="Trazado_875700" data-name="Trazado 875700" d="M162.761,311.965l3.144,11.923s15.225-27.356,21.409-31.927,14.761-5.256,9.384,4.692S175.364,352.14,163,355.366s-23.127-35.315-23.127-35.315Z" transform="translate(14.856 -126.242)" fill="#efbbb8"/>
              <path id="Trazado_875701" data-name="Trazado 875701" d="M203.171,349.1a49.062,49.062,0,0,0-6.741,9.814c1.265-1.545,2.407-3.164,3.536-4.794s2.217-3.285,3.206-5.02" transform="translate(-21.753 -152.622)" fill="#283438"/>
              <path id="Trazado_875702" data-name="Trazado 875702" d="M191.9,252.235s3.281,1.477,9.1,7.514,15.523,41.394,15.523,41.394L194.536,308.9Z" transform="translate(-32.56 -110.275)" fill="#fff"/>
              <path id="Trazado_875703" data-name="Trazado 875703" d="M219.987,344.824c1.858-6.882,3.518-13.224,4-15.662,1.268-6.339-9.14-83.548-9.14-83.548S225.815,233,245.015,222.3c5.519,7.725,15.719,19.795,24.674,18.237,8.064-1.4,9.842-8.51,10.025-13.735,6.48,5.447,15.91,12.345,15.91,12.345s7.607,26.94,8.874,48.493c.762,12.952,1.982,39.442,2.834,58.522a177.662,177.662,0,0,1-87.344-1.34" transform="translate(-136.281 -97.189)" fill="#fff"/>
              <path id="Trazado_875704" data-name="Trazado 875704" d="M306.927,441.34c.566,12.668.97,22.072.97,22.072H213.129s3.481-12.4,6.454-23.412a177.661,177.661,0,0,0,87.344,1.34" transform="translate(-135.877 -192.365)" fill="#4f676f"/>
              <path id="Trazado_875705" data-name="Trazado 875705" d="M274.5,184.057l21.4,5.091s-.4,5.093-.509,9.44a36.787,36.787,0,0,1-21.436-8.307c.413-3.4.548-6.224.548-6.224" transform="translate(-158.105 -80.468)" fill="#283438"/>
              <path id="Trazado_875706" data-name="Trazado 875706" d="M292.9,88.614a6.311,6.311,0,0,0,4.069-8.048,8.722,8.722,0,0,1,1.541,6.05,9.333,9.333,0,0,0,4.582-7.456c.037-3.042-2.752-6.4-5.776-6.735a14.237,14.237,0,0,0,.346-15.779,21.264,21.264,0,0,0-8.151-6.736c-5.026-2.631-10.869-4.3-16.382-2.961a3.6,3.6,0,0,0-2.21,1.158c1.081-1.386.967-3.592.831-5.344a16.688,16.688,0,0,1-3.668,2.761c-3.247,1.611-7.15.944-10.586-.21s-6.79-2.777-10.407-3.013A13.914,13.914,0,0,0,232.3,57.029a14.457,14.457,0,0,0-7.761,6.562,14.25,14.25,0,0,0-1.63,9.955c.4-1.1,1.6-1.566,2.706-1.951a7.961,7.961,0,0,1,3.478-.262,15.252,15.252,0,0,0-6.987,8.733,13.29,13.29,0,0,0,1.451,10.311c2.145,3.514,5.779,5.8,9.284,7.96a23.219,23.219,0,0,0-.566,11.5c.836,3.576,3.449,6.913,7.028,7.742a6.7,6.7,0,0,1-.72-3.671c-.059.661.571,1.162,1.154,1.479a12.5,12.5,0,0,0,7.23,1.441" transform="translate(-135.868 -18.482)" fill="#283438"/>
              <path id="Trazado_875707" data-name="Trazado 875707" d="M243.334,133.5a12.17,12.17,0,0,1-2.87,6.614,9.193,9.193,0,0,1-3.708,2.786,4.785,4.785,0,0,1-4.193-.287,6.152,6.152,0,0,1-2.371-3.352,12.894,12.894,0,0,1,1.3-10.106c1.208-2.1,3.035-3.892,5.145-4.354,4.254-.93,7.081,4.371,6.7,8.7" transform="translate(-80.659 -54.516)" fill="#efbbb8"/>
              <g id="Grupo_1100076" data-name="Grupo 1100076" transform="translate(151.045 73.569)" opacity="0.5" style="mix-blend-mode: multiply;isolation: isolate">
                <g id="Grupo_1100075" data-name="Grupo 1100075" transform="translate(0)">
                  <g id="Grupo_1100074" data-name="Grupo 1100074" clip-path="url(#clip-path-9)">
                    <path id="Trazado_875708" data-name="Trazado 875708" d="M232.623,142.248a5.612,5.612,0,0,0,2.824-1.311,1.018,1.018,0,0,0,.449-.834,1.007,1.007,0,0,0-.254-.479,9.23,9.23,0,0,0-2.38-2.079,18.493,18.493,0,0,1,1.754-4.108,5.7,5.7,0,0,1,3.33-2.632,3.272,3.272,0,0,1,3.641,1.565s2.265,3.765-1.733,8.427c-4.217,4.917-7.632,1.451-7.632,1.451" transform="translate(-232.623 -130.718)" fill="#efbbb8"/>
                  </g>
                </g>
              </g>
              <path id="Trazado_875709" data-name="Trazado 875709" d="M243.123,132.107a3.149,3.149,0,0,0-2.641-1.96,4.434,4.434,0,0,0-3.313,1.092,7.98,7.98,0,0,0-2.094,2.75,21.854,21.854,0,0,0-1.176,3.125l-.135.414.361.2a8.739,8.739,0,0,1,1.509,1.08,9.105,9.105,0,0,1,.68.647,3.629,3.629,0,0,1,.279.319.29.29,0,0,1,.071.193,1.155,1.155,0,0,1-.428.6,6.626,6.626,0,0,1-.734.59,6.264,6.264,0,0,1-1.747.821,4.969,4.969,0,0,0,1.955-.444,5.414,5.414,0,0,0,.9-.505,1.743,1.743,0,0,0,.768-.911.992.992,0,0,0-.106-.748,3.935,3.935,0,0,0-.32-.46,10.022,10.022,0,0,0-.673-.781,9.563,9.563,0,0,0-1.607-1.3l.227.616a31.086,31.086,0,0,1,1.164-2.981,8.223,8.223,0,0,1,1.742-2.495,4.041,4.041,0,0,1,2.641-1.193,3.179,3.179,0,0,1,2.679,1.327" transform="translate(-82.713 -56.886)" fill="#283438"/>
              <path id="Trazado_875710" data-name="Trazado 875710" d="M241.552,96.654c2.4,15.818,4.448,47.333,33.525,45.123,21.792-1.656,24.162-36.982,21.767-52.8s-14.411-24.7-30.23-22.3-27.458,14.163-25.062,29.981" transform="translate(-141.394 -28.98)" fill="#efbbb8"/>
              <path id="Trazado_875711" data-name="Trazado 875711" d="M261.615,121.328A15.416,15.416,0,0,0,260,117.4a11.443,11.443,0,0,0-2.9-3.3,11.921,11.921,0,0,0-1.941-1.225,5.889,5.889,0,0,0-2.243-.58,6.182,6.182,0,0,0-2.307.3,4.467,4.467,0,0,0-1.938,1.208l.088.191a17.781,17.781,0,0,1,2.044.068,15.074,15.074,0,0,1,1.839.316l1.777.441a6.984,6.984,0,0,1,1.746.677,11.655,11.655,0,0,1,2.983,2.512,17.161,17.161,0,0,1,2.27,3.395Z" transform="translate(-109.6 -49.089)" fill="#283438"/>
              <path id="Trazado_875712" data-name="Trazado 875712" d="M286.409,120.849a14.115,14.115,0,0,1,2.53-3.475,9.812,9.812,0,0,1,3.388-2.234,7.055,7.055,0,0,1,1.929-.4l1.942-.158c.652-.053,1.315-.07,2.008-.068s1.4.06,2.2.105l.107-.2a5.349,5.349,0,0,0-1.91-1.462,7.083,7.083,0,0,0-2.35-.66,6.312,6.312,0,0,0-2.441.224,12.122,12.122,0,0,0-2.253.96,10.261,10.261,0,0,0-1.956,1.391,11.293,11.293,0,0,0-1.54,1.77,13.235,13.235,0,0,0-1.865,4.124Z" transform="translate(-169.614 -49.081)" fill="#283438"/>
              <path id="Trazado_875713" data-name="Trazado 875713" d="M281.961,161.716a16.832,16.832,0,0,1-3.4,3.375,6.388,6.388,0,0,1-4.228,1.307,6.979,6.979,0,0,1-4-1.985,20.055,20.055,0,0,1-3.081-3.695,12.074,12.074,0,0,0,2.5,4.276,8.345,8.345,0,0,0,1.978,1.631,3.612,3.612,0,0,0,.585.3,3.756,3.756,0,0,0,.615.244l.64.187.665.091a5.949,5.949,0,0,0,2.614-.375,7.772,7.772,0,0,0,2.207-1.334,10.939,10.939,0,0,0,2.9-4.021" transform="translate(-140.403 -70.265)" fill="#283438"/>
              <g id="Grupo_1100079" data-name="Grupo 1100079" transform="translate(117.677 82.141)" opacity="0.5" style="mix-blend-mode: multiply;isolation: isolate">
                <g id="Grupo_1100078" data-name="Grupo 1100078" transform="translate(0)">
                  <g id="Grupo_1100077" data-name="Grupo 1100077" clip-path="url(#clip-path-10)">
                    <path id="Trazado_875714" data-name="Trazado 875714" d="M295.5,151.317a4.052,4.052,0,1,0,2.516-5.148,4.052,4.052,0,0,0-2.516,5.148" transform="translate(-295.283 -145.948)" fill="#efbbb8"/>
                  </g>
                </g>
              </g>
              <g id="Grupo_1100082" data-name="Grupo 1100082" transform="translate(142.572 80.701)" opacity="0.5" style="mix-blend-mode: multiply;isolation: isolate">
                <g id="Grupo_1100081" data-name="Grupo 1100081" transform="translate(0)">
                  <g id="Grupo_1100080" data-name="Grupo 1100080" transform="translate(0)" clip-path="url(#clip-path-10)">
                    <path id="Trazado_875715" data-name="Trazado 875715" d="M251.271,148.759a4.052,4.052,0,1,0,2.516-5.148,4.052,4.052,0,0,0-2.516,5.148" transform="translate(-251.05 -143.39)" fill="#efbbb8"/>
                  </g>
                </g>
              </g>
              <path id="Trazado_875716" data-name="Trazado 875716" d="M268.733,129.647a5.664,5.664,0,0,0,.279,2.982,9.193,9.193,0,0,0,1.549,2.622c1.3,1.581,3.064,2.673,3.765,4.375a5.306,5.306,0,0,1-.778,5.209,6.716,6.716,0,0,1-5.05,2.407,6.336,6.336,0,0,0,5.554-1.982A5.779,5.779,0,0,0,275.1,139.3a7.588,7.588,0,0,0-1.887-2.482c-.747-.682-1.5-1.3-2.161-2a7.51,7.51,0,0,1-2.322-5.172" transform="translate(-134.655 -56.681)" fill="#283438"/>
              <path id="Trazado_875717" data-name="Trazado 875717" d="M264.528,129.213a11.57,11.57,0,0,1-1.283,3.3,4.585,4.585,0,0,1-1.1,1.234,3.086,3.086,0,0,1-1.467.54,2.983,2.983,0,0,1-1.536-.29,4.491,4.491,0,0,1-1.316-1.011,12.181,12.181,0,0,1-1.929-2.972,7.822,7.822,0,0,0,1.442,3.384,4.619,4.619,0,0,0,1.448,1.288,3.688,3.688,0,0,0,1.963.416,3.764,3.764,0,0,0,1.866-.741,4.689,4.689,0,0,0,1.187-1.539,7.622,7.622,0,0,0,.727-3.607" transform="translate(-116.582 -56.491)" fill="#283438"/>
              <path id="Trazado_875718" data-name="Trazado 875718" d="M298.875,130.227a11.571,11.571,0,0,1-1.283,3.3,4.585,4.585,0,0,1-1.1,1.234,3.081,3.081,0,0,1-1.467.54,2.988,2.988,0,0,1-1.536-.29A4.493,4.493,0,0,1,292.172,134a12.172,12.172,0,0,1-1.929-2.972,7.823,7.823,0,0,0,1.442,3.384,4.62,4.62,0,0,0,1.448,1.288,3.688,3.688,0,0,0,1.962.416,3.764,3.764,0,0,0,1.866-.741,4.689,4.689,0,0,0,1.187-1.539,7.629,7.629,0,0,0,.727-3.607" transform="translate(-170.26 -56.934)" fill="#283438"/>
              <path id="Trazado_875719" data-name="Trazado 875719" d="M237.356,109.96a43.066,43.066,0,0,0,6.914.306,14.189,14.189,0,0,0,6.593-1.677,56.409,56.409,0,0,1-2.887-22.971c7.967.159,16.035-4.616,18.963-12.027a12.77,12.77,0,0,0,7.184,10.13,30.221,30.221,0,0,1-.92-5.662,38.24,38.24,0,0,0,19.14,9.106,64.669,64.669,0,0,1-1.151,20.8,10.741,10.741,0,0,0,3.929.687c1.811-3.776,2.015-8.045,2.18-12.23a54.2,54.2,0,0,0-1.266-15.664,26.453,26.453,0,0,0-7.808-13.43c-4.235-3.7-9.774-5.536-15.273-6.713a44.02,44.02,0,0,0-12.586-1.121,23.006,23.006,0,0,0-11.832,4.088c-4.169,3.054-6.87,7.721-8.824,12.5a42.974,42.974,0,0,0-3.463,19.842c.383,4.377,1.2,9.638,1.107,14.031" transform="translate(-138.296 -25.969)" fill="#283438"/>
              <path id="Trazado_875720" data-name="Trazado 875720" d="M329,133.041a12.166,12.166,0,0,0,2.412,6.794,9.186,9.186,0,0,0,3.509,3.034,4.787,4.787,0,0,0,4.2,0,6.155,6.155,0,0,0,2.595-3.183,12.9,12.9,0,0,0-.609-10.172c-1.063-2.179-2.762-4.09-4.836-4.695-4.181-1.218-7.363,3.877-7.273,8.222" transform="translate(-235.683 -54.49)" fill="#efbbb8"/>
              <g id="Grupo_1100085" data-name="Grupo 1100085" transform="translate(94.988 73.49)" opacity="0.5" style="mix-blend-mode: multiply;isolation: isolate">
                <g id="Grupo_1100084" data-name="Grupo 1100084" transform="translate(0)">
                  <g id="Grupo_1100083" data-name="Grupo 1100083" clip-path="url(#clip-path-12)">
                    <path id="Trazado_875721" data-name="Trazado 875721" d="M342.612,142.531a5.607,5.607,0,0,1-2.728-1.5.8.8,0,0,1-.106-1.323,9.243,9.243,0,0,1,2.516-1.912,18.455,18.455,0,0,0-1.47-4.218,5.7,5.7,0,0,0-3.142-2.853,3.273,3.273,0,0,0-3.74,1.312s-2.516,3.6,1.155,8.526c3.871,5.193,7.515,1.968,7.515,1.968" transform="translate(-333.101 -130.577)" fill="#efbbb8"/>
                  </g>
                </g>
              </g>
              <path id="Trazado_875722" data-name="Trazado 875722" d="M332.574,131.786a3.18,3.18,0,0,1,2.764-1.141,4.037,4.037,0,0,1,2.553,1.37,8.22,8.22,0,0,1,1.567,2.608,31.176,31.176,0,0,1,.959,3.053l.268-.6a9.533,9.533,0,0,0-1.693,1.191,10.105,10.105,0,0,0-.724.733,4.021,4.021,0,0,0-.351.436,1,1,0,0,0-.157.739,1.743,1.743,0,0,0,.7.961,5.47,5.47,0,0,0,.86.565,4.968,4.968,0,0,0,1.921.577,6.256,6.256,0,0,1-1.687-.938,6.6,6.6,0,0,1-.692-.639,1.145,1.145,0,0,1-.385-.631.292.292,0,0,1,.083-.189,3.988,3.988,0,0,1,.3-.3,9,9,0,0,1,.721-.6,8.764,8.764,0,0,1,1.581-.975l.373-.177-.105-.422a21.784,21.784,0,0,0-.96-3.2,7.983,7.983,0,0,0-1.9-2.887,4.436,4.436,0,0,0-3.231-1.316,3.151,3.151,0,0,0-2.769,1.775" transform="translate(-236.744 -56.837)" fill="#283438"/>
              <path id="Trazado_875723" data-name="Trazado 875723" d="M240.353,60.07a30.89,30.89,0,0,1,6.737,1.462,19.727,19.727,0,0,1,5.953,3.234,15.478,15.478,0,0,1,4.187,5.254,13.09,13.09,0,0,1,1.342,6.645,11.476,11.476,0,0,0-.742-6.916,14.6,14.6,0,0,0-4.257-5.639,17.942,17.942,0,0,0-6.284-3.2,22.18,22.18,0,0,0-6.936-.837" transform="translate(-102.114 -26.256)" fill="#4f676f"/>
              <path id="Trazado_875724" data-name="Trazado 875724" d="M252.252,68.323a13.036,13.036,0,0,1,4.316-6.054,9.531,9.531,0,0,1,3.3-1.659,8.424,8.424,0,0,1,3.649-.154,28.222,28.222,0,0,1,3.627.972,19.953,19.953,0,0,0,3.768.829,14.145,14.145,0,0,0,7.632-1.137l-.558-.5a10.333,10.333,0,0,1-4.564,5.4l-3.187,1.808,3.5-1.066a25.949,25.949,0,0,1,7.313-1.105,29.611,29.611,0,0,1,7.369.885,28.815,28.815,0,0,1,6.921,2.749,27.153,27.153,0,0,1,5.987,4.489,25.608,25.608,0,0,0-5.8-4.809,27.971,27.971,0,0,0-6.953-3.006,27.305,27.305,0,0,0-7.526-1.05,26.732,26.732,0,0,0-7.542,1.071l.313.742a10.726,10.726,0,0,0,4.934-5.837l.322-.928-.88.427a13.37,13.37,0,0,1-7.2,1.13c-2.472-.208-4.8-1.279-7.385-1.654a8.987,8.987,0,0,0-3.875.27,9.448,9.448,0,0,0-3.39,1.843,12.82,12.82,0,0,0-4.086,6.345" transform="translate(-151.32 -26.13)" fill="#4f676f"/>
              <path id="Trazado_875725" data-name="Trazado 875725" d="M308.669,84.569a12.368,12.368,0,0,1,4.541-2.6,14.654,14.654,0,0,1,5.129-.684,19.6,19.6,0,0,1,5.133.949,36.192,36.192,0,0,1,4.914,2.029,20.124,20.124,0,0,0-4.694-2.649,16.381,16.381,0,0,0-5.318-1.172,13.082,13.082,0,0,0-5.389.911,10.008,10.008,0,0,0-4.317,3.22" transform="translate(-210.137 -35.163)" fill="#4f676f"/>
              <path id="Trazado_875726" data-name="Trazado 875726" d="M334.174,94.235a14.485,14.485,0,0,1,1.881,2.785,11.878,11.878,0,0,1,1.273,6.365,14.494,14.494,0,0,1-.663,3.294,8.145,8.145,0,0,0,1.316-3.207,9.216,9.216,0,0,0-1.359-6.781,8.174,8.174,0,0,0-2.448-2.455" transform="translate(-234.244 -41.199)" fill="#4f676f"/>
              <path id="Trazado_875727" data-name="Trazado 875727" d="M348.823,100.167a4.609,4.609,0,0,1,.361,2.21,11.987,11.987,0,0,1-.33,2.21,12.743,12.743,0,0,1-.711,2.127,19.94,19.94,0,0,1-1.063,2.058,6.843,6.843,0,0,0,2.594-3.987,7.25,7.25,0,0,0,.166-2.433,3.238,3.238,0,0,0-1.017-2.185" transform="translate(-253.248 -43.792)" fill="#4f676f"/>
              <path id="Trazado_875728" data-name="Trazado 875728" d="M290.58,225.3c-8.447,1.469-18.319-12.645-21.4-17.427a23.12,23.12,0,0,0,1.775-1.987c1.468-2.033,2.328-6.8,2.81-10.77a36.783,36.783,0,0,0,21.436,8.307,29.534,29.534,0,0,0,.192,5.457c.138.625,1.267,1.859,2.943,3.4.267,3.854-.157,11.694-7.759,13.016" transform="translate(-157.923 -85.303)" fill="#efbbb8"/>
              <path id="Trazado_875729" data-name="Trazado 875729" d="M288.6,238.564c-8.954,1.557-19.155-10.512-24.674-18.237.98-.966,1.834-1.824,2.528-2.543,3.077,4.782,12.949,18.9,21.4,17.427,7.6-1.323,8.026-9.162,7.759-13.017.875.807,1.9,1.7,3.016,2.635-.183,5.226-1.961,12.333-10.025,13.735" transform="translate(-155.191 -95.213)" fill="#b8594b"/>
              <path id="Trazado_875730" data-name="Trazado 875730" d="M220.322,285.038c-.93-14.289-3.349-32.964-7.193-46.742,2.69-2.495,9.632-6.71,9.632-6.71s11.7,12.095,15.921,36.115c14.258,2.511,27.6.653,41.66-2.781a161.875,161.875,0,0,0-4.414-26.343c3.493,2.662,6.183,4.63,6.183,4.63s7.607,26.94,8.874,48.493,3.8,80.594,3.8,80.594H219.03c4.123-28.81,3.184-58.177,1.292-87.257" transform="translate(-122.768 -101.248)" fill="#6ea485"/>
              <path id="Trazado_875731" data-name="Trazado 875731" d="M240.709,248.111q.141.545.277,1.091" transform="translate(-84.489 -108.472)" fill="none" stroke="#283438" stroke-miterlimit="10" stroke-width="1"/>
              <path id="Trazado_875732" data-name="Trazado 875732" d="M234.02,253.883a141.014,141.014,0,0,1,3.243,20.819" transform="translate(-77.001 -110.996)" fill="none" stroke="#283438" stroke-miterlimit="10" stroke-width="1" stroke-dasharray="3.944 3.944"/>
              <path id="Trazado_875733" data-name="Trazado 875733" d="M234.763,292.841q.041.561.076,1.123-.551.11-1.1.218" transform="translate(-74.416 -128.028)" fill="none" stroke="#283438" stroke-miterlimit="10" stroke-width="1"/>
              <path id="Trazado_875734" data-name="Trazado 875734" d="M280.562,296.007c-13.4,2.5-27.2,3.988-40.777,3.1" transform="translate(-123.544 -129.412)" fill="none" stroke="#283438" stroke-miterlimit="10" stroke-width="1" stroke-dasharray="4.163 4.163"/>
              <path id="Trazado_875735" data-name="Trazado 875735" d="M315.616,300.432q-.561-.042-1.122-.091s-.056-.395-.179-1.109" transform="translate(-200.544 -130.822)" fill="none" stroke="#283438" stroke-miterlimit="10" stroke-width="1"/>
              <path id="Trazado_875736" data-name="Trazado 875736" d="M331.34,269.938a103,103,0,0,0-4.894-16.959,61.074,61.074,0,0,0-9.073-15.572" transform="translate(-217.99 -103.793)" fill="none" stroke="#283438" stroke-miterlimit="10" stroke-width="1" stroke-dasharray="4.098 4.098"/>
              <path id="Trazado_875737" data-name="Trazado 875737" d="M344.243,235.169c-.469-.552-.742-.843-.742-.843" transform="translate(-245.597 -102.445)" fill="none" stroke="#283438" stroke-miterlimit="10" stroke-width="1"/>
              <path id="Trazado_875738" data-name="Trazado 875738" d="M298.363,420.652c-11.3,1.284-22.631,2.422-34,2.821a161.876,161.876,0,0,1-33.378-1.808,83.422,83.422,0,0,1-16.688-4.592,1.451,1.451,0,0,1-.983-1.731,1.417,1.417,0,0,1,1.731-.983c9.7,3.874,20.15,5.523,30.532,6.144a238.8,238.8,0,0,0,33.9-.762c6.306-.522,12.6-1.189,18.887-1.9a1.415,1.415,0,0,1,1.407,1.407,1.44,1.44,0,0,1-1.407,1.407" transform="translate(-127.824 -181.123)" fill="#457756"/>
              <path id="Trazado_875739" data-name="Trazado 875739" d="M272.54,305.567a177.634,177.634,0,0,1-20.66,3.837c-8.854.886-21.545-.885-21.545-.885s-2.656,44.272,24.2,42.8c26.254-1.442,18-45.747,18-45.747" transform="translate(-111.392 -133.591)" fill="#457756"/>
              <path id="Trazado_875740" data-name="Trazado 875740" d="M287.612,431.567a249.257,249.257,0,0,1-72.306,1.047" transform="translate(-116.817 -188.678)" fill="none" stroke="#283438" stroke-miterlimit="10" stroke-width="1" stroke-dasharray="4 4"/>
              <path id="Trazado_875741" data-name="Trazado 875741" d="M101.088,221.192a55.893,55.893,0,0,1,6.607,18.556,47.693,47.693,0,0,0-1.48-21.047,55.233,55.233,0,0,1,5.628-2.041,50.1,50.1,0,0,1,5.832,24.174,73.1,73.1,0,0,0,.87-25.722,44.881,44.881,0,0,1,5.322-.527,38.12,38.12,0,0,1,3.907.058,51.027,51.027,0,0,1,2.26,24.272,45.465,45.465,0,0,0,2.932-23.592,46.17,46.17,0,0,1,10.221,3.313,46.957,46.957,0,0,1,.122,20.642,36.1,36.1,0,0,0,3.646-18.731c12.2,6.841,20.606,18.109,19.675,26.024-1.39,11.821-77.7,11.575-83.093,0-3.512-7.534,4.914-18.441,17.551-25.379" transform="translate(78.706 -93.804)" fill="#c5783c"/>
              <path id="Trazado_875742" data-name="Trazado 875742" d="M172.8,241.263a50.1,50.1,0,0,0-5.832-24.174,50.57,50.57,0,0,1,6.7-1.547,73.093,73.093,0,0,1-.87,25.721" transform="translate(23.577 -94.233)" fill="#deb873"/>
              <path id="Trazado_875743" data-name="Trazado 875743" d="M193.2,242.964a55.915,55.915,0,0,0-6.607-18.556c1.643-.9,3.357-1.739,5.127-2.491a47.7,47.7,0,0,1,1.48,21.047" transform="translate(-6.796 -97.02)" fill="#deb873"/>
              <path id="Trazado_875744" data-name="Trazado 875744" d="M117.762,242.445a46.949,46.949,0,0,0-.122-20.642q1.935.881,3.768,1.91a36.1,36.1,0,0,1-3.646,18.732" transform="translate(104.252 -96.971)" fill="#deb873"/>
              <path id="Trazado_875745" data-name="Trazado 875745" d="M144.136,238.98a51.013,51.013,0,0,0-2.26-24.272,40.657,40.657,0,0,1,5.192.68,45.465,45.465,0,0,1-2.932,23.592" transform="translate(64.604 -93.869)" fill="#deb873"/>
              <rect id="Rectángulo_401665" data-name="Rectángulo 401665" width="102.024" height="4.366" transform="translate(152.57 158.587)" fill="#5c8884"/>
              <path id="Trazado_875746" data-name="Trazado 875746" d="M151.424,149.08a26.215,26.215,0,0,0-1.4-14.648c-1.758-4.7-4.524-8.976-6.138-13.724a30.469,30.469,0,0,1-.833-16.558c-2.609,5.367-4.831,11.258-4.032,17.172.787,5.831,4.386,10.849,6.461,16.356a32.435,32.435,0,0,1,1.834,15.315c-.266,2.171-1.194,4.055-1.717,6.07a17.7,17.7,0,0,0,5.826-9.983" transform="translate(61.902 -45.534)" fill="#fbf3eb"/>
              <path id="Trazado_875747" data-name="Trazado 875747" d="M159.144,183.046c2.279-4.967,2.745-10.97.274-15.844-1.69-3.335-4.611-5.948-6.148-9.357-1.172,4.312,1.287,9.5,3.268,13.5s4.046,7.468,2.606,11.7" transform="translate(44.807 -69.009)" fill="#fbf3eb"/>
              <path id="Trazado_875748" data-name="Trazado 875748" d="M340.324,356.379l18.514-2.766-4.692-11.73Z" transform="translate(-258.405 -149.468)" fill="#283438"/>
              <path id="Trazado_875749" data-name="Trazado 875749" d="M137.694,287.32c2.429-1.62,5.466-6.073,8.7-6.478s19.654-3.33,19.948-2.45a5.5,5.5,0,0,1-2.038,3.833c-1.4.916-6.889,2.359-6.889,2.359h34.587s-2.345,3.517-8.793,4.3S141.2,294.94,141.2,294.94" transform="translate(22.47 -121.639)" fill="#efbbb8"/>
              <path id="Trazado_875750" data-name="Trazado 875750" d="M169.255,289.879a8.15,8.15,0,0,1-2.846,1.529,16.9,16.9,0,0,1-3.164.653c-1.076.121-2.165.216-3.255.3s-2.176.171-3.267.231c-4.358.286-8.721.382-13.111.465a72.186,72.186,0,0,0,13.16.315c2.2-.153,4.375-.346,6.561-.707a14.746,14.746,0,0,0,3.209-.9,7.549,7.549,0,0,0,2.711-1.885" transform="translate(41.89 -126.733)" fill="#283438"/>
              <path id="Trazado_875751" data-name="Trazado 875751" d="M235.754,319.772l2.529,11.708s38.06-38.692,44.245-43.263,12.6-1.507,7.223,8.442-40.175,56.6-52.543,59.826-24.467-33.072-24.467-33.072Z" transform="translate(-119.526 -125.1)" fill="#efbbb8"/>
              <path id="Trazado_875752" data-name="Trazado 875752" d="M308.284,345.326c-1.991,1.611-3.891,3.33-5.743,5.093s-3.669,3.562-5.467,5.378-3.56,3.666-5.3,5.535-3.462,3.759-5.165,5.67c1.934-1.678,3.8-3.425,5.635-5.208s3.638-3.59,5.434-5.406,3.567-3.655,5.328-5.5Z" transform="translate(-177.618 -150.974)" fill="#283438"/>
              <path id="Trazado_875753" data-name="Trazado 875753" d="M352.8,297.89s-4.414-24.478-9.229-38.523a108.68,108.68,0,0,0-11.035-23.274s-15.248,7.825-19.261,17.656,5.217,56.379,5.217,56.379,12.439-6.421,18.86-8.627A109.7,109.7,0,0,1,352.8,297.89" transform="translate(-236.568 -103.218)" fill="#fff"/>
              <path id="Trazado_875754" data-name="Trazado 875754" d="M172.93,289.352a11.541,11.541,0,0,1-3.563,2.87,12.381,12.381,0,0,1-4.343,1.3c-1.515.195-3.068.331-4.606.519s-3.076.391-4.611.607q-4.6.662-9.183,1.422l-9.167,1.522c1.548-.095,3.09-.254,4.634-.4l4.617-.538c3.077-.369,6.141-.815,9.208-1.237,3.07-.456,6.117-.8,9.207-1.285a12.892,12.892,0,0,0,4.439-1.567,10.855,10.855,0,0,0,3.369-3.215" transform="translate(41.68 -126.502)" fill="#283438"/>
            </g>
          </g>
        </g>
      </g>
    </g>
  </g>
</svg>
