<svg xmlns="http://www.w3.org/2000/svg" width="89" height="89" viewBox="0 0 89 89">
  <g id="Grupo_1099766" data-name="Grupo 1099766" transform="translate(-1251.346 -413.337)">
    <g id="Grupo_1098742" data-name="Grupo 1098742" transform="translate(48.025 24.595)">
      <g id="Rect치ngulo_400898" data-name="Rect치ngulo 400898" transform="translate(1203.32 388.742)" fill="#fff" stroke="#fff" stroke-width="3" opacity="0.859">
        <rect width="89" height="89" rx="44.5" stroke="none"/>
        <rect x="1.5" y="1.5" width="86" height="86" rx="43" fill="none"/>
      </g>
      <rect id="Rect치ngulo_400907" data-name="Rect치ngulo 400907" width="89" height="89" rx="44.5" transform="translate(1203.32 388.742)" fill="#1d3fbb"/>
    </g>
    <g id="batidora-de-mano" transform="translate(1238.425 424.336)">
      <g id="Grupo_1099779" data-name="Grupo 1099779" transform="translate(37.098 0)">
        <g id="Grupo_1099775" data-name="Grupo 1099775" transform="translate(0 0)">
          <g id="Grupo_1099767" data-name="Grupo 1099767" transform="translate(0.322)">
            <path id="Trazado_873960" data-name="Trazado 873960" d="M109.143,33.183,104.556,35.8l-3.384-3.384a1.367,1.367,0,0,1,.29-2.155l3.03-1.727Z" transform="translate(-100.771 -24.812)" fill="#1682ad"/>
            <path id="Trazado_873961" data-name="Trazado 873961" d="M133.955,8.372l2.615-4.587L133.186.4a1.367,1.367,0,0,0-2.155.29L129.3,3.721Z" transform="translate(-125.583 0)" fill="#0d5f7f"/>
          </g>
          <g id="Grupo_1099774" data-name="Grupo 1099774" transform="translate(0 2.595)">
            <g id="Grupo_1099771" data-name="Grupo 1099771" transform="translate(0 28.504)">
              <g id="Grupo_1099770" data-name="Grupo 1099770" transform="translate(0 1.363)">
                <g id="Grupo_1099768" data-name="Grupo 1099768">
                  <path id="Trazado_873962" data-name="Trazado 873962" d="M106.9,283.256h-2.356a6.255,6.255,0,0,1-6.248-6.248V268.97a6.232,6.232,0,0,1,2.808-5.216l1.709-1.127a4.252,4.252,0,0,0,1.916-3.559v-9.12a.992.992,0,1,1,1.985,0v9.12a4.252,4.252,0,0,0,1.916,3.559l1.709,1.127a6.231,6.231,0,0,1,2.808,5.216v8.037A6.255,6.255,0,0,1,106.9,283.256Zm-1.178-20.8a6.248,6.248,0,0,1-1.816,1.833l-1.709,1.127a4.252,4.252,0,0,0-1.916,3.559v8.037a4.268,4.268,0,0,0,4.263,4.263H106.9a4.268,4.268,0,0,0,4.263-4.263V268.97a4.252,4.252,0,0,0-1.916-3.559l-1.709-1.127A6.251,6.251,0,0,1,105.726,262.451Z" transform="translate(-98.3 -248.956)" fill="#0d5f7f"/>
                </g>
                <g id="Grupo_1099769" data-name="Grupo 1099769" transform="translate(3.967 4.703)">
                  <path id="Trazado_873963" data-name="Trazado 873963" d="M132.633,314.617h-.9c-2.067,0-3.008-3.239-3.008-6.248v-8.037a10.2,10.2,0,0,1,1.04-4.887l.655-1.127a8.506,8.506,0,0,0,.771-3.889v-4.417a.992.992,0,1,1,1.985,0v4.417a8.508,8.508,0,0,0,.771,3.889l.655,1.127a10.2,10.2,0,0,1,1.04,4.887v8.037C135.641,311.378,134.7,314.617,132.633,314.617Zm-.861-1.985h.818c.321-.2,1.065-1.676,1.065-4.263v-8.037a8.508,8.508,0,0,0-.771-3.889l-.655-1.127-.048-.084-.048.084-.655,1.127a8.506,8.506,0,0,0-.771,3.889v8.037C130.707,310.957,131.452,312.435,131.772,312.632Z" transform="translate(-128.722 -285.02)" fill="#1682ad"/>
                </g>
              </g>
              <path id="Trazado_873964" data-name="Trazado 873964" d="M138.062,245.244h-2.532a1.5,1.5,0,0,1-1.5-1.5V238.5h5.535v5.242A1.5,1.5,0,0,1,138.062,245.244Z" transform="translate(-129.37 -238.5)" fill="#0d5f7f"/>
            </g>
            <g id="Grupo_1099773" data-name="Grupo 1099773" transform="translate(1.231)">
              <path id="Trazado_873965" data-name="Trazado 873965" d="M155.736,37.283l-3.369-4.091V26.9a6.993,6.993,0,0,0-6.992-6.994H119.091a9.433,9.433,0,0,0-9.236,7.486,109.619,109.619,0,0,0-2.116,20.984,1.838,1.838,0,0,0,1.838,1.861h45.661a1.572,1.572,0,0,0,1.573-1.573V40.282a4.719,4.719,0,0,0-1.075-3Zm-8.089-5.861a1.331,1.331,0,0,1-1.329,1.33h-12.17a6.8,6.8,0,0,1-6.8-6.8,1.332,1.332,0,0,1,1.33-1.33h16.695a2.275,2.275,0,0,1,2.272,2.274v4.523Z" transform="translate(-107.739 -19.904)" fill="#89e6cf"/>
              <path id="Trazado_873966" data-name="Trazado 873966" d="M155.736,37.283l-3.369-4.091V26.9a6.993,6.993,0,0,0-6.992-6.994H119.091a9.433,9.433,0,0,0-9.236,7.486,109.619,109.619,0,0,0-2.116,20.984,1.838,1.838,0,0,0,1.838,1.861h45.661a1.572,1.572,0,0,0,1.573-1.573V40.282a4.719,4.719,0,0,0-1.075-3Zm-8.089-5.861a1.331,1.331,0,0,1-1.329,1.33h-12.17a6.8,6.8,0,0,1-6.8-6.8,1.332,1.332,0,0,1,1.33-1.33h16.695a2.275,2.275,0,0,1,2.272,2.274v4.523Z" transform="translate(-107.739 -19.904)" fill="#64e0c4"/>
              <path id="Trazado_873967" data-name="Trazado 873967" d="M382.194,40.279V48.66a1.571,1.571,0,0,1-1.573,1.573h-3.842a1.573,1.573,0,0,0,1.573-1.573V41.6a4.717,4.717,0,0,0-1.075-3l-3.066-3.724a1.321,1.321,0,0,1-.3-.842V26.895a6.993,6.993,0,0,0-6.991-6.994h3.842a6.993,6.993,0,0,1,6.993,6.994v6.294l3.368,4.09a4.719,4.719,0,0,1,1.074,3Z" transform="translate(-333.121 -19.901)" fill="#27d1b3"/>
              <path id="Trazado_873968" data-name="Trazado 873968" d="M144.572,175.4v2.349A1.573,1.573,0,0,1,143,179.319H108.26c.066-1.943.171-3.775.305-5.5H143A1.574,1.574,0,0,1,144.572,175.4Z" transform="translate(-108.192 -153.752)" fill="#fff1e2"/>
              <path id="Trazado_873969" data-name="Trazado 873969" d="M350.35,175.4v2.349a1.574,1.574,0,0,1-1.573,1.573h-3.883a1.575,1.575,0,0,0,1.573-1.573V175.4a1.574,1.574,0,0,0-1.573-1.573h3.883A1.573,1.573,0,0,1,350.35,175.4Z" transform="translate(-313.97 -153.755)" fill="#fee7c9"/>
              <g id="Grupo_1099772" data-name="Grupo 1099772" transform="translate(44.503 20.696)">
                <path id="Trazado_873970" data-name="Trazado 873970" d="M450.023,178.619a.993.993,0,1,0,0,1.985H453.6v-1.985Z" transform="translate(-449.03 -178.619)" fill="#094c66"/>
                <path id="Trazado_873971" data-name="Trazado 873971" d="M450.023,208.355a.993.993,0,0,0,0,1.985H453.6v-1.985h-3.578Z" transform="translate(-449.03 -204.478)" fill="#094c66"/>
              </g>
            </g>
          </g>
        </g>
        <g id="Grupo_1099777" data-name="Grupo 1099777" transform="translate(8.312 6.323)">
          <g id="Grupo_1099776" data-name="Grupo 1099776" transform="translate(0 0.992)">
            <circle id="Elipse_11528" data-name="Elipse 11528" cx="2.029" cy="2.029" r="2.029" fill="#fff1e2"/>
          </g>
          <path id="Trazado_873972" data-name="Trazado 873972" d="M212.285,50.479H211.27a.992.992,0,0,1,0-1.985h1.014a.992.992,0,1,1,0,1.985Z" transform="translate(-203.988 -48.494)" fill="#094c66"/>
        </g>
        <g id="Grupo_1099778" data-name="Grupo 1099778" transform="translate(6.434 17.487)">
          <path id="Trazado_873973" data-name="Trazado 873973" d="M155.228,136.094h-6.594a.992.992,0,1,1,0-1.985h6.594a.992.992,0,1,1,0,1.985Z" transform="translate(-147.642 -134.109)" fill="#fff1e2"/>
          <path id="Trazado_873974" data-name="Trazado 873974" d="M234.625,136.093h-1.79a.992.992,0,1,1,0-1.985h1.79a.992.992,0,1,1,0,1.985Z" transform="translate(-220.863 -134.108)" fill="#fff1e2"/>
        </g>
      </g>
      <path id="Trazado_873975" data-name="Trazado 873975" d="M33.624,400.592a.992.992,0,0,1-.257-.034c-3.614-.968-5.446-2.33-5.446-4.051s1.832-3.083,5.446-4.051a.993.993,0,0,1,.513,1.917c-2.9.775-3.974,1.72-3.974,2.134s1.079,1.358,3.974,2.133a.992.992,0,0,1-.256,1.951Z" transform="translate(0 -341.252)" fill="#1682ad"/>
      <g id="Grupo_1099780" data-name="Grupo 1099780" transform="translate(53.76 47.477)">
        <path id="Trazado_873976" data-name="Trazado 873976" d="M227.07,400a.993.993,0,0,1-.239-1.956c3.564-.887,4.365-1.937,4.365-2.234s-.8-1.347-4.365-2.234a.992.992,0,0,1,.479-1.926c3.841.956,5.871,2.395,5.871,4.161s-2.03,3.2-5.871,4.161A1,1,0,0,1,227.07,400Z" transform="translate(-226.078 -388.029)" fill="#1682ad"/>
        <path id="Trazado_873977" data-name="Trazado 873977" d="M239.033,366.881a.992.992,0,0,1-.352-.065,22.012,22.012,0,0,0-2.468-.759.992.992,0,1,1,.479-1.926,24.042,24.042,0,0,1,2.692.829.993.993,0,0,1-.352,1.921Z" transform="translate(-234.237 -364.101)" fill="#0d5f7f"/>
      </g>
      <path id="Trazado_873978" data-name="Trazado 873978" d="M44.951,464.053a1,1,0,0,1-.171-.015,20.021,20.021,0,0,1-4.688-1.3.992.992,0,0,1,.841-1.8,18.657,18.657,0,0,0,4.186,1.144.993.993,0,0,1-.169,1.971Z" transform="translate(-10.087 -400.752)" fill="#0d5f7f"/>
    </g>
  </g>
</svg>
