<svg xmlns="http://www.w3.org/2000/svg" width="89" height="89" viewBox="0 0 89 89">
  <g id="Grupo_1099557" data-name="Grupo 1099557" transform="translate(-1251.346 -413.337)">
    <g id="Grupo_1098742" data-name="Grupo 1098742" transform="translate(48.025 24.595)">
      <g id="Rect치ngulo_400898" data-name="Rect치ngulo 400898" transform="translate(1203.32 388.742)" fill="#fff" stroke="#fff" stroke-width="3" opacity="0.859">
        <rect width="89" height="89" rx="44.5" stroke="none"/>
        <rect x="1.5" y="1.5" width="86" height="86" rx="43" fill="none"/>
      </g>
      <rect id="Rect치ngulo_400907" data-name="Rect치ngulo 400907" width="89" height="89" rx="44.5" transform="translate(1203.32 388.742)" fill="#0e1f5d"/>
    </g>
    <g id="mezclador" transform="translate(1271.346 430.337)">
      <path id="Trazado_873950" data-name="Trazado 873950" d="M101.955,96.909l2.865-1.8-2.272-3.6a.834.834,0,0,1,1.412-.888l2.272,3.6,2.9-1.825a1.258,1.258,0,0,1,1.735.395l3.05,4.845a5.229,5.229,0,0,1-1.638,7.2l-.466.293a5.189,5.189,0,0,1-2.772.8,5.266,5.266,0,0,1-1.168-.132,5.188,5.188,0,0,1-3.262-2.311l-3.049-4.845a1.259,1.259,0,0,1,.394-1.735ZM112.5,98.52l-2.831-4.5-2.55,1.605,4.715,7.461A3.56,3.56,0,0,0,112.5,98.52Zm-6.483,4.081a3.555,3.555,0,0,0,4.4,1.376l-4.715-7.461L103.19,98.1Z" transform="translate(-73.26 -80.493)" fill="#b5adb6"/>
      <ellipse id="Elipse_11526" data-name="Elipse 11526" cx="6.043" cy="6.043" rx="6.043" ry="6.043" transform="translate(6.997 25.205)" fill="#0182fc"/>
      <path id="Trazado_873951" data-name="Trazado 873951" d="M153.709,14.918,177.108.759a5.253,5.253,0,0,1,7.232,1.806l2.307,3.873a1.753,1.753,0,0,1-.586,2.39L170.61,18.349a3.335,3.335,0,0,0-1.254,4.29l1.287,2.666a.884.884,0,0,1-.347,1.146l-12.232,7.22-.367-.091-6.087-10.36a6.094,6.094,0,0,1,2.1-8.3Z" transform="translate(-150.769 0)" fill="#c4e2ff"/>
      <path id="Trazado_873952" data-name="Trazado 873952" d="M397.833,157.37a6.127,6.127,0,0,0,.457.963l8.221,14.388-2.259,1.333-.367-.091L397.8,163.6a6.092,6.092,0,0,1,.035-6.233Z" transform="translate(-396.958 -140.384)" fill="#b3dafe"/>
      <path id="Trazado_873953" data-name="Trazado 873953" d="M51.718,266.224v8.66a12.593,12.593,0,1,1-25.185,0v-8.66a1.237,1.237,0,0,1,1.237-1.237H50.481A1.237,1.237,0,0,1,51.718,266.224Z" transform="translate(-2.184 -236.385)" fill="#e2dee2"/>
      <path id="Trazado_873954" data-name="Trazado 873954" d="M92.444,264.986h2.1c0,.041-.006.083-.006.126v8.66a12.6,12.6,0,0,0,14.869,12.387,12.6,12.6,0,0,1-18.2-11.275v-8.66A1.237,1.237,0,0,1,92.444,264.986Z" transform="translate(-66.858 -236.385)" fill="#cbc4cc"/>
      <g id="Grupo_1099765" data-name="Grupo 1099765" transform="translate(5.643 33.029)">
        <path id="Trazado_873955" data-name="Trazado 873955" d="M56.7,306.007a.6.6,0,0,1,.6.624c-.108,2.192-.224,10.314,3.542,14.079,3.283,3.283,14.2,1.649,19.48.621a3.561,3.561,0,0,1,3.655,5.447l-.648.988a1.048,1.048,0,0,1-.877.474H43.983a1.611,1.611,0,0,1-1.611-1.611V306.6a.6.6,0,0,1,.6-.6H56.7Z" transform="translate(-42.372 -306.007)" fill="#60b7ff"/>
        <path id="Trazado_873956" data-name="Trazado 873956" d="M43.1,306.007h2.517v14.231a4.889,4.889,0,0,0,4.889,4.889H84.67a3.557,3.557,0,0,1-.568,1.651l-.648.988a1.048,1.048,0,0,1-.877.474H44.113A1.611,1.611,0,0,1,42.5,326.63V306.6A.6.6,0,0,1,43.1,306.007Z" transform="translate(-42.502 -306.007)" fill="#26a6fe"/>
      </g>
      <path id="Trazado_873957" data-name="Trazado 873957" d="M114.115,313.592h4.7a.888.888,0,0,0,.888-.888V311a.888.888,0,0,0-.888-.888h-4.7a.888.888,0,0,0-.888.888v1.7A.888.888,0,0,0,114.115,313.592Z" transform="translate(-79.52 -276.64)" fill="#b5adb6"/>
      <ellipse id="Elipse_11527" data-name="Elipse 11527" cx="3.131" cy="3.132" rx="3.131" ry="3.132" transform="translate(10.216 43.637)" fill="#d8ecfe"/>
      <path id="Trazado_873958" data-name="Trazado 873958" d="M354.91,393.7a.834.834,0,0,0,.834-.834v-3.079a.834.834,0,1,0-1.668,0v3.079A.834.834,0,0,0,354.91,393.7Z" transform="translate(-341.562 -346.973)" fill="#b3dafe"/>
      <path id="Trazado_873959" data-name="Trazado 873959" d="M318.5,338.361h1.422a.834.834,0,0,0,0-1.668H318.5a.834.834,0,1,0,0,1.668Z" transform="translate(-302.648 -300.352)" fill="#c4e2ff"/>
    </g>
  </g>
</svg>
