<svg xmlns="http://www.w3.org/2000/svg" width="89" height="89" viewBox="0 0 89 89">
  <g id="Grupo_1098766" data-name="Grupo 1098766" transform="translate(0 0.242)">
    <g id="Grupo_1098742" data-name="Grupo 1098742" transform="translate(0 -0.242)">
      <g id="Rect치ngulo_400898" data-name="Rect치ngulo 400898" fill="#fff" stroke="#fff" stroke-width="3" opacity="0.859">
        <rect width="89" height="89" rx="44.5" stroke="none"/>
        <rect x="1.5" y="1.5" width="86" height="86" rx="43" fill="none"/>
      </g>
      <rect id="Rect치ngulo_400907" data-name="Rect치ngulo 400907" width="89" height="89" rx="44.5" transform="translate(0)" fill="#c8f9f3"/>
    </g>
    <g id="_049---Pastry-Wheel" data-name="049---Pastry-Wheel" transform="translate(15.996 15.755)">
      <path id="Shape" d="M27.62,36.77a4.47,4.47,0,0,1-.2.9A1.73,1.73,0,0,1,25.73,39,1.72,1.72,0,0,0,24,40.73v.54A1.72,1.72,0,0,0,25.73,43a1.72,1.72,0,0,1,1.22.51,2.54,2.54,0,0,1,.62,1.39,1.76,1.76,0,0,1-.79,2,1.74,1.74,0,0,0-.64,2.36l.27.46a1.74,1.74,0,0,0,2.37.64,1.75,1.75,0,0,1,2.12.31l.41.42a1.74,1.74,0,0,1,.33,2.12,1.73,1.73,0,0,0,.63,2.37l.47.27a1.74,1.74,0,0,0,2.36-.64,1.73,1.73,0,0,1,2-.78l.57.14A1.73,1.73,0,0,1,39,56.27,1.72,1.72,0,0,0,40.73,58h.54A1.72,1.72,0,0,0,43,56.27a1.76,1.76,0,0,1,1.33-1.69l.57-.14a1.74,1.74,0,0,1,2,.78,1.74,1.74,0,0,0,2.36.64l.46-.27a1.73,1.73,0,0,0,.64-2.36,1.74,1.74,0,0,1,.31-2.12l.42-.42a1.75,1.75,0,0,1,2.12-.33,1.73,1.73,0,0,0,2.37-.63l.27-.46a1.73,1.73,0,0,0-.64-2.36,1.73,1.73,0,0,1-.78-2c.05-.19.1-.39.14-.57A1.73,1.73,0,0,1,56.27,43,1.72,1.72,0,0,0,58,41.27v-.54A1.72,1.72,0,0,0,56.27,39a1.76,1.76,0,0,1-1.69-1.33,2.264,2.264,0,0,0-.14-.57,1.73,1.73,0,0,1,.78-2,1.74,1.74,0,0,0,.64-2.36l-.27-.47a1.73,1.73,0,0,0-2.36-.64,1.74,1.74,0,0,1-2.12-.31l-.42-.42a1.75,1.75,0,0,1-.33-2.12,1.73,1.73,0,0,0-.63-2.37l-.46-.27a1.74,1.74,0,0,0-2.36.64,1.75,1.75,0,0,1-2,.79c-.19-.06-.39-.11-.57-.15A1.73,1.73,0,0,1,43,25.73,1.72,1.72,0,0,0,41.27,24h-.54A1.72,1.72,0,0,0,39,25.73a1.76,1.76,0,0,1-1.33,1.69,5.71,5.71,0,0,1-.9.2Z" fill="#7f8c8d"/>
      <path id="Shape-2" data-name="Shape" d="M32.06,40.05a9,9,0,1,0,8-8Z" fill="#95a5a5"/>
      <path id="Shape-3" data-name="Shape" d="M33.93,25.44c-.16.17.2-.41-3,5-5.94,3.72-5.31,3.31-5.48,3.47a64.15,64.15,0,0,0-7.87-9.09c-5.66-5.66-5.06-3.84-10.72-9.5S-1.83,4.23,1.2,1.2s8.48,0,14.14,5.65,3.84,5.06,9.5,10.72a64.15,64.15,0,0,0,9.09,7.87Z" fill="#f29c1f"/>
      <path id="Shape-4" data-name="Shape" d="M45.75,41a4.49,4.49,0,0,1-7.15,3.84L25.67,35.33a1,1,0,0,1-.11-1.51l8.26-8.26a1,1,0,0,1,1.51.11L44.88,38.6a4.44,4.44,0,0,1,.87,2.4Z" fill="#bdc3c7"/>
      <circle id="Oval" cx="1" cy="1" r="1" transform="translate(40 40)" fill="#7f8c8d"/>
    </g>
  </g>
</svg>
