<svg xmlns="http://www.w3.org/2000/svg" width="89" height="89" viewBox="0 0 89 89">
  <g id="Grupo_1099499" data-name="Grupo 1099499" transform="translate(-1251.583 -413.095)">
    <g id="Grupo_1098742" data-name="Grupo 1098742" transform="translate(48.263 24.353)">
      <g id="Rect치ngulo_400898" data-name="Rect치ngulo 400898" transform="translate(1203.32 388.742)" fill="#fff" stroke="#fff" stroke-width="3" opacity="0.859">
        <rect width="89" height="89" rx="44.5" stroke="none"/>
        <rect x="1.5" y="1.5" width="86" height="86" rx="43" fill="none"/>
      </g>
      <rect id="Rect치ngulo_400907" data-name="Rect치ngulo 400907" width="89" height="89" rx="44.5" transform="translate(1203.32 388.742)" fill="#c8f9f3"/>
    </g>
    <g id="cuenta" transform="translate(1257.644 428.095)">
      <g id="Grupo_1099650" data-name="Grupo 1099650" transform="translate(9.938 0)">
        <path id="Trazado_873681" data-name="Trazado 873681" d="M10.866,163.406c-.635,0-.928.286-.928.932v12.243a5.741,5.741,0,0,0,5.74,5.74l9.278-.194v-18.72Z" transform="translate(-9.938 -144.495)" fill="#bed8fb" fill-rule="evenodd"/>
        <path id="Trazado_873682" data-name="Trazado 873682" d="M47.932,182.162a5.639,5.639,0,0,0,1.112.152h.471l9.038-.188v-18.72h-6.2v13.168A5.746,5.746,0,0,1,47.932,182.162Z" transform="translate(-43.535 -144.495)" fill="#9dc6fb" fill-rule="evenodd"/>
        <path id="Trazado_873683" data-name="Trazado 873683" d="M78.491,37.826H59.534a5.738,5.738,0,0,0,5.737-5.74V5.74A5.741,5.741,0,0,1,71.01,0l5.743.079Z" transform="translate(-53.794 0)" fill="#ddeafb" fill-rule="evenodd"/>
        <path id="Trazado_873684" data-name="Trazado 873684" d="M155.089,37.826h-4.644V5.74A5.744,5.744,0,0,0,146.157.184,5.866,5.866,0,0,1,147.608,0l5.743.079Z" transform="translate(-130.392 0)" fill="#cbe2ff" fill-rule="evenodd"/>
        <path id="Trazado_873685" data-name="Trazado 873685" d="M198.437,58.517V5.74A5.741,5.741,0,0,0,192.7,0h-34a5.741,5.741,0,0,1,5.74,5.74V58.517c0,.635.313.787.846.543l2.557-1.168a1.965,1.965,0,0,1,1.692,0l2.561,1.168a1.946,1.946,0,0,0,1.688,0l2.561-1.168a1.98,1.98,0,0,1,1.688,0l2.561,1.168a1.977,1.977,0,0,0,1.692,0l2.557-1.168a1.91,1.91,0,0,1,1.692,0l2.56,1.168a1.934,1.934,0,0,0,1.688,0l2.56-1.168a1.958,1.958,0,0,1,1.688,0l2.561,1.168C198.21,59.343,198.437,59.172,198.437,58.517Z" transform="translate(-141.483 0)" fill="#f5faff" fill-rule="evenodd"/>
        <path id="Trazado_873686" data-name="Trazado 873686" d="M436.027,58.517V5.74A5.741,5.741,0,0,0,430.287,0h-2.9a5.741,5.741,0,0,1,5.74,5.74V58.119l2.057.941C435.8,59.343,436.027,59.172,436.027,58.517Z" transform="translate(-379.073 0)" fill="#ecf4ff" fill-rule="evenodd"/>
      </g>
      <path id="Trazado_873687" data-name="Trazado 873687" d="M320.013,27.035a.871.871,0,1,1,1.741,0v1.033a5,5,0,0,1,2.538,1.1.867.867,0,0,1-1.165,1.284,3,3,0,0,0-1.372-.629v4.815c.293.112.6.227.931.342a4.12,4.12,0,0,1,2.659,2.574,4.3,4.3,0,0,1,.138,2.2,4.808,4.808,0,0,1-.912,2.027,4.559,4.559,0,0,1-2.817,1.718v1.224a.871.871,0,1,1-1.741,0V43.567a6.24,6.24,0,0,1-1.224-.161,6.446,6.446,0,0,1-2.018-.945.87.87,0,1,1,.955-1.455,4.808,4.808,0,0,0,1.478.711,4.207,4.207,0,0,0,.81.112V35.806c-.089-.04-.178-.079-.263-.118a9.057,9.057,0,0,1-1.787-1.05,3,3,0,0,1-1.027-1.534,3.855,3.855,0,0,1-.076-1.84,4.084,4.084,0,0,1,.787-1.728,3.686,3.686,0,0,1,1.856-1.274c.174-.053.342-.1.51-.129Zm1.741,9.459v5.22a2.844,2.844,0,0,0,1.442-1,3,3,0,0,0,.579-1.283,2.57,2.57,0,0,0-.079-1.323,2.429,2.429,0,0,0-1.59-1.491C321.988,36.576,321.869,36.534,321.754,36.494Zm-1.741-2.613V29.925l-.016,0a1.951,1.951,0,0,0-.981.675,2.328,2.328,0,0,0-.448.994,2.125,2.125,0,0,0,.033,1.01,1.313,1.313,0,0,0,.428.661A6.2,6.2,0,0,0,320.013,33.881Z" transform="translate(-270.976 -23.135)" fill="#80b4fb"/>
      <path id="Trazado_873688" data-name="Trazado 873688" d="M319.934,240.092a.872.872,0,0,1,0-1.744h13.092a.872.872,0,0,1,0,1.744Zm0-3.252a.87.87,0,1,1,0-1.741h16a.87.87,0,1,1,0,1.741Z" transform="translate(-273.349 -207.891)" fill="#e28086"/>
      <path id="Trazado_873689" data-name="Trazado 873689" d="M319.934,320.345a.871.871,0,1,1,0-1.741h13.092a.871.871,0,1,1,0,1.741Zm0-3.252a.871.871,0,1,1,0-1.741h16a.871.871,0,1,1,0,1.741Z" transform="translate(-273.349 -278.856)" fill="#e28086"/>
      <path id="Trazado_873690" data-name="Trazado 873690" d="M319.934,400.6a.871.871,0,1,1,0-1.741h13.092a.871.871,0,1,1,0,1.741Zm0-3.252a.871.871,0,1,1,0-1.741h16a.871.871,0,1,1,0,1.741Z" transform="translate(-273.349 -349.82)" fill="#e28086"/>
      <path id="Trazado_873691" data-name="Trazado 873691" d="M252.651,252.653h3.367a.931.931,0,0,1,.928.928v3.367a.931.931,0,0,1-.928.928h-3.367a.932.932,0,0,1-.931-.928v-3.367A.932.932,0,0,1,252.651,252.653Zm0-18.579h3.367a.932.932,0,0,1,.928.932v3.367a.931.931,0,0,1-.928.928h-3.367a.932.932,0,0,1-.931-.928v-3.367A.933.933,0,0,1,252.651,234.074Zm0,9.291h3.367a.931.931,0,0,1,.928.928v3.367a.931.931,0,0,1-.928.928h-3.367a.932.932,0,0,1-.931-.928v-3.367A.932.932,0,0,1,252.651,243.365Z" transform="translate(-213.8 -206.984)" fill="#77c9a5" fill-rule="evenodd"/>
    </g>
  </g>
</svg>
